#usda 1.0
(
    defaultPrim = "Table"
    upAxis = "Y"
    metersPerUnit = 1
)

def Xform "Table"
{
    def Mesh "Top"
    {
        point3f[] points = [(-0.8, 0.71000004, -0.45), (0.8, 0.71000004, -0.45), (0.8, 0.77, -0.45), (-0.8, 0.77, -0.45), (-0.8, 0.71000004, 0.45), (0.8, 0.71000004, 0.45), (0.8, 0.77, 0.45), (-0.8, 0.77, 0.45)]
        int[] faceVertexCounts = [4, 4, 4, 4, 4, 4]
        int[] faceVertexIndices = [0, 3, 2, 1, 4, 5, 6, 7, 0, 1, 5, 4, 1, 2, 6, 5, 2, 3, 7, 6, 3, 0, 4, 7]
    }

    def Mesh "Leg1"
    {
        point3f[] points = [(-0.76000005, 0, -0.41), (-0.68, 0, -0.41), (-0.68, 0.71, -0.41), (-0.76000005, 0.71, -0.41), (-0.76000005, 0, -0.33), (-0.68, 0, -0.33), (-0.68, 0.71, -0.33), (-0.76000005, 0.71, -0.33)]
        int[] faceVertexCounts = [4, 4, 4, 4, 4, 4]
        int[] faceVertexIndices = [0, 3, 2, 1, 4, 5, 6, 7, 0, 1, 5, 4, 1, 2, 6, 5, 2, 3, 7, 6, 3, 0, 4, 7]
    }

    def Mesh "Leg2"
    {
        point3f[] points = [(0.68, 0, -0.41), (0.76000005, 0, -0.41), (0.76000005, 0.71, -0.41), (0.68, 0.71, -0.41), (0.68, 0, -0.33), (0.76000005, 0, -0.33), (0.76000005, 0.71, -0.33), (0.68, 0.71, -0.33)]
        int[] faceVertexCounts = [4, 4, 4, 4, 4, 4]
        int[] faceVertexIndices = [0, 3, 2, 1, 4, 5, 6, 7, 0, 1, 5, 4, 1, 2, 6, 5, 2, 3, 7, 6, 3, 0, 4, 7]
    }

    def Mesh "Leg3"
    {
        point3f[] points = [(0.68, 0, 0.33), (0.76000005, 0, 0.33), (0.76000005, 0.71, 0.33), (0.68, 0.71, 0.33), (0.68, 0, 0.41), (0.76000005, 0, 0.41), (0.76000005, 0.71, 0.41), (0.68, 0.71, 0.41)]
        int[] faceVertexCounts = [4, 4, 4, 4, 4, 4]
        int[] faceVertexIndices = [0, 3, 2, 1, 4, 5, 6, 7, 0, 1, 5, 4, 1, 2, 6, 5, 2, 3, 7, 6, 3, 0, 4, 7]
    }

    def Mesh "Leg4"
    {
        point3f[] points = [(-0.76000005, 0, 0.33), (-0.68, 0, 0.33), (-0.68, 0.71, 0.33), (-0.76000005, 0.71, 0.33), (-0.76000005, 0, 0.41), (-0.68, 0, 0.41), (-0.68, 0.71, 0.41), (-0.76000005, 0.71, 0.41)]
        int[] faceVertexCounts = [4, 4, 4, 4, 4, 4]
        int[] faceVertexIndices = [0, 3, 2, 1, 4, 5, 6, 7, 0, 1, 5, 4, 1, 2, 6, 5, 2, 3, 7, 6, 3, 0, 4, 7]
    }
}
