#usda 1.0
(
    defaultPrim = "Lamps"
    upAxis = "Y"
    metersPerUnit = 1
)

def Xform "Lamps"
{
    def Xform "Lamp1"
    {
        double3 xformOp:translate = (-2.5, 0, 0)
        uniform token[] xformOpOrder = ["xformOp:translate"]

        def Xform "Render"
        {
            uniform token purpose = "render"
            def Mesh "Base"
            {
                point3f[] points = [(0.18, 0, 0), (0.1765, 0, 0.0351), (0.1663, 0, 0.0689), (0.1497, 0, 0.1), (0.1273, 0, 0.1273), (0.1, 0, 0.1497), (0.0689, 0, 0.1663), (0.0351, 0, 0.1765), (0, 0, 0.18), (-0.0351, 0, 0.1765), (-0.0689, 0, 0.1663), (-0.1, 0, 0.1497), (-0.1273, 0, 0.1273), (-0.1497, 0, 0.1), (-0.1663, 0, 0.0689), (-0.1765, 0, 0.0351), (-0.18, 0, 0), (-0.1765, 0, -0.0351), (-0.1663, 0, -0.0689), (-0.1497, 0, -0.1), (-0.1273, 0, -0.1273), (-0.1, 0, -0.1497), (-0.0689, 0, -0.1663), (-0.0351, 0, -0.1765), (0, 0, -0.18), (0.0351, 0, -0.1765), (0.0689, 0, -0.1663), (0.1, 0, -0.1497), (0.1273, 0, -0.1273), (0.1497, 0, -0.1), (0.1663, 0, -0.0689), (0.1765, 0, -0.0351), (0.18, 0.15, 0), (0.1765, 0.15, 0.0351), (0.1663, 0.15, 0.0689), (0.1497, 0.15, 0.1), (0.1273, 0.15, 0.1273), (0.1, 0.15, 0.1497), (0.0689, 0.15, 0.1663), (0.0351, 0.15, 0.1765), (0, 0.15, 0.18), (-0.0351, 0.15, 0.1765), (-0.0689, 0.15, 0.1663), (-0.1, 0.15, 0.1497), (-0.1273, 0.15, 0.1273), (-0.1497, 0.15, 0.1), (-0.1663, 0.15, 0.0689), (-0.1765, 0.15, 0.0351), (-0.18, 0.15, 0), (-0.1765, 0.15, -0.0351), (-0.1663, 0.15, -0.0689), (-0.1497, 0.15, -0.1), (-0.1273, 0.15, -0.1273), (-0.1, 0.15, -0.1497), (-0.0689, 0.15, -0.1663), (-0.0351, 0.15, -0.1765), (0, 0.15, -0.18), (0.0351, 0.15, -0.1765), (0.0689, 0.15, -0.1663), (0.1, 0.15, -0.1497), (0.1273, 0.15, -0.1273), (0.1497, 0.15, -0.1), (0.1663, 0.15, -0.0689), (0.1765, 0.15, -0.0351)]
                int[] faceVertexCounts = [4, 4, 4, 4, 4, 4, 4, 4, 4, 4, 4, 4, 4, 4, 4, 4, 4, 4, 4, 4, 4, 4, 4, 4, 4, 4, 4, 4, 4, 4, 4, 4, 32, 32]
                int[] faceVertexIndices = [1, 0, 32, 33, 2, 1, 33, 34, 3, 2, 34, 35, 4, 3, 35, 36, 5, 4, 36, 37, 6, 5, 37, 38, 7, 6, 38, 39, 8, 7, 39, 40, 9, 8, 40, 41, 10, 9, 41, 42, 11, 10, 42, 43, 12, 11, 43, 44, 13, 12, 44, 45, 14, 13, 45, 46, 15, 14, 46, 47, 16, 15, 47, 48, 17, 16, 48, 49, 18, 17, 49, 50, 19, 18, 50, 51, 20, 19, 51, 52, 21, 20, 52, 53, 22, 21, 53, 54, 23, 22, 54, 55, 24, 23, 55, 56, 25, 24, 56, 57, 26, 25, 57, 58, 27, 26, 58, 59, 28, 27, 59, 60, 29, 28, 60, 61, 30, 29, 61, 62, 31, 30, 62, 63, 0, 31, 63, 32, 0, 1, 2, 3, 4, 5, 6, 7, 8, 9, 10, 11, 12, 13, 14, 15, 16, 17, 18, 19, 20, 21, 22, 23, 24, 25, 26, 27, 28, 29, 30, 31, 63, 62, 61, 60, 59, 58, 57, 56, 55, 54, 53, 52, 51, 50, 49, 48, 47, 46, 45, 44, 43, 42, 41, 40, 39, 38, 37, 36, 35, 34, 33, 32]
                uniform token subdivisionScheme = "none"
            }
            def Mesh "Pole"
            {
                point3f[] points = [(0.05, 0.15, 0), (0.0483, 0.15, 0.0129), (0.0433, 0.15, 0.025), (0.0354, 0.15, 0.0354), (0.025, 0.15, 0.0433), (0.0129, 0.15, 0.0483), (0, 0.15, 0.05), (-0.0129, 0.15, 0.0483), (-0.025, 0.15, 0.0433), (-0.0354, 0.15, 0.0354), (-0.0433, 0.15, 0.025), (-0.0483, 0.15, 0.0129), (-0.05, 0.15, 0), (-0.0483, 0.15, -0.0129), (-0.0433, 0.15, -0.025), (-0.0354, 0.15, -0.0354), (-0.025, 0.15, -0.0433), (-0.0129, 0.15, -0.0483), (0, 0.15, -0.05), (0.0129, 0.15, -0.0483), (0.025, 0.15, -0.0433), (0.0354, 0.15, -0.0354), (0.0433, 0.15, -0.025), (0.0483, 0.15, -0.0129), (0.05, 2.75, 0), (0.0483, 2.75, 0.0129), (0.0433, 2.75, 0.025), (0.0354, 2.75, 0.0354), (0.025, 2.75, 0.0433), (0.0129, 2.75, 0.0483), (0, 2.75, 0.05), (-0.0129, 2.75, 0.0483), (-0.025, 2.75, 0.0433), (-0.0354, 2.75, 0.0354), (-0.0433, 2.75, 0.025), (-0.0483, 2.75, 0.0129), (-0.05, 2.75, 0), (-0.0483, 2.75, -0.0129), (-0.0433, 2.75, -0.025), (-0.0354, 2.75, -0.0354), (-0.025, 2.75, -0.0433), (-0.0129, 2.75, -0.0483), (0, 2.75, -0.05), (0.0129, 2.75, -0.0483), (0.025, 2.75, -0.0433), (0.0354, 2.75, -0.0354), (0.0433, 2.75, -0.025), (0.0483, 2.75, -0.0129)]
                int[] faceVertexCounts = [4, 4, 4, 4, 4, 4, 4, 4, 4, 4, 4, 4, 4, 4, 4, 4, 4, 4, 4, 4, 4, 4, 4, 4, 24, 24]
                int[] faceVertexIndices = [1, 0, 24, 25, 2, 1, 25, 26, 3, 2, 26, 27, 4, 3, 27, 28, 5, 4, 28, 29, 6, 5, 29, 30, 7, 6, 30, 31, 8, 7, 31, 32, 9, 8, 32, 33, 10, 9, 33, 34, 11, 10, 34, 35, 12, 11, 35, 36, 13, 12, 36, 37, 14, 13, 37, 38, 15, 14, 38, 39, 16, 15, 39, 40, 17, 16, 40, 41, 18, 17, 41, 42, 19, 18, 42, 43, 20, 19, 43, 44, 21, 20, 44, 45, 22, 21, 45, 46, 23, 22, 46, 47, 0, 23, 47, 24, 0, 1, 2, 3, 4, 5, 6, 7, 8, 9, 10, 11, 12, 13, 14, 15, 16, 17, 18, 19, 20, 21, 22, 23, 47, 46, 45, 44, 43, 42, 41, 40, 39, 38, 37, 36, 35, 34, 33, 32, 31, 30, 29, 28, 27, 26, 25, 24]
                uniform token subdivisionScheme = "none"
            }
            def Mesh "Shade"
            {
                point3f[] points = [(0.09, 2.75, 0), (0.0869, 2.75, 0.0233), (0.0779, 2.75, 0.045), (0.0636, 2.75, 0.0636), (0.045, 2.75, 0.0779), (0.0233, 2.75, 0.0869), (0, 2.75, 0.09), (-0.0233, 2.75, 0.0869), (-0.045, 2.75, 0.0779), (-0.0636, 2.75, 0.0636), (-0.0779, 2.75, 0.045), (-0.0869, 2.75, 0.0233), (-0.09, 2.75, 0), (-0.0869, 2.75, -0.0233), (-0.0779, 2.75, -0.045), (-0.0636, 2.75, -0.0636), (-0.045, 2.75, -0.0779), (-0.0233, 2.75, -0.0869), (0, 2.75, -0.09), (0.0233, 2.75, -0.0869), (0.045, 2.75, -0.0779), (0.0636, 2.75, -0.0636), (0.0779, 2.75, -0.045), (0.0869, 2.75, -0.0233), (0.09, 2.87, 0), (0.0869, 2.87, 0.0233), (0.0779, 2.87, 0.045), (0.0636, 2.87, 0.0636), (0.045, 2.87, 0.0779), (0.0233, 2.87, 0.0869), (0, 2.87, 0.09), (-0.0233, 2.87, 0.0869), (-0.045, 2.87, 0.0779), (-0.0636, 2.87, 0.0636), (-0.0779, 2.87, 0.045), (-0.0869, 2.87, 0.0233), (-0.09, 2.87, 0), (-0.0869, 2.87, -0.0233), (-0.0779, 2.87, -0.045), (-0.0636, 2.87, -0.0636), (-0.045, 2.87, -0.0779), (-0.0233, 2.87, -0.0869), (0, 2.87, -0.09), (0.0233, 2.87, -0.0869), (0.045, 2.87, -0.0779), (0.0636, 2.87, -0.0636), (0.0779, 2.87, -0.045), (0.0869, 2.87, -0.0233), (0.35, 2.55, 0), (0.3433, 2.55, 0.0683), (0.3234, 2.55, 0.1339), (0.291, 2.55, 0.1944), (0.2475, 2.55, 0.2475), (0.1944, 2.55, 0.291), (0.1339, 2.55, 0.3234), (0.0683, 2.55, 0.3433), (0, 2.55, 0.35), (-0.0683, 2.55, 0.3433), (-0.1339, 2.55, 0.3234), (-0.1944, 2.55, 0.291), (-0.2475, 2.55, 0.2475), (-0.291, 2.55, 0.1944), (-0.3234, 2.55, 0.1339), (-0.3433, 2.55, 0.0683), (-0.35, 2.55, 0), (-0.3433, 2.55, -0.0683), (-0.3234, 2.55, -0.1339), (-0.291, 2.55, -0.1944), (-0.2475, 2.55, -0.2475), (-0.1944, 2.55, -0.291), (-0.1339, 2.55, -0.3234), (-0.0683, 2.55, -0.3433), (0, 2.55, -0.35), (0.0683, 2.55, -0.3433), (0.1339, 2.55, -0.3234), (0.1944, 2.55, -0.291), (0.2475, 2.55, -0.2475), (0.291, 2.55, -0.1944), (0.3234, 2.55, -0.1339), (0.3433, 2.55, -0.0683), (0, 2.87, 0)]
                int[] faceVertexCounts = [4, 4, 4, 4, 4, 4, 4, 4, 4, 4, 4, 4, 4, 4, 4, 4, 4, 4, 4, 4, 4, 4, 4, 4, 24, 24, 3, 3, 3, 3, 3, 3, 3, 3, 3, 3, 3, 3, 3, 3, 3, 3, 3, 3, 3, 3, 3, 3, 3, 3, 3, 3, 3, 3, 3, 3, 3, 3, 32]
                int[] faceVertexIndices = [1, 0, 24, 25, 2, 1, 25, 26, 3, 2, 26, 27, 4, 3, 27, 28, 5, 4, 28, 29, 6, 5, 29, 30, 7, 6, 30, 31, 8, 7, 31, 32, 9, 8, 32, 33, 10, 9, 33, 34, 11, 10, 34, 35, 12, 11, 35, 36, 13, 12, 36, 37, 14, 13, 37, 38, 15, 14, 38, 39, 16, 15, 39, 40, 17, 16, 40, 41, 18, 17, 41, 42, 19, 18, 42, 43, 20, 19, 43, 44, 21, 20, 44, 45, 22, 21, 45, 46, 23, 22, 46, 47, 0, 23, 47, 24, 0, 1, 2, 3, 4, 5, 6, 7, 8, 9, 10, 11, 12, 13, 14, 15, 16, 17, 18, 19, 20, 21, 22, 23, 47, 46, 45, 44, 43, 42, 41, 40, 39, 38, 37, 36, 35, 34, 33, 32, 31, 30, 29, 28, 27, 26, 25, 24, 49, 48, 80, 50, 49, 80, 51, 50, 80, 52, 51, 80, 53, 52, 80, 54, 53, 80, 55, 54, 80, 56, 55, 80, 57, 56, 80, 58, 57, 80, 59, 58, 80, 60, 59, 80, 61, 60, 80, 62, 61, 80, 63, 62, 80, 64, 63, 80, 65, 64, 80, 66, 65, 80, 67, 66, 80, 68, 67, 80, 69, 68, 80, 70, 69, 80, 71, 70, 80, 72, 71, 80, 73, 72, 80, 74, 73, 80, 75, 74, 80, 76, 75, 80, 77, 76, 80, 78, 77, 80, 79, 78, 80, 48, 79, 80, 48, 49, 50, 51, 52, 53, 54, 55, 56, 57, 58, 59, 60, 61, 62, 63, 64, 65, 66, 67, 68, 69, 70, 71, 72, 73, 74, 75, 76, 77, 78, 79]
                uniform token subdivisionScheme = "none"
            }
        }

        def Xform "Proxy"
        {
            uniform token purpose = "proxy"
            def Mesh "Blocks"
            {
                point3f[] points = [(-0.18, 0, -0.18), (0.18, 0, -0.18), (0.18, 0.15, -0.18), (-0.18, 0.15, -0.18), (-0.18, 0, 0.18), (0.18, 0, 0.18), (0.18, 0.15, 0.18), (-0.18, 0.15, 0.18), (-0.06, 0.15, -0.06), (0.06, 0.15, -0.06), (0.06, 2.75, -0.06), (-0.06, 2.75, -0.06), (-0.06, 0.15, 0.06), (0.06, 0.15, 0.06), (0.06, 2.75, 0.06), (-0.06, 2.75, 0.06), (-0.35, 2.55, -0.35), (0.35, 2.55, -0.35), (0.35, 2.9, -0.35), (-0.35, 2.9, -0.35), (-0.35, 2.55, 0.35), (0.35, 2.55, 0.35), (0.35, 2.9, 0.35), (-0.35, 2.9, 0.35)]
                int[] faceVertexCounts = [4, 4, 4, 4, 4, 4, 4, 4, 4, 4, 4, 4, 4, 4, 4, 4, 4, 4]
                int[] faceVertexIndices = [0, 3, 2, 1, 4, 5, 6, 7, 0, 1, 5, 4, 1, 2, 6, 5, 2, 3, 7, 6, 3, 0, 4, 7, 8, 11, 10, 9, 12, 13, 14, 15, 8, 9, 13, 12, 9, 10, 14, 13, 10, 11, 15, 14, 11, 8, 12, 15, 16, 19, 18, 17, 20, 21, 22, 23, 16, 17, 21, 20, 17, 18, 22, 21, 18, 19, 23, 22, 19, 16, 20, 23]
                uniform token subdivisionScheme = "none"
            }
        }

        def Xform "Guide"
        {
            uniform token purpose = "guide"
            def BasisCurves "LightCone"
            {
                uniform token type = "linear"
                int[] curveVertexCounts = [2, 2, 2, 2, 2, 2, 2, 2, 2, 2, 2, 2]
                point3f[] points = [(0, 2.55, 0), (1.6, 0, 0), (0, 2.55, 0), (1.3856, 0, 0.8), (0, 2.55, 0), (0.8, 0, 1.3856), (0, 2.55, 0), (0, 0, 1.6), (0, 2.55, 0), (-0.8, 0, 1.3856), (0, 2.55, 0), (-1.3856, 0, 0.8), (0, 2.55, 0), (-1.6, 0, 0), (0, 2.55, 0), (-1.3856, 0, -0.8), (0, 2.55, 0), (-0.8, 0, -1.3856), (0, 2.55, 0), (0, 0, -1.6), (0, 2.55, 0), (0.8, 0, -1.3856), (0, 2.55, 0), (1.3856, 0, -0.8)]
            }
        }
    }

    def Xform "Lamp2"
    {
        double3 xformOp:translate = (0, 0, 0)
        uniform token[] xformOpOrder = ["xformOp:translate"]

        def Xform "Render"
        {
            uniform token purpose = "render"
            def Mesh "Base"
            {
                point3f[] points = [(0.18, 0, 0), (0.1765, 0, 0.0351), (0.1663, 0, 0.0689), (0.1497, 0, 0.1), (0.1273, 0, 0.1273), (0.1, 0, 0.1497), (0.0689, 0, 0.1663), (0.0351, 0, 0.1765), (0, 0, 0.18), (-0.0351, 0, 0.1765), (-0.0689, 0, 0.1663), (-0.1, 0, 0.1497), (-0.1273, 0, 0.1273), (-0.1497, 0, 0.1), (-0.1663, 0, 0.0689), (-0.1765, 0, 0.0351), (-0.18, 0, 0), (-0.1765, 0, -0.0351), (-0.1663, 0, -0.0689), (-0.1497, 0, -0.1), (-0.1273, 0, -0.1273), (-0.1, 0, -0.1497), (-0.0689, 0, -0.1663), (-0.0351, 0, -0.1765), (0, 0, -0.18), (0.0351, 0, -0.1765), (0.0689, 0, -0.1663), (0.1, 0, -0.1497), (0.1273, 0, -0.1273), (0.1497, 0, -0.1), (0.1663, 0, -0.0689), (0.1765, 0, -0.0351), (0.18, 0.15, 0), (0.1765, 0.15, 0.0351), (0.1663, 0.15, 0.0689), (0.1497, 0.15, 0.1), (0.1273, 0.15, 0.1273), (0.1, 0.15, 0.1497), (0.0689, 0.15, 0.1663), (0.0351, 0.15, 0.1765), (0, 0.15, 0.18), (-0.0351, 0.15, 0.1765), (-0.0689, 0.15, 0.1663), (-0.1, 0.15, 0.1497), (-0.1273, 0.15, 0.1273), (-0.1497, 0.15, 0.1), (-0.1663, 0.15, 0.0689), (-0.1765, 0.15, 0.0351), (-0.18, 0.15, 0), (-0.1765, 0.15, -0.0351), (-0.1663, 0.15, -0.0689), (-0.1497, 0.15, -0.1), (-0.1273, 0.15, -0.1273), (-0.1, 0.15, -0.1497), (-0.0689, 0.15, -0.1663), (-0.0351, 0.15, -0.1765), (0, 0.15, -0.18), (0.0351, 0.15, -0.1765), (0.0689, 0.15, -0.1663), (0.1, 0.15, -0.1497), (0.1273, 0.15, -0.1273), (0.1497, 0.15, -0.1), (0.1663, 0.15, -0.0689), (0.1765, 0.15, -0.0351)]
                int[] faceVertexCounts = [4, 4, 4, 4, 4, 4, 4, 4, 4, 4, 4, 4, 4, 4, 4, 4, 4, 4, 4, 4, 4, 4, 4, 4, 4, 4, 4, 4, 4, 4, 4, 4, 32, 32]
                int[] faceVertexIndices = [1, 0, 32, 33, 2, 1, 33, 34, 3, 2, 34, 35, 4, 3, 35, 36, 5, 4, 36, 37, 6, 5, 37, 38, 7, 6, 38, 39, 8, 7, 39, 40, 9, 8, 40, 41, 10, 9, 41, 42, 11, 10, 42, 43, 12, 11, 43, 44, 13, 12, 44, 45, 14, 13, 45, 46, 15, 14, 46, 47, 16, 15, 47, 48, 17, 16, 48, 49, 18, 17, 49, 50, 19, 18, 50, 51, 20, 19, 51, 52, 21, 20, 52, 53, 22, 21, 53, 54, 23, 22, 54, 55, 24, 23, 55, 56, 25, 24, 56, 57, 26, 25, 57, 58, 27, 26, 58, 59, 28, 27, 59, 60, 29, 28, 60, 61, 30, 29, 61, 62, 31, 30, 62, 63, 0, 31, 63, 32, 0, 1, 2, 3, 4, 5, 6, 7, 8, 9, 10, 11, 12, 13, 14, 15, 16, 17, 18, 19, 20, 21, 22, 23, 24, 25, 26, 27, 28, 29, 30, 31, 63, 62, 61, 60, 59, 58, 57, 56, 55, 54, 53, 52, 51, 50, 49, 48, 47, 46, 45, 44, 43, 42, 41, 40, 39, 38, 37, 36, 35, 34, 33, 32]
                uniform token subdivisionScheme = "none"
            }
            def Mesh "Pole"
            {
                point3f[] points = [(0.05, 0.15, 0), (0.0483, 0.15, 0.0129), (0.0433, 0.15, 0.025), (0.0354, 0.15, 0.0354), (0.025, 0.15, 0.0433), (0.0129, 0.15, 0.0483), (0, 0.15, 0.05), (-0.0129, 0.15, 0.0483), (-0.025, 0.15, 0.0433), (-0.0354, 0.15, 0.0354), (-0.0433, 0.15, 0.025), (-0.0483, 0.15, 0.0129), (-0.05, 0.15, 0), (-0.0483, 0.15, -0.0129), (-0.0433, 0.15, -0.025), (-0.0354, 0.15, -0.0354), (-0.025, 0.15, -0.0433), (-0.0129, 0.15, -0.0483), (0, 0.15, -0.05), (0.0129, 0.15, -0.0483), (0.025, 0.15, -0.0433), (0.0354, 0.15, -0.0354), (0.0433, 0.15, -0.025), (0.0483, 0.15, -0.0129), (0.05, 2.75, 0), (0.0483, 2.75, 0.0129), (0.0433, 2.75, 0.025), (0.0354, 2.75, 0.0354), (0.025, 2.75, 0.0433), (0.0129, 2.75, 0.0483), (0, 2.75, 0.05), (-0.0129, 2.75, 0.0483), (-0.025, 2.75, 0.0433), (-0.0354, 2.75, 0.0354), (-0.0433, 2.75, 0.025), (-0.0483, 2.75, 0.0129), (-0.05, 2.75, 0), (-0.0483, 2.75, -0.0129), (-0.0433, 2.75, -0.025), (-0.0354, 2.75, -0.0354), (-0.025, 2.75, -0.0433), (-0.0129, 2.75, -0.0483), (0, 2.75, -0.05), (0.0129, 2.75, -0.0483), (0.025, 2.75, -0.0433), (0.0354, 2.75, -0.0354), (0.0433, 2.75, -0.025), (0.0483, 2.75, -0.0129)]
                int[] faceVertexCounts = [4, 4, 4, 4, 4, 4, 4, 4, 4, 4, 4, 4, 4, 4, 4, 4, 4, 4, 4, 4, 4, 4, 4, 4, 24, 24]
                int[] faceVertexIndices = [1, 0, 24, 25, 2, 1, 25, 26, 3, 2, 26, 27, 4, 3, 27, 28, 5, 4, 28, 29, 6, 5, 29, 30, 7, 6, 30, 31, 8, 7, 31, 32, 9, 8, 32, 33, 10, 9, 33, 34, 11, 10, 34, 35, 12, 11, 35, 36, 13, 12, 36, 37, 14, 13, 37, 38, 15, 14, 38, 39, 16, 15, 39, 40, 17, 16, 40, 41, 18, 17, 41, 42, 19, 18, 42, 43, 20, 19, 43, 44, 21, 20, 44, 45, 22, 21, 45, 46, 23, 22, 46, 47, 0, 23, 47, 24, 0, 1, 2, 3, 4, 5, 6, 7, 8, 9, 10, 11, 12, 13, 14, 15, 16, 17, 18, 19, 20, 21, 22, 23, 47, 46, 45, 44, 43, 42, 41, 40, 39, 38, 37, 36, 35, 34, 33, 32, 31, 30, 29, 28, 27, 26, 25, 24]
                uniform token subdivisionScheme = "none"
            }
            def Mesh "Shade"
            {
                point3f[] points = [(0.09, 2.75, 0), (0.0869, 2.75, 0.0233), (0.0779, 2.75, 0.045), (0.0636, 2.75, 0.0636), (0.045, 2.75, 0.0779), (0.0233, 2.75, 0.0869), (0, 2.75, 0.09), (-0.0233, 2.75, 0.0869), (-0.045, 2.75, 0.0779), (-0.0636, 2.75, 0.0636), (-0.0779, 2.75, 0.045), (-0.0869, 2.75, 0.0233), (-0.09, 2.75, 0), (-0.0869, 2.75, -0.0233), (-0.0779, 2.75, -0.045), (-0.0636, 2.75, -0.0636), (-0.045, 2.75, -0.0779), (-0.0233, 2.75, -0.0869), (0, 2.75, -0.09), (0.0233, 2.75, -0.0869), (0.045, 2.75, -0.0779), (0.0636, 2.75, -0.0636), (0.0779, 2.75, -0.045), (0.0869, 2.75, -0.0233), (0.09, 2.87, 0), (0.0869, 2.87, 0.0233), (0.0779, 2.87, 0.045), (0.0636, 2.87, 0.0636), (0.045, 2.87, 0.0779), (0.0233, 2.87, 0.0869), (0, 2.87, 0.09), (-0.0233, 2.87, 0.0869), (-0.045, 2.87, 0.0779), (-0.0636, 2.87, 0.0636), (-0.0779, 2.87, 0.045), (-0.0869, 2.87, 0.0233), (-0.09, 2.87, 0), (-0.0869, 2.87, -0.0233), (-0.0779, 2.87, -0.045), (-0.0636, 2.87, -0.0636), (-0.045, 2.87, -0.0779), (-0.0233, 2.87, -0.0869), (0, 2.87, -0.09), (0.0233, 2.87, -0.0869), (0.045, 2.87, -0.0779), (0.0636, 2.87, -0.0636), (0.0779, 2.87, -0.045), (0.0869, 2.87, -0.0233), (0.35, 2.55, 0), (0.3433, 2.55, 0.0683), (0.3234, 2.55, 0.1339), (0.291, 2.55, 0.1944), (0.2475, 2.55, 0.2475), (0.1944, 2.55, 0.291), (0.1339, 2.55, 0.3234), (0.0683, 2.55, 0.3433), (0, 2.55, 0.35), (-0.0683, 2.55, 0.3433), (-0.1339, 2.55, 0.3234), (-0.1944, 2.55, 0.291), (-0.2475, 2.55, 0.2475), (-0.291, 2.55, 0.1944), (-0.3234, 2.55, 0.1339), (-0.3433, 2.55, 0.0683), (-0.35, 2.55, 0), (-0.3433, 2.55, -0.0683), (-0.3234, 2.55, -0.1339), (-0.291, 2.55, -0.1944), (-0.2475, 2.55, -0.2475), (-0.1944, 2.55, -0.291), (-0.1339, 2.55, -0.3234), (-0.0683, 2.55, -0.3433), (0, 2.55, -0.35), (0.0683, 2.55, -0.3433), (0.1339, 2.55, -0.3234), (0.1944, 2.55, -0.291), (0.2475, 2.55, -0.2475), (0.291, 2.55, -0.1944), (0.3234, 2.55, -0.1339), (0.3433, 2.55, -0.0683), (0, 2.87, 0)]
                int[] faceVertexCounts = [4, 4, 4, 4, 4, 4, 4, 4, 4, 4, 4, 4, 4, 4, 4, 4, 4, 4, 4, 4, 4, 4, 4, 4, 24, 24, 3, 3, 3, 3, 3, 3, 3, 3, 3, 3, 3, 3, 3, 3, 3, 3, 3, 3, 3, 3, 3, 3, 3, 3, 3, 3, 3, 3, 3, 3, 3, 3, 32]
                int[] faceVertexIndices = [1, 0, 24, 25, 2, 1, 25, 26, 3, 2, 26, 27, 4, 3, 27, 28, 5, 4, 28, 29, 6, 5, 29, 30, 7, 6, 30, 31, 8, 7, 31, 32, 9, 8, 32, 33, 10, 9, 33, 34, 11, 10, 34, 35, 12, 11, 35, 36, 13, 12, 36, 37, 14, 13, 37, 38, 15, 14, 38, 39, 16, 15, 39, 40, 17, 16, 40, 41, 18, 17, 41, 42, 19, 18, 42, 43, 20, 19, 43, 44, 21, 20, 44, 45, 22, 21, 45, 46, 23, 22, 46, 47, 0, 23, 47, 24, 0, 1, 2, 3, 4, 5, 6, 7, 8, 9, 10, 11, 12, 13, 14, 15, 16, 17, 18, 19, 20, 21, 22, 23, 47, 46, 45, 44, 43, 42, 41, 40, 39, 38, 37, 36, 35, 34, 33, 32, 31, 30, 29, 28, 27, 26, 25, 24, 49, 48, 80, 50, 49, 80, 51, 50, 80, 52, 51, 80, 53, 52, 80, 54, 53, 80, 55, 54, 80, 56, 55, 80, 57, 56, 80, 58, 57, 80, 59, 58, 80, 60, 59, 80, 61, 60, 80, 62, 61, 80, 63, 62, 80, 64, 63, 80, 65, 64, 80, 66, 65, 80, 67, 66, 80, 68, 67, 80, 69, 68, 80, 70, 69, 80, 71, 70, 80, 72, 71, 80, 73, 72, 80, 74, 73, 80, 75, 74, 80, 76, 75, 80, 77, 76, 80, 78, 77, 80, 79, 78, 80, 48, 79, 80, 48, 49, 50, 51, 52, 53, 54, 55, 56, 57, 58, 59, 60, 61, 62, 63, 64, 65, 66, 67, 68, 69, 70, 71, 72, 73, 74, 75, 76, 77, 78, 79]
                uniform token subdivisionScheme = "none"
            }
        }

        def Xform "Proxy"
        {
            uniform token purpose = "proxy"
            def Mesh "Blocks"
            {
                point3f[] points = [(-0.18, 0, -0.18), (0.18, 0, -0.18), (0.18, 0.15, -0.18), (-0.18, 0.15, -0.18), (-0.18, 0, 0.18), (0.18, 0, 0.18), (0.18, 0.15, 0.18), (-0.18, 0.15, 0.18), (-0.06, 0.15, -0.06), (0.06, 0.15, -0.06), (0.06, 2.75, -0.06), (-0.06, 2.75, -0.06), (-0.06, 0.15, 0.06), (0.06, 0.15, 0.06), (0.06, 2.75, 0.06), (-0.06, 2.75, 0.06), (-0.35, 2.55, -0.35), (0.35, 2.55, -0.35), (0.35, 2.9, -0.35), (-0.35, 2.9, -0.35), (-0.35, 2.55, 0.35), (0.35, 2.55, 0.35), (0.35, 2.9, 0.35), (-0.35, 2.9, 0.35)]
                int[] faceVertexCounts = [4, 4, 4, 4, 4, 4, 4, 4, 4, 4, 4, 4, 4, 4, 4, 4, 4, 4]
                int[] faceVertexIndices = [0, 3, 2, 1, 4, 5, 6, 7, 0, 1, 5, 4, 1, 2, 6, 5, 2, 3, 7, 6, 3, 0, 4, 7, 8, 11, 10, 9, 12, 13, 14, 15, 8, 9, 13, 12, 9, 10, 14, 13, 10, 11, 15, 14, 11, 8, 12, 15, 16, 19, 18, 17, 20, 21, 22, 23, 16, 17, 21, 20, 17, 18, 22, 21, 18, 19, 23, 22, 19, 16, 20, 23]
                uniform token subdivisionScheme = "none"
            }
        }

        def Xform "Guide"
        {
            uniform token purpose = "guide"
            def BasisCurves "LightCone"
            {
                uniform token type = "linear"
                int[] curveVertexCounts = [2, 2, 2, 2, 2, 2, 2, 2, 2, 2, 2, 2]
                point3f[] points = [(0, 2.55, 0), (1.6, 0, 0), (0, 2.55, 0), (1.3856, 0, 0.8), (0, 2.55, 0), (0.8, 0, 1.3856), (0, 2.55, 0), (0, 0, 1.6), (0, 2.55, 0), (-0.8, 0, 1.3856), (0, 2.55, 0), (-1.3856, 0, 0.8), (0, 2.55, 0), (-1.6, 0, 0), (0, 2.55, 0), (-1.3856, 0, -0.8), (0, 2.55, 0), (-0.8, 0, -1.3856), (0, 2.55, 0), (0, 0, -1.6), (0, 2.55, 0), (0.8, 0, -1.3856), (0, 2.55, 0), (1.3856, 0, -0.8)]
            }
        }
    }

    def Xform "Lamp3"
    {
        double3 xformOp:translate = (2.5, 0, 0)
        uniform token[] xformOpOrder = ["xformOp:translate"]

        def Xform "Render"
        {
            uniform token purpose = "render"
            def Mesh "Base"
            {
                point3f[] points = [(0.18, 0, 0), (0.1765, 0, 0.0351), (0.1663, 0, 0.0689), (0.1497, 0, 0.1), (0.1273, 0, 0.1273), (0.1, 0, 0.1497), (0.0689, 0, 0.1663), (0.0351, 0, 0.1765), (0, 0, 0.18), (-0.0351, 0, 0.1765), (-0.0689, 0, 0.1663), (-0.1, 0, 0.1497), (-0.1273, 0, 0.1273), (-0.1497, 0, 0.1), (-0.1663, 0, 0.0689), (-0.1765, 0, 0.0351), (-0.18, 0, 0), (-0.1765, 0, -0.0351), (-0.1663, 0, -0.0689), (-0.1497, 0, -0.1), (-0.1273, 0, -0.1273), (-0.1, 0, -0.1497), (-0.0689, 0, -0.1663), (-0.0351, 0, -0.1765), (0, 0, -0.18), (0.0351, 0, -0.1765), (0.0689, 0, -0.1663), (0.1, 0, -0.1497), (0.1273, 0, -0.1273), (0.1497, 0, -0.1), (0.1663, 0, -0.0689), (0.1765, 0, -0.0351), (0.18, 0.15, 0), (0.1765, 0.15, 0.0351), (0.1663, 0.15, 0.0689), (0.1497, 0.15, 0.1), (0.1273, 0.15, 0.1273), (0.1, 0.15, 0.1497), (0.0689, 0.15, 0.1663), (0.0351, 0.15, 0.1765), (0, 0.15, 0.18), (-0.0351, 0.15, 0.1765), (-0.0689, 0.15, 0.1663), (-0.1, 0.15, 0.1497), (-0.1273, 0.15, 0.1273), (-0.1497, 0.15, 0.1), (-0.1663, 0.15, 0.0689), (-0.1765, 0.15, 0.0351), (-0.18, 0.15, 0), (-0.1765, 0.15, -0.0351), (-0.1663, 0.15, -0.0689), (-0.1497, 0.15, -0.1), (-0.1273, 0.15, -0.1273), (-0.1, 0.15, -0.1497), (-0.0689, 0.15, -0.1663), (-0.0351, 0.15, -0.1765), (0, 0.15, -0.18), (0.0351, 0.15, -0.1765), (0.0689, 0.15, -0.1663), (0.1, 0.15, -0.1497), (0.1273, 0.15, -0.1273), (0.1497, 0.15, -0.1), (0.1663, 0.15, -0.0689), (0.1765, 0.15, -0.0351)]
                int[] faceVertexCounts = [4, 4, 4, 4, 4, 4, 4, 4, 4, 4, 4, 4, 4, 4, 4, 4, 4, 4, 4, 4, 4, 4, 4, 4, 4, 4, 4, 4, 4, 4, 4, 4, 32, 32]
                int[] faceVertexIndices = [1, 0, 32, 33, 2, 1, 33, 34, 3, 2, 34, 35, 4, 3, 35, 36, 5, 4, 36, 37, 6, 5, 37, 38, 7, 6, 38, 39, 8, 7, 39, 40, 9, 8, 40, 41, 10, 9, 41, 42, 11, 10, 42, 43, 12, 11, 43, 44, 13, 12, 44, 45, 14, 13, 45, 46, 15, 14, 46, 47, 16, 15, 47, 48, 17, 16, 48, 49, 18, 17, 49, 50, 19, 18, 50, 51, 20, 19, 51, 52, 21, 20, 52, 53, 22, 21, 53, 54, 23, 22, 54, 55, 24, 23, 55, 56, 25, 24, 56, 57, 26, 25, 57, 58, 27, 26, 58, 59, 28, 27, 59, 60, 29, 28, 60, 61, 30, 29, 61, 62, 31, 30, 62, 63, 0, 31, 63, 32, 0, 1, 2, 3, 4, 5, 6, 7, 8, 9, 10, 11, 12, 13, 14, 15, 16, 17, 18, 19, 20, 21, 22, 23, 24, 25, 26, 27, 28, 29, 30, 31, 63, 62, 61, 60, 59, 58, 57, 56, 55, 54, 53, 52, 51, 50, 49, 48, 47, 46, 45, 44, 43, 42, 41, 40, 39, 38, 37, 36, 35, 34, 33, 32]
                uniform token subdivisionScheme = "none"
            }
            def Mesh "Pole"
            {
                point3f[] points = [(0.05, 0.15, 0), (0.0483, 0.15, 0.0129), (0.0433, 0.15, 0.025), (0.0354, 0.15, 0.0354), (0.025, 0.15, 0.0433), (0.0129, 0.15, 0.0483), (0, 0.15, 0.05), (-0.0129, 0.15, 0.0483), (-0.025, 0.15, 0.0433), (-0.0354, 0.15, 0.0354), (-0.0433, 0.15, 0.025), (-0.0483, 0.15, 0.0129), (-0.05, 0.15, 0), (-0.0483, 0.15, -0.0129), (-0.0433, 0.15, -0.025), (-0.0354, 0.15, -0.0354), (-0.025, 0.15, -0.0433), (-0.0129, 0.15, -0.0483), (0, 0.15, -0.05), (0.0129, 0.15, -0.0483), (0.025, 0.15, -0.0433), (0.0354, 0.15, -0.0354), (0.0433, 0.15, -0.025), (0.0483, 0.15, -0.0129), (0.05, 2.75, 0), (0.0483, 2.75, 0.0129), (0.0433, 2.75, 0.025), (0.0354, 2.75, 0.0354), (0.025, 2.75, 0.0433), (0.0129, 2.75, 0.0483), (0, 2.75, 0.05), (-0.0129, 2.75, 0.0483), (-0.025, 2.75, 0.0433), (-0.0354, 2.75, 0.0354), (-0.0433, 2.75, 0.025), (-0.0483, 2.75, 0.0129), (-0.05, 2.75, 0), (-0.0483, 2.75, -0.0129), (-0.0433, 2.75, -0.025), (-0.0354, 2.75, -0.0354), (-0.025, 2.75, -0.0433), (-0.0129, 2.75, -0.0483), (0, 2.75, -0.05), (0.0129, 2.75, -0.0483), (0.025, 2.75, -0.0433), (0.0354, 2.75, -0.0354), (0.0433, 2.75, -0.025), (0.0483, 2.75, -0.0129)]
                int[] faceVertexCounts = [4, 4, 4, 4, 4, 4, 4, 4, 4, 4, 4, 4, 4, 4, 4, 4, 4, 4, 4, 4, 4, 4, 4, 4, 24, 24]
                int[] faceVertexIndices = [1, 0, 24, 25, 2, 1, 25, 26, 3, 2, 26, 27, 4, 3, 27, 28, 5, 4, 28, 29, 6, 5, 29, 30, 7, 6, 30, 31, 8, 7, 31, 32, 9, 8, 32, 33, 10, 9, 33, 34, 11, 10, 34, 35, 12, 11, 35, 36, 13, 12, 36, 37, 14, 13, 37, 38, 15, 14, 38, 39, 16, 15, 39, 40, 17, 16, 40, 41, 18, 17, 41, 42, 19, 18, 42, 43, 20, 19, 43, 44, 21, 20, 44, 45, 22, 21, 45, 46, 23, 22, 46, 47, 0, 23, 47, 24, 0, 1, 2, 3, 4, 5, 6, 7, 8, 9, 10, 11, 12, 13, 14, 15, 16, 17, 18, 19, 20, 21, 22, 23, 47, 46, 45, 44, 43, 42, 41, 40, 39, 38, 37, 36, 35, 34, 33, 32, 31, 30, 29, 28, 27, 26, 25, 24]
                uniform token subdivisionScheme = "none"
            }
            def Mesh "Shade"
            {
                point3f[] points = [(0.09, 2.75, 0), (0.0869, 2.75, 0.0233), (0.0779, 2.75, 0.045), (0.0636, 2.75, 0.0636), (0.045, 2.75, 0.0779), (0.0233, 2.75, 0.0869), (0, 2.75, 0.09), (-0.0233, 2.75, 0.0869), (-0.045, 2.75, 0.0779), (-0.0636, 2.75, 0.0636), (-0.0779, 2.75, 0.045), (-0.0869, 2.75, 0.0233), (-0.09, 2.75, 0), (-0.0869, 2.75, -0.0233), (-0.0779, 2.75, -0.045), (-0.0636, 2.75, -0.0636), (-0.045, 2.75, -0.0779), (-0.0233, 2.75, -0.0869), (0, 2.75, -0.09), (0.0233, 2.75, -0.0869), (0.045, 2.75, -0.0779), (0.0636, 2.75, -0.0636), (0.0779, 2.75, -0.045), (0.0869, 2.75, -0.0233), (0.09, 2.87, 0), (0.0869, 2.87, 0.0233), (0.0779, 2.87, 0.045), (0.0636, 2.87, 0.0636), (0.045, 2.87, 0.0779), (0.0233, 2.87, 0.0869), (0, 2.87, 0.09), (-0.0233, 2.87, 0.0869), (-0.045, 2.87, 0.0779), (-0.0636, 2.87, 0.0636), (-0.0779, 2.87, 0.045), (-0.0869, 2.87, 0.0233), (-0.09, 2.87, 0), (-0.0869, 2.87, -0.0233), (-0.0779, 2.87, -0.045), (-0.0636, 2.87, -0.0636), (-0.045, 2.87, -0.0779), (-0.0233, 2.87, -0.0869), (0, 2.87, -0.09), (0.0233, 2.87, -0.0869), (0.045, 2.87, -0.0779), (0.0636, 2.87, -0.0636), (0.0779, 2.87, -0.045), (0.0869, 2.87, -0.0233), (0.35, 2.55, 0), (0.3433, 2.55, 0.0683), (0.3234, 2.55, 0.1339), (0.291, 2.55, 0.1944), (0.2475, 2.55, 0.2475), (0.1944, 2.55, 0.291), (0.1339, 2.55, 0.3234), (0.0683, 2.55, 0.3433), (0, 2.55, 0.35), (-0.0683, 2.55, 0.3433), (-0.1339, 2.55, 0.3234), (-0.1944, 2.55, 0.291), (-0.2475, 2.55, 0.2475), (-0.291, 2.55, 0.1944), (-0.3234, 2.55, 0.1339), (-0.3433, 2.55, 0.0683), (-0.35, 2.55, 0), (-0.3433, 2.55, -0.0683), (-0.3234, 2.55, -0.1339), (-0.291, 2.55, -0.1944), (-0.2475, 2.55, -0.2475), (-0.1944, 2.55, -0.291), (-0.1339, 2.55, -0.3234), (-0.0683, 2.55, -0.3433), (0, 2.55, -0.35), (0.0683, 2.55, -0.3433), (0.1339, 2.55, -0.3234), (0.1944, 2.55, -0.291), (0.2475, 2.55, -0.2475), (0.291, 2.55, -0.1944), (0.3234, 2.55, -0.1339), (0.3433, 2.55, -0.0683), (0, 2.87, 0)]
                int[] faceVertexCounts = [4, 4, 4, 4, 4, 4, 4, 4, 4, 4, 4, 4, 4, 4, 4, 4, 4, 4, 4, 4, 4, 4, 4, 4, 24, 24, 3, 3, 3, 3, 3, 3, 3, 3, 3, 3, 3, 3, 3, 3, 3, 3, 3, 3, 3, 3, 3, 3, 3, 3, 3, 3, 3, 3, 3, 3, 3, 3, 32]
                int[] faceVertexIndices = [1, 0, 24, 25, 2, 1, 25, 26, 3, 2, 26, 27, 4, 3, 27, 28, 5, 4, 28, 29, 6, 5, 29, 30, 7, 6, 30, 31, 8, 7, 31, 32, 9, 8, 32, 33, 10, 9, 33, 34, 11, 10, 34, 35, 12, 11, 35, 36, 13, 12, 36, 37, 14, 13, 37, 38, 15, 14, 38, 39, 16, 15, 39, 40, 17, 16, 40, 41, 18, 17, 41, 42, 19, 18, 42, 43, 20, 19, 43, 44, 21, 20, 44, 45, 22, 21, 45, 46, 23, 22, 46, 47, 0, 23, 47, 24, 0, 1, 2, 3, 4, 5, 6, 7, 8, 9, 10, 11, 12, 13, 14, 15, 16, 17, 18, 19, 20, 21, 22, 23, 47, 46, 45, 44, 43, 42, 41, 40, 39, 38, 37, 36, 35, 34, 33, 32, 31, 30, 29, 28, 27, 26, 25, 24, 49, 48, 80, 50, 49, 80, 51, 50, 80, 52, 51, 80, 53, 52, 80, 54, 53, 80, 55, 54, 80, 56, 55, 80, 57, 56, 80, 58, 57, 80, 59, 58, 80, 60, 59, 80, 61, 60, 80, 62, 61, 80, 63, 62, 80, 64, 63, 80, 65, 64, 80, 66, 65, 80, 67, 66, 80, 68, 67, 80, 69, 68, 80, 70, 69, 80, 71, 70, 80, 72, 71, 80, 73, 72, 80, 74, 73, 80, 75, 74, 80, 76, 75, 80, 77, 76, 80, 78, 77, 80, 79, 78, 80, 48, 79, 80, 48, 49, 50, 51, 52, 53, 54, 55, 56, 57, 58, 59, 60, 61, 62, 63, 64, 65, 66, 67, 68, 69, 70, 71, 72, 73, 74, 75, 76, 77, 78, 79]
                uniform token subdivisionScheme = "none"
            }
        }

        def Xform "Proxy"
        {
            uniform token purpose = "proxy"
            def Mesh "Blocks"
            {
                point3f[] points = [(-0.18, 0, -0.18), (0.18, 0, -0.18), (0.18, 0.15, -0.18), (-0.18, 0.15, -0.18), (-0.18, 0, 0.18), (0.18, 0, 0.18), (0.18, 0.15, 0.18), (-0.18, 0.15, 0.18), (-0.06, 0.15, -0.06), (0.06, 0.15, -0.06), (0.06, 2.75, -0.06), (-0.06, 2.75, -0.06), (-0.06, 0.15, 0.06), (0.06, 0.15, 0.06), (0.06, 2.75, 0.06), (-0.06, 2.75, 0.06), (-0.35, 2.55, -0.35), (0.35, 2.55, -0.35), (0.35, 2.9, -0.35), (-0.35, 2.9, -0.35), (-0.35, 2.55, 0.35), (0.35, 2.55, 0.35), (0.35, 2.9, 0.35), (-0.35, 2.9, 0.35)]
                int[] faceVertexCounts = [4, 4, 4, 4, 4, 4, 4, 4, 4, 4, 4, 4, 4, 4, 4, 4, 4, 4]
                int[] faceVertexIndices = [0, 3, 2, 1, 4, 5, 6, 7, 0, 1, 5, 4, 1, 2, 6, 5, 2, 3, 7, 6, 3, 0, 4, 7, 8, 11, 10, 9, 12, 13, 14, 15, 8, 9, 13, 12, 9, 10, 14, 13, 10, 11, 15, 14, 11, 8, 12, 15, 16, 19, 18, 17, 20, 21, 22, 23, 16, 17, 21, 20, 17, 18, 22, 21, 18, 19, 23, 22, 19, 16, 20, 23]
                uniform token subdivisionScheme = "none"
            }
        }

        def Xform "Guide"
        {
            uniform token purpose = "guide"
            def BasisCurves "LightCone"
            {
                uniform token type = "linear"
                int[] curveVertexCounts = [2, 2, 2, 2, 2, 2, 2, 2, 2, 2, 2, 2]
                point3f[] points = [(0, 2.55, 0), (1.6, 0, 0), (0, 2.55, 0), (1.3856, 0, 0.8), (0, 2.55, 0), (0.8, 0, 1.3856), (0, 2.55, 0), (0, 0, 1.6), (0, 2.55, 0), (-0.8, 0, 1.3856), (0, 2.55, 0), (-1.3856, 0, 0.8), (0, 2.55, 0), (-1.6, 0, 0), (0, 2.55, 0), (-1.3856, 0, -0.8), (0, 2.55, 0), (-0.8, 0, -1.3856), (0, 2.55, 0), (0, 0, -1.6), (0, 2.55, 0), (0.8, 0, -1.3856), (0, 2.55, 0), (1.3856, 0, -0.8)]
            }
        }
    }

}
