#usda 1.0
(
    defaultPrim = "Strands"
    upAxis = "Y"
    metersPerUnit = 1
)

def Xform "Strands"
{
    def BasisCurves "Linear"
    {
        uniform token type = "linear"
        int[] curveVertexCounts = [7]
        point3f[] points = [(-4, 0.2, 0), (-3.6, 1, 0), (-3.2, 0.2, 0), (-2.8, 1, 0), (-2.4, 0.2, 0), (-2, 1, 0), (-1.6, 0.2, 0)]
        float[] widths = [0.03] (
            interpolation = "constant"
        )
    }

    def BasisCurves "Bezier"
    {
        uniform token type = "cubic"
        uniform token basis = "bezier"
        int[] curveVertexCounts = [7]
        point3f[] points = [(-1.2, 0.2, 0), (-1.2, 1.4, 0), (0, 1.4, 0), (0, 0.6, 0), (0, -0.2, 0), (1.2, -0.2, 0), (1.2, 1, 0)]
        float[] widths = [0.03] (
            interpolation = "constant"
        )
    }

    def BasisCurves "CatmullRom"
    {
        uniform token type = "cubic"
        uniform token basis = "catmullRom"
        int[] curveVertexCounts = [8]
        point3f[] points = [(2, 0.6, 0), (2.35, 0.9854, 0), (2.7, 0.8062, 0), (3.05, 0.3249, 0), (3.4, 0.2466, 0), (3.75, 0.686, 0), (4.1, 0.9994, 0), (4.45, 0.7276, 0)]
        float[] widths = [0.03] (
            interpolation = "constant"
        )
    }

    def BasisCurves "Ring"
    {
        uniform token type = "cubic"
        uniform token basis = "bspline"
        uniform token wrap = "periodic"
        int[] curveVertexCounts = [8]
        point3f[] points = [(6.2, 0.7, 0), (5.995, 1.195, 0), (5.5, 1.4, 0), (5.005, 1.195, 0), (4.8, 0.7, 0), (5.005, 0.205, 0), (5.5, 0, 0), (5.995, 0.205, 0)]
        float[] widths = [0.03] (
            interpolation = "constant"
        )
    }

    def BasisCurves "Grass"
    {
        uniform token type = "linear"
        int[] curveVertexCounts = [5, 5, 5, 5, 5, 5, 5, 5, 5, 5, 5, 5, 5, 5, 5, 5, 5, 5, 5, 5, 5, 5, 5, 5, 5, 5, 5, 5, 5, 5, 5, 5, 5, 5, 5, 5, 5, 5, 5, 5, 5, 5, 5, 5, 5, 5, 5, 5, 5, 5, 5, 5, 5, 5, 5, 5, 5, 5, 5, 5, 5, 5, 5, 5, 5, 5, 5, 5, 5, 5, 5, 5, 5, 5, 5, 5, 5, 5, 5, 5, 5, 5, 5, 5, 5, 5, 5, 5, 5, 5, 5, 5, 5, 5, 5, 5, 5, 5, 5, 5, 5, 5, 5, 5, 5, 5, 5, 5, 5, 5, 5, 5, 5, 5, 5, 5, 5, 5, 5, 5, 5, 5, 5, 5, 5, 5, 5, 5, 5, 5, 5, 5, 5, 5, 5, 5, 5, 5, 5, 5, 5, 5, 5, 5, 5, 5, 5, 5, 5, 5, 5, 5, 5, 5, 5, 5, 5, 5, 5, 5, 5, 5, 5, 5, 5, 5, 5, 5, 5, 5, 5, 5, 5, 5, 5, 5, 5, 5, 5, 5, 5, 5, 5, 5, 5, 5, 5, 5, 5, 5, 5, 5, 5, 5, 5, 5, 5, 5, 5, 5, 5, 5, 5, 5, 5, 5, 5, 5, 5, 5, 5, 5, 5, 5, 5, 5, 5, 5, 5, 5, 5, 5, 5, 5, 5, 5, 5, 5, 5, 5, 5, 5, 5, 5, 5, 5, 5, 5, 5, 5, 5, 5, 5, 5, 5, 5, 5, 5, 5, 5, 5, 5, 5, 5, 5, 5, 5, 5, 5, 5, 5, 5, 5, 5, 5, 5, 5, 5, 5, 5, 5, 5, 5, 5, 5, 5, 5, 5, 5, 5, 5, 5, 5, 5, 5, 5, 5, 5, 5, 5, 5, 5, 5, 5, 5, 5, 5, 5, 5, 5, 5, 5, 5, 5, 5, 5, 5, 5, 5, 5, 5, 5, 5, 5, 5, 5, 5, 5, 5, 5, 5, 5, 5, 5, 5, 5, 5, 5, 5, 5, 5, 5, 5, 5, 5, 5, 5, 5, 5, 5, 5, 5, 5, 5, 5, 5, 5, 5, 5, 5, 5, 5, 5, 5, 5, 5, 5, 5, 5, 5, 5, 5, 5, 5, 5, 5, 5, 5, 5, 5, 5, 5, 5, 5, 5, 5, 5, 5, 5, 5, 5, 5, 5, 5, 5, 5, 5, 5, 5, 5, 5, 5, 5, 5, 5, 5, 5, 5, 5, 5, 5, 5, 5, 5, 5, 5, 5, 5, 5, 5, 5, 5, 5, 5, 5, 5, 5, 5, 5, 5, 5, 5, 5, 5, 5, 5, 5, 5, 5, 5, 5, 5, 5, 5, 5, 5, 5, 5, 5, 5, 5, 5, 5, 5, 5, 5, 5, 5, 5, 5, 5, 5, 5, 5, 5, 5, 5, 5, 5, 5, 5, 5, 5, 5, 5, 5, 5, 5, 5, 5, 5, 5, 5, 5, 5, 5, 5, 5, 5, 5, 5, 5, 5, 5, 5, 5, 5, 5, 5, 5, 5, 5, 5, 5, 5, 5, 5, 5, 5, 5, 5, 5, 5, 5, 5, 5, 5, 5, 5, 5, 5, 5, 5, 5, 5, 5, 5, 5, 5, 5, 5, 5, 5, 5, 5, 5, 5, 5, 5, 5, 5, 5, 5, 5, 5, 5, 5, 5, 5, 5, 5, 5, 5, 5, 5, 5, 5, 5, 5, 5, 5, 5, 5, 5, 5, 5, 5, 5, 5, 5, 5, 5, 5, 5, 5, 5, 5, 5, 5, 5, 5, 5, 5, 5, 5, 5, 5, 5, 5, 5, 5, 5, 5, 5, 5, 5, 5, 5, 5, 5, 5, 5, 5, 5, 5, 5, 5, 5, 5, 5]
        point3f[] points = [(-0.0407, 0, -1.5887), (-0.0319, 0.1418, -1.5812), (-0.0055, 0.2837, -1.5737), (0.0385, 0.4255, -1.5662), (0.1002, 0.5673, -1.5587), (-1.4017, 0, -3.2232), (-1.3925, 0.0978, -3.2157), (-1.3646, 0.1955, -3.2082), (-1.3183, 0.2933, -3.2007), (-1.2534, 0.391, -3.1932), (2.8879, 0, -2.0808), (2.8994, 0.0993, -2.0733), (2.9339, 0.1986, -2.0658), (2.9914, 0.2979, -2.0583), (3.0718, 0.3972, -2.0508), (-1.8363, 0, -2.229), (-1.8295, 0.0823, -2.2215), (-1.809, 0.1647, -2.214), (-1.7747, 0.247, -2.2065), (-1.7268, 0.3294, -2.199), (2.3545, 0, -3.1864), (2.3697, 0.0696, -3.1789), (2.4155, 0.1392, -3.1714), (2.4917, 0.2088, -3.1639), (2.5984, 0.2784, -3.1564), (2.7606, 0, -2.7749), (2.7688, 0.1174, -2.7674), (2.7936, 0.2348, -2.7599), (2.835, 0.3521, -2.7524), (2.8929, 0.4695, -2.7449), (1.8126, 0, -1.903), (1.8261, 0.0686, -1.8955), (1.8667, 0.1371, -1.888), (1.9344, 0.2057, -1.8805), (2.0291, 0.2742, -1.873), (-1.206, 0, -2.291), (-1.1982, 0.0828, -2.2835), (-1.1749, 0.1656, -2.276), (-1.136, 0.2484, -2.2685), (-1.0816, 0.3312, -2.261), (-1.2871, 0, -1.9869), (-1.2774, 0.1266, -1.9794), (-1.248, 0.2532, -1.9719), (-1.199, 0.3798, -1.9644), (-1.1305, 0.5064, -1.9569), (-0.353, 0, -3.4722), (-0.3432, 0.0693, -3.4647), (-0.3138, 0.1387, -3.4572), (-0.2647, 0.208, -3.4497), (-0.196, 0.2774, -3.4422), (-2.4466, 0, -3.1049), (-2.4332, 0.1195, -3.0974), (-2.3931, 0.239, -3.0899), (-2.3262, 0.3586, -3.0824), (-2.2325, 0.4781, -3.0749), (2.9554, 0, -2.1787), (2.9702, 0.1113, -2.1712), (3.0149, 0.2226, -2.1637), (3.0892, 0.3339, -2.1562), (3.1934, 0.4453, -2.1487), (1.5031, 0, -3.2017), (1.51, 0.0989, -3.1942), (1.5306, 0.1978, -3.1867), (1.5651, 0.2967, -3.1792), (1.6133, 0.3956, -3.1717), (0.9761, 0, -3.0519), (0.983, 0.1011, -3.0444), (1.0035, 0.2022, -3.0369), (1.0379, 0.3033, -3.0294), (1.0859, 0.4045, -3.0219), (-2.6548, 0, -2.3139), (-2.6414, 0.117, -2.3064), (-2.6013, 0.2341, -2.2989), (-2.5344, 0.3511, -2.2914), (-2.4408, 0.4681, -2.2839), (2.4942, 0, -2.4625), (2.5046, 0.1146, -2.455), (2.5356, 0.2292, -2.4475), (2.5874, 0.3437, -2.44), (2.66, 0.4583, -2.4325), (-0.4275, 0, -2.7585), (-0.4211, 0.0978, -2.751), (-0.4021, 0.1955, -2.7435), (-0.3703, 0.2933, -2.736), (-0.3258, 0.3911, -2.7285), (-2.4812, 0, -2.4958), (-2.4721, 0.0832, -2.4883), (-2.4447, 0.1665, -2.4808), (-2.3991, 0.2497, -2.4733), (-2.3352, 0.3329, -2.4658), (-1.0675, 0, -2.2518), (-1.0586, 0.0816, -2.2443), (-1.0319, 0.1632, -2.2368), (-0.9872, 0.2447, -2.2293), (-0.9248, 0.3263, -2.2218), (2.2522, 0, -2.4399), (2.2593, 0.0681, -2.4324), (2.2807, 0.1362, -2.4249), (2.3163, 0.2043, -2.4174), (2.3662, 0.2724, -2.4099), (-2.5952, 0, -3.3957), (-2.5803, 0.1136, -3.3882), (-2.5357, 0.2272, -3.3807), (-2.4612, 0.3408, -3.3732), (-2.357, 0.4544, -3.3657), (2.6063, 0, -2.0547), (2.6194, 0.123, -2.0472), (2.6587, 0.2461, -2.0397), (2.7242, 0.3691, -2.0322), (2.8159, 0.4921, -2.0247), (2.0147, 0, -2.7741), (2.0261, 0.1141, -2.7666), (2.0602, 0.2281, -2.7591), (2.1171, 0.3422, -2.7516), (2.1968, 0.4562, -2.7441), (0.8329, 0, -1.8722), (0.8469, 0.1401, -1.8647), (0.8889, 0.2802, -1.8572), (0.959, 0.4202, -1.8497), (1.057, 0.5603, -1.8422), (-1.7033, 0, -3.1547), (-1.6923, 0.0774, -3.1472), (-1.6596, 0.1549, -3.1397), (-1.6051, 0.2323, -3.1322), (-1.5288, 0.3098, -3.1247), (-0.1032, 0, -1.6976), (-0.0967, 0.0804, -1.6901), (-0.0773, 0.1608, -1.6826), (-0.045, 0.2412, -1.6751), (0.0003, 0.3216, -1.6676), (-0.4893, 0, -1.8135), (-0.4799, 0.0693, -1.806), (-0.4516, 0.1386, -1.7985), (-0.4045, 0.208, -1.791), (-0.3386, 0.2773, -1.7835), (0.07, 0, -1.8199), (0.0796, 0.1447, -1.8124), (0.1083, 0.2895, -1.8049), (0.1561, 0.4342, -1.7974), (0.223, 0.579, -1.7899), (1.4102, 0, -3.3749), (1.4196, 0.0919, -3.3674), (1.4476, 0.1839, -3.3599), (1.4943, 0.2758, -3.3524), (1.5597, 0.3677, -3.3449), (-0.8502, 0, -3.2786), (-0.8379, 0.1012, -3.2711), (-0.801, 0.2025, -3.2636), (-0.7395, 0.3037, -3.2561), (-0.6534, 0.405, -3.2486), (-0.3977, 0, -2.6341), (-0.388, 0.134, -2.6266), (-0.359, 0.2679, -2.6191), (-0.3107, 0.4019, -2.6116), (-0.243, 0.5359, -2.6041), (-1.3349, 0, -2.5758), (-1.3274, 0.1084, -2.5683), (-1.3049, 0.2169, -2.5608), (-1.2673, 0.3253, -2.5533), (-1.2147, 0.4338, -2.5458), (0.0144, 0, -3.1358), (0.0252, 0.114, -3.1283), (0.0575, 0.2281, -3.1208), (0.1114, 0.3421, -3.1133), (0.1869, 0.4562, -3.1058), (-2.3845, 0, -2.7204), (-2.376, 0.1457, -2.7129), (-2.3504, 0.2913, -2.7054), (-2.3078, 0.437, -2.6979), (-2.2481, 0.5826, -2.6904), (-2.0577, 0, -1.551), (-2.0492, 0.1352, -1.5435), (-2.0237, 0.2705, -1.536), (-1.9811, 0.4057, -1.5285), (-1.9216, 0.541, -1.521), (2.4721, 0, -3.2551), (2.4851, 0.1381, -3.2476), (2.5242, 0.2762, -3.2401), (2.5894, 0.4143, -3.2326), (2.6806, 0.5524, -3.2251), (-0.6706, 0, -2.4911), (-0.6561, 0.1268, -2.4836), (-0.6128, 0.2536, -2.4761), (-0.5407, 0.3804, -2.4686), (-0.4396, 0.5072, -2.4611), (-1.6994, 0, -2.2445), (-1.6895, 0.1359, -2.237), (-1.6599, 0.2719, -2.2295), (-1.6104, 0.4078, -2.222), (-1.5412, 0.5437, -2.2145), (0.549, 0, -2.8127), (0.5602, 0.095, -2.8052), (0.5939, 0.19, -2.7977), (0.65, 0.2849, -2.7902), (0.7285, 0.3799, -2.7827), (1.4431, 0, -1.8813), (1.4538, 0.0687, -1.8738), (1.4858, 0.1374, -1.8663), (1.5391, 0.2061, -1.8588), (1.6137, 0.2748, -1.8513), (-1.3119, 0, -1.7654), (-1.3046, 0.0985, -1.7579), (-1.2828, 0.1969, -1.7504), (-1.2464, 0.2954, -1.7429), (-1.1954, 0.3939, -1.7354), (-1.2196, 0, -2.6281), (-1.206, 0.1153, -2.6206), (-1.1651, 0.2306, -2.6131), (-1.0969, 0.3459, -2.6056), (-1.0015, 0.4612, -2.5981), (2.2452, 0, -1.6475), (2.2565, 0.1133, -1.64), (2.2905, 0.2265, -1.6325), (2.3472, 0.3398, -1.625), (2.4264, 0.4531, -1.6175), (1.2782, 0, -3.2839), (1.2855, 0.0926, -3.2764), (1.3074, 0.1852, -3.2689), (1.3439, 0.2778, -3.2614), (1.395, 0.3704, -3.2539), (1.708, 0, -2.609), (1.7154, 0.0714, -2.6015), (1.7374, 0.1428, -2.594), (1.7742, 0.2142, -2.5865), (1.8257, 0.2856, -2.579), (0.3745, 0, -3.0823), (0.3869, 0.0908, -3.0748), (0.4243, 0.1816, -3.0673), (0.4866, 0.2724, -3.0598), (0.5737, 0.3632, -3.0523), (-2.5106, 0, -1.507), (-2.5027, 0.0629, -1.4995), (-2.479, 0.1257, -1.492), (-2.4395, 0.1886, -1.4845), (-2.3841, 0.2515, -1.477), (0.3228, 0, -3.2531), (0.3351, 0.0632, -3.2456), (0.372, 0.1264, -3.2381), (0.4335, 0.1895, -3.2306), (0.5197, 0.2527, -3.2231), (1.2923, 0, -2.3896), (1.2998, 0.1455, -2.3821), (1.3222, 0.2909, -2.3746), (1.3597, 0.4364, -2.3671), (1.4121, 0.5819, -2.3596), (2.3411, 0, -3.1125), (2.3536, 0.1009, -3.105), (2.391, 0.2018, -3.0975), (2.4534, 0.3026, -3.09), (2.5408, 0.4035, -3.0825), (-1.4309, 0, -2.2735), (-1.4237, 0.0661, -2.266), (-1.4021, 0.1322, -2.2585), (-1.366, 0.1983, -2.251), (-1.3156, 0.2644, -2.2435), (-2.8198, 0, -1.6599), (-2.8062, 0.1472, -1.6524), (-2.7655, 0.2943, -1.6449), (-2.6975, 0.4415, -1.6374), (-2.6024, 0.5887, -1.6299), (-0.9894, 0, -2.8204), (-0.9794, 0.0869, -2.8129), (-0.9493, 0.1738, -2.8054), (-0.8991, 0.2607, -2.7979), (-0.8289, 0.3476, -2.7904), (-1.7444, 0, -2.0977), (-1.7357, 0.1353, -2.0902), (-1.7095, 0.2706, -2.0827), (-1.6658, 0.4059, -2.0752), (-1.6046, 0.5413, -2.0677), (2.8435, 0, -1.5968), (2.8506, 0.1032, -1.5893), (2.872, 0.2063, -1.5818), (2.9075, 0.3095, -1.5743), (2.9572, 0.4127, -1.5668), (1.8426, 0, -3.1082), (1.8508, 0.113, -3.1007), (1.8753, 0.226, -3.0932), (1.9161, 0.3389, -3.0857), (1.9733, 0.4519, -3.0782), (2.2306, 0, -2.4485), (2.2426, 0.086, -2.441), (2.2786, 0.1721, -2.4335), (2.3386, 0.2581, -2.426), (2.4227, 0.3441, -2.4185), (0.8842, 0, -1.7817), (0.8985, 0.075, -1.7742), (0.9416, 0.15, -1.7667), (1.0134, 0.225, -1.7592), (1.1139, 0.3, -1.7517), (0.506, 0, -2.5609), (0.5177, 0.1322, -2.5534), (0.553, 0.2643, -2.5459), (0.6119, 0.3965, -2.5384), (0.6943, 0.5287, -2.5309), (0.841, 0, -1.6086), (0.8531, 0.0891, -1.6011), (0.8895, 0.1781, -1.5936), (0.9503, 0.2672, -1.5861), (1.0353, 0.3563, -1.5786), (2.736, 0, -2.7144), (2.7453, 0.0848, -2.7069), (2.7732, 0.1697, -2.6994), (2.8197, 0.2545, -2.6919), (2.8847, 0.3394, -2.6844), (2.6128, 0, -1.8789), (2.6193, 0.1447, -1.8714), (2.6389, 0.2893, -1.8639), (2.6715, 0.434, -1.8564), (2.7172, 0.5786, -1.8489), (-2.3446, 0, -2.5244), (-2.3322, 0.1308, -2.5169), (-2.2952, 0.2616, -2.5094), (-2.2335, 0.3924, -2.5019), (-2.1472, 0.5232, -2.4944), (-1.0419, 0, -2.2249), (-1.0327, 0.096, -2.2174), (-1.0052, 0.192, -2.2099), (-0.9595, 0.288, -2.2024), (-0.8954, 0.3841, -2.1949), (0.9557, 0, -2.7295), (0.9655, 0.1162, -2.722), (0.9951, 0.2323, -2.7145), (1.0443, 0.3485, -2.707), (1.1131, 0.4646, -2.6995), (-2.1842, 0, -3.0243), (-2.1698, 0.1174, -3.0168), (-2.1266, 0.2348, -3.0093), (-2.0547, 0.3523, -3.0018), (-1.954, 0.4697, -2.9943), (0.7884, 0, -3.1886), (0.7986, 0.1249, -3.1811), (0.8293, 0.2498, -3.1736), (0.8803, 0.3747, -3.1661), (0.9518, 0.4996, -3.1586), (-1.602, 0, -2.103), (-1.5888, 0.0887, -2.0955), (-1.549, 0.1773, -2.088), (-1.4827, 0.266, -2.0805), (-1.3898, 0.3546, -2.073), (-0.1993, 0, -2.6563), (-0.1861, 0.1078, -2.6488), (-0.1466, 0.2156, -2.6413), (-0.0808, 0.3234, -2.6338), (0.0114, 0.4312, -2.6263), (0.4153, 0, -1.8103), (0.4285, 0.1205, -1.8028), (0.4678, 0.241, -1.7953), (0.5334, 0.3615, -1.7878), (0.6252, 0.4819, -1.7803), (-1.3846, 0, -1.7098), (-1.3734, 0.072, -1.7023), (-1.3399, 0.1439, -1.6948), (-1.284, 0.2159, -1.6873), (-1.2058, 0.2879, -1.6798), (0.9274, 0, -2.2317), (0.9365, 0.1419, -2.2242), (0.9637, 0.2837, -2.2167), (1.0091, 0.4256, -2.2092), (1.0726, 0.5675, -2.2017), (-1.0619, 0, -1.5916), (-1.0538, 0.0646, -1.5841), (-1.0297, 0.1292, -1.5766), (-0.9894, 0.1938, -1.5691), (-0.933, 0.2584, -1.5616), (1.2595, 0, -3.1274), (1.2748, 0.1262, -3.1199), (1.3209, 0.2525, -3.1124), (1.3977, 0.3787, -3.1049), (1.5052, 0.505, -3.0974), (-0.1576, 0, -1.9347), (-0.1509, 0.0937, -1.9272), (-0.131, 0.1875, -1.9197), (-0.0979, 0.2812, -1.9122), (-0.0515, 0.3749, -1.9047), (-2.6175, 0, -2.1548), (-2.6067, 0.1286, -2.1473), (-2.5744, 0.2572, -2.1398), (-2.5205, 0.3858, -2.1323), (-2.445, 0.5144, -2.1248), (-0.4136, 0, -3.1172), (-0.399, 0.0991, -3.1097), (-0.3554, 0.1981, -3.1022), (-0.2828, 0.2972, -3.0947), (-0.1811, 0.3963, -3.0872), (0.805, 0, -2.9201), (0.8135, 0.0674, -2.9126), (0.8389, 0.1348, -2.9051), (0.8812, 0.2023, -2.8976), (0.9404, 0.2697, -2.8901), (-2.2991, 0, -2.5906), (-2.2862, 0.1361, -2.5831), (-2.2474, 0.2722, -2.5756), (-2.1827, 0.4082, -2.5681), (-2.0922, 0.5443, -2.5606), (2.0126, 0, -3.1428), (2.0232, 0.072, -3.1353), (2.0548, 0.1441, -3.1278), (2.1076, 0.2161, -3.1203), (2.1814, 0.2881, -3.1128), (-0.933, 0, -2.1565), (-0.9228, 0.1009, -2.149), (-0.8923, 0.2017, -2.1415), (-0.8415, 0.3026, -2.134), (-0.7704, 0.4035, -2.1265), (-2.1025, 0, -3.2614), (-2.0887, 0.1349, -3.2539), (-2.0474, 0.2698, -3.2464), (-1.9787, 0.4047, -3.2389), (-1.8824, 0.5396, -3.2314), (0.0345, 0, -2.4564), (0.0427, 0.1153, -2.4489), (0.0671, 0.2306, -2.4414), (0.1077, 0.3459, -2.4339), (0.1646, 0.4611, -2.4264), (0.4084, 0, -3.4953), (0.423, 0.1346, -3.4878), (0.4668, 0.2691, -3.4803), (0.5399, 0.4037, -3.4728), (0.6421, 0.5383, -3.4653), (0.8592, 0, -2.4386), (0.8672, 0.0989, -2.4311), (0.8912, 0.1978, -2.4236), (0.9312, 0.2968, -2.4161), (0.9872, 0.3957, -2.4086), (2.1633, 0, -2.8015), (2.173, 0.1235, -2.794), (2.2023, 0.247, -2.7865), (2.251, 0.3704, -2.779), (2.3193, 0.4939, -2.7715), (-1.8813, 0, -2.1555), (-1.8719, 0.0955, -2.148), (-1.8437, 0.1909, -2.1405), (-1.7966, 0.2864, -2.133), (-1.7308, 0.3819, -2.1255), (-2.8224, 0, -3.1542), (-2.8125, 0.1472, -3.1467), (-2.783, 0.2945, -3.1392), (-2.7338, 0.4417, -3.1317), (-2.6649, 0.589, -3.1242), (1.2518, 0, -2.6774), (1.2588, 0.0942, -2.6699), (1.2798, 0.1884, -2.6624), (1.3148, 0.2826, -2.6549), (1.3639, 0.3768, -2.6474), (2.6405, 0, -2.6339), (2.6539, 0.1297, -2.6264), (2.6942, 0.2594, -2.6189), (2.7613, 0.3892, -2.6114), (2.8552, 0.5189, -2.6039), (-1.4227, 0, -3.2122), (-1.4156, 0.1243, -3.2047), (-1.3941, 0.2487, -3.1972), (-1.3584, 0.373, -3.1897), (-1.3083, 0.4973, -3.1822), (-0.9241, 0, -2.1379), (-0.9132, 0.1002, -2.1304), (-0.8804, 0.2003, -2.1229), (-0.8258, 0.3005, -2.1154), (-0.7493, 0.4007, -2.1079), (-0.6732, 0, -1.511), (-0.6637, 0.083, -1.5035), (-0.6353, 0.166, -1.496), (-0.588, 0.2489, -1.4885), (-0.5217, 0.3319, -1.481), (-2.2606, 0, -1.9044), (-2.2487, 0.1362, -1.8969), (-2.213, 0.2725, -1.8894), (-2.1535, 0.4087, -1.8819), (-2.0701, 0.545, -1.8744), (-2.7701, 0, -2.3695), (-2.756, 0.0881, -2.362), (-2.7138, 0.1762, -2.3545), (-2.6435, 0.2644, -2.347), (-2.545, 0.3525, -2.3395), (0.9298, 0, -2.9131), (0.9394, 0.0722, -2.9056), (0.9682, 0.1443, -2.8981), (1.0163, 0.2165, -2.8906), (1.0837, 0.2887, -2.8831), (-1.5723, 0, -2.2651), (-1.5646, 0.1268, -2.2576), (-1.5416, 0.2537, -2.2501), (-1.5033, 0.3805, -2.2426), (-1.4498, 0.5074, -2.2351), (-1.5889, 0, -2.5451), (-1.5759, 0.0953, -2.5376), (-1.5368, 0.1906, -2.5301), (-1.4717, 0.2859, -2.5226), (-1.3805, 0.3812, -2.5151), (-2.0714, 0, -1.8445), (-2.0633, 0.1254, -1.837), (-2.039, 0.2508, -1.8295), (-1.9984, 0.3762, -1.822), (-1.9417, 0.5015, -1.8145), (-0.6226, 0, -3.1917), (-0.6139, 0.0772, -3.1842), (-0.5878, 0.1545, -3.1767), (-0.5443, 0.2317, -3.1692), (-0.4834, 0.309, -3.1617), (-2.0871, 0, -2.6818), (-2.0765, 0.1296, -2.6743), (-2.0448, 0.2592, -2.6668), (-1.992, 0.3889, -2.6593), (-1.9181, 0.5185, -2.6518), (-1.5138, 0, -1.8078), (-1.4984, 0.0868, -1.8003), (-1.4524, 0.1737, -1.7928), (-1.3758, 0.2605, -1.7853), (-1.2685, 0.3474, -1.7778), (-2.1132, 0, -3.1687), (-2.1044, 0.1182, -3.1612), (-2.0779, 0.2365, -3.1537), (-2.0337, 0.3547, -3.1462), (-1.9718, 0.4729, -3.1387), (-2.83, 0, -3.2205), (-2.8221, 0.1127, -3.213), (-2.7983, 0.2255, -3.2055), (-2.7585, 0.3382, -3.198), (-2.703, 0.451, -3.1905), (-2.644, 0, -1.8672), (-2.6352, 0.1267, -1.8597), (-2.6089, 0.2534, -1.8522), (-2.5651, 0.3801, -1.8447), (-2.5037, 0.5068, -1.8372), (-1.5144, 0, -2.2672), (-1.5011, 0.1034, -2.2597), (-1.4613, 0.2067, -2.2522), (-1.3949, 0.3101, -2.2447), (-1.302, 0.4135, -2.2372), (0.1448, 0, -2.4974), (0.1511, 0.1006, -2.4899), (0.1701, 0.2012, -2.4824), (0.2018, 0.3019, -2.4749), (0.2462, 0.4025, -2.4674), (0.4849, 0, -2.9156), (0.4987, 0.0976, -2.9081), (0.5402, 0.1953, -2.9006), (0.6092, 0.2929, -2.8931), (0.7058, 0.3906, -2.8856), (0.8866, 0, -2.8056), (0.8961, 0.0661, -2.7981), (0.9247, 0.1321, -2.7906), (0.9722, 0.1982, -2.7831), (1.0387, 0.2642, -2.7756), (0.779, 0, -3.1432), (0.7913, 0.1291, -3.1357), (0.8282, 0.2582, -3.1282), (0.8897, 0.3873, -3.1207), (0.9758, 0.5164, -3.1132), (-1.8925, 0, -1.7296), (-1.8771, 0.1182, -1.7221), (-1.8308, 0.2364, -1.7146), (-1.7535, 0.3546, -1.7071), (-1.6454, 0.4728, -1.6996), (-0.6178, 0, -1.6255), (-0.6102, 0.092, -1.618), (-0.5875, 0.184, -1.6105), (-0.5497, 0.276, -1.603), (-0.4967, 0.368, -1.5955), (-1.4574, 0, -1.8618), (-1.4469, 0.1487, -1.8543), (-1.4154, 0.2975, -1.8468), (-1.3629, 0.4462, -1.8393), (-1.2893, 0.5949, -1.8318), (-2.2614, 0, -1.6038), (-2.2489, 0.1029, -1.5963), (-2.2115, 0.2058, -1.5888), (-2.1491, 0.3086, -1.5813), (-2.0618, 0.4115, -1.5738), (-0.9802, 0, -3.446), (-0.971, 0.1463, -3.4385), (-0.9433, 0.2927, -3.431), (-0.8972, 0.439, -3.4235), (-0.8326, 0.5854, -3.416), (-2.8612, 0, -3.3771), (-2.8521, 0.0802, -3.3696), (-2.8245, 0.1604, -3.3621), (-2.7786, 0.2406, -3.3546), (-2.7144, 0.3207, -3.3471), (1.796, 0, -2.6869), (1.8068, 0.1106, -2.6794), (1.8391, 0.2212, -2.6719), (1.893, 0.3318, -2.6644), (1.9685, 0.4424, -2.6569), (1.4714, 0, -1.6477), (1.4791, 0.106, -1.6402), (1.502, 0.212, -1.6327), (1.5401, 0.3181, -1.6252), (1.5935, 0.4241, -1.6177), (-2.7344, 0, -1.5012), (-2.719, 0.0926, -1.4937), (-2.6729, 0.1852, -1.4862), (-2.5961, 0.2778, -1.4787), (-2.4885, 0.3703, -1.4712), (1.7106, 0, -1.618), (1.7192, 0.0945, -1.6105), (1.745, 0.189, -1.603), (1.788, 0.2835, -1.5955), (1.8482, 0.378, -1.588), (-0.7137, 0, -2.8461), (-0.6998, 0.0681, -2.8386), (-0.6581, 0.1361, -2.8311), (-0.5887, 0.2042, -2.8236), (-0.4915, 0.2722, -2.8161), (-1.2081, 0, -2.6705), (-1.1938, 0.104, -2.663), (-1.1509, 0.208, -2.6555), (-1.0793, 0.312, -2.648), (-0.9791, 0.4161, -2.6405), (-1.0351, 0, -2.0689), (-1.0282, 0.1037, -2.0614), (-1.0076, 0.2074, -2.0539), (-0.9732, 0.311, -2.0464), (-0.925, 0.4147, -2.0389), (-0.0485, 0, -2.2019), (-0.0346, 0.0811, -2.1944), (0.0072, 0.1622, -2.1869), (0.077, 0.2432, -2.1794), (0.1746, 0.3243, -2.1719), (1.7157, 0, -3.2607), (1.7287, 0.0634, -3.2532), (1.7678, 0.1268, -3.2457), (1.833, 0.1902, -3.2382), (1.9243, 0.2536, -3.2307), (-0.7268, 0, -3.3894), (-0.7184, 0.0804, -3.3819), (-0.6933, 0.1607, -3.3744), (-0.6514, 0.2411, -3.3669), (-0.5928, 0.3214, -3.3594), (-1.0337, 0, -3.0134), (-1.023, 0.1128, -3.0059), (-0.9908, 0.2256, -2.9984), (-0.9371, 0.3385, -2.9909), (-0.862, 0.4513, -2.9834), (-1.5618, 0, -2.1231), (-1.5535, 0.1296, -2.1156), (-1.5286, 0.2591, -2.1081), (-1.4872, 0.3887, -2.1006), (-1.4292, 0.5182, -2.0931), (1.3039, 0, -3.1644), (1.3187, 0.0714, -3.1569), (1.363, 0.1428, -3.1494), (1.4369, 0.2142, -3.1419), (1.5404, 0.2856, -3.1344), (2.4718, 0, -2.875), (2.4873, 0.0881, -2.8675), (2.5337, 0.1762, -2.86), (2.6111, 0.2644, -2.8525), (2.7195, 0.3525, -2.845), (0.4595, 0, -1.6013), (0.4714, 0.0628, -1.5938), (0.5072, 0.1257, -1.5863), (0.5667, 0.1885, -1.5788), (0.6501, 0.2513, -1.5713), (1.7806, 0, -2.7754), (1.7895, 0.1178, -2.7679), (1.8161, 0.2357, -2.7604), (1.8605, 0.3535, -2.7529), (1.9227, 0.4713, -2.7454), (-1.3715, 0, -2.6953), (-1.3605, 0.1377, -2.6878), (-1.3272, 0.2754, -2.6803), (-1.2718, 0.4131, -2.6728), (-1.1943, 0.5508, -2.6653), (1.7129, 0, -2.5155), (1.7244, 0.0702, -2.508), (1.759, 0.1404, -2.5005), (1.8167, 0.2106, -2.493), (1.8973, 0.2808, -2.4855), (2.5308, 0, -2.7566), (2.5401, 0.1471, -2.7491), (2.5682, 0.2942, -2.7416), (2.615, 0.4413, -2.7341), (2.6805, 0.5884, -2.7266), (2.1006, 0, -2.7519), (2.1098, 0.0643, -2.7444), (2.1373, 0.1287, -2.7369), (2.1831, 0.193, -2.7294), (2.2472, 0.2574, -2.7219), (-2.439, 0, -3.4409), (-2.4312, 0.0639, -3.4334), (-2.4077, 0.1279, -3.4259), (-2.3686, 0.1918, -3.4184), (-2.3138, 0.2558, -3.4109), (-2.8647, 0, -2.259), (-2.8571, 0.1197, -2.2515), (-2.8343, 0.2393, -2.244), (-2.7963, 0.359, -2.2365), (-2.7431, 0.4787, -2.229), (-1.4777, 0, -3.258), (-1.4637, 0.1258, -3.2505), (-1.4218, 0.2517, -3.243), (-1.3518, 0.3775, -3.2355), (-1.2539, 0.5034, -3.228), (1.9164, 0, -2.8767), (1.9258, 0.0859, -2.8692), (1.954, 0.1717, -2.8617), (2.0011, 0.2576, -2.8542), (2.0669, 0.3434, -2.8467), (0.8216, 0, -2.1954), (0.8295, 0.1302, -2.1879), (0.8529, 0.2604, -2.1804), (0.8921, 0.3907, -2.1729), (0.9468, 0.5209, -2.1654), (2.9778, 0, -2.9353), (2.9891, 0.102, -2.9278), (3.0229, 0.204, -2.9203), (3.0793, 0.306, -2.9128), (3.1583, 0.408, -2.9053), (2.5087, 0, -2.4572), (2.5151, 0.0682, -2.4497), (2.5343, 0.1365, -2.4422), (2.5664, 0.2047, -2.4347), (2.6113, 0.273, -2.4272), (-1.0696, 0, -1.7567), (-1.054, 0.0927, -1.7492), (-1.0071, 0.1854, -1.7417), (-0.929, 0.278, -1.7342), (-0.8197, 0.3707, -1.7267), (-0.121, 0, -2.8433), (-0.109, 0.0671, -2.8358), (-0.073, 0.1342, -2.8283), (-0.013, 0.2014, -2.8208), (0.0709, 0.2685, -2.8133), (-1.6727, 0, -3.3007), (-1.6609, 0.1476, -3.2932), (-1.6256, 0.2952, -3.2857), (-1.5667, 0.4428, -3.2782), (-1.4844, 0.5904, -3.2707), (1.0285, 0, -2.2217), (1.0412, 0.1228, -2.2142), (1.0794, 0.2456, -2.2067), (1.143, 0.3683, -2.1992), (1.2321, 0.4911, -2.1917), (-2.8269, 0, -2.1029), (-2.8149, 0.143, -2.0954), (-2.7789, 0.2859, -2.0879), (-2.7189, 0.4289, -2.0804), (-2.6349, 0.5719, -2.0729), (-1.0105, 0, -1.6248), (-0.9978, 0.0659, -1.6173), (-0.9595, 0.1317, -1.6098), (-0.8958, 0.1976, -1.6023), (-0.8066, 0.2634, -1.5948), (-2.2969, 0, -3.1607), (-2.284, 0.1197, -3.1532), (-2.2452, 0.2393, -3.1457), (-2.1805, 0.359, -3.1382), (-2.09, 0.4786, -3.1307), (-1.1149, 0, -2.851), (-1.1084, 0.0695, -2.8435), (-1.0888, 0.1391, -2.836), (-1.0561, 0.2086, -2.8285), (-1.0104, 0.2781, -2.821), (2.5498, 0, -2.8913), (2.5566, 0.138, -2.8838), (2.5771, 0.276, -2.8763), (2.6113, 0.414, -2.8688), (2.6591, 0.552, -2.8613), (1.5693, 0, -2.027), (1.577, 0.0844, -2.0195), (1.6001, 0.1688, -2.012), (1.6385, 0.2531, -2.0045), (1.6923, 0.3375, -1.997), (0.8872, 0, -1.9618), (0.8953, 0.1493, -1.9543), (0.9195, 0.2987, -1.9468), (0.96, 0.448, -1.9393), (1.0167, 0.5974, -1.9318), (1.8213, 0, -2.6449), (1.8324, 0.0668, -2.6374), (1.8659, 0.1336, -2.6299), (1.9216, 0.2004, -2.6224), (1.9996, 0.2673, -2.6149), (-1.9369, 0, -2.5617), (-1.9288, 0.098, -2.5542), (-1.9046, 0.196, -2.5467), (-1.8642, 0.294, -2.5392), (-1.8076, 0.392, -2.5317), (-0.7064, 0, -3.1595), (-0.6932, 0.1307, -3.152), (-0.6539, 0.2614, -3.1445), (-0.5883, 0.392, -3.137), (-0.4965, 0.5227, -3.1295), (1.3118, 0, -3.0875), (1.3189, 0.1311, -3.08), (1.3402, 0.2621, -3.0725), (1.3757, 0.3932, -3.065), (1.4253, 0.5243, -3.0575), (1.6482, 0, -1.5875), (1.6574, 0.0861, -1.58), (1.685, 0.1723, -1.5725), (1.7309, 0.2584, -1.565), (1.7953, 0.3445, -1.5575), (-1.2082, 0, -2.3711), (-1.1937, 0.1155, -2.3636), (-1.1504, 0.2309, -2.3561), (-1.0783, 0.3464, -2.3486), (-0.9772, 0.4618, -2.3411), (1.7826, 0, -1.671), (1.7965, 0.143, -1.6635), (1.8383, 0.286, -1.656), (1.9079, 0.4291, -1.6485), (2.0053, 0.5721, -1.641), (0.0269, 0, -3.1988), (0.0386, 0.129, -3.1913), (0.0737, 0.258, -3.1838), (0.1322, 0.387, -3.1763), (0.2142, 0.516, -3.1688), (-2.5635, 0, -3.2198), (-2.5503, 0.0902, -3.2123), (-2.5108, 0.1803, -3.2048), (-2.4449, 0.2705, -3.1973), (-2.3526, 0.3606, -3.1898), (-0.9246, 0, -3.1841), (-0.9179, 0.0677, -3.1766), (-0.8979, 0.1353, -3.1691), (-0.8646, 0.203, -3.1616), (-0.818, 0.2706, -3.1541), (0.9435, 0, -2.0246), (0.9529, 0.1401, -2.0171), (0.9812, 0.2802, -2.0096), (1.0282, 0.4203, -2.0021), (1.094, 0.5604, -1.9946), (-1.2143, 0, -2.8104), (-1.201, 0.1225, -2.8029), (-1.1611, 0.2451, -2.7954), (-1.0946, 0.3676, -2.7879), (-1.0014, 0.4901, -2.7804), (-1.8695, 0, -2.1767), (-1.856, 0.1416, -2.1692), (-1.8155, 0.2832, -2.1617), (-1.748, 0.4248, -2.1542), (-1.6535, 0.5664, -2.1467), (2.2501, 0, -1.88), (2.2625, 0.0827, -1.8725), (2.2998, 0.1655, -1.865), (2.362, 0.2482, -1.8575), (2.4489, 0.331, -1.85), (-1.551, 0, -3.236), (-1.5397, 0.0933, -3.2285), (-1.5059, 0.1866, -3.221), (-1.4496, 0.2799, -3.2135), (-1.3706, 0.3732, -3.206), (2.0573, 0, -2.3433), (2.0664, 0.144, -2.3358), (2.0938, 0.288, -2.3283), (2.1395, 0.432, -2.3208), (2.2035, 0.576, -2.3133), (-0.1141, 0, -3.0227), (-0.0996, 0.1152, -3.0152), (-0.0562, 0.2305, -3.0077), (0.0163, 0.3457, -3.0002), (0.1176, 0.4609, -2.9927), (0.6725, 0, -1.6324), (0.6808, 0.1363, -1.6249), (0.7059, 0.2726, -1.6174), (0.7476, 0.4088, -1.6099), (0.8061, 0.5451, -1.6024), (0.9202, 0, -1.958), (0.932, 0.1402, -1.9505), (0.9676, 0.2804, -1.943), (1.0267, 0.4206, -1.9355), (1.1096, 0.5608, -1.928), (-1.2237, 0, -2.6268), (-1.215, 0.1354, -2.6193), (-1.1889, 0.2707, -2.6118), (-1.1455, 0.4061, -2.6043), (-1.0846, 0.5414, -2.5968), (2.0355, 0, -1.9198), (2.0433, 0.0905, -1.9123), (2.0668, 0.1811, -1.9048), (2.1059, 0.2716, -1.8973), (2.1606, 0.3621, -1.8898), (0.6215, 0, -2.0647), (0.6348, 0.1453, -2.0572), (0.6746, 0.2907, -2.0497), (0.741, 0.436, -2.0422), (0.8339, 0.5813, -2.0347), (0.6165, 0, -2.0423), (0.6271, 0.1239, -2.0348), (0.6588, 0.2478, -2.0273), (0.7117, 0.3718, -2.0198), (0.7858, 0.4957, -2.0123), (1.3422, 0, -1.6927), (1.3525, 0.1144, -1.6852), (1.3832, 0.2289, -1.6777), (1.4345, 0.3433, -1.6702), (1.5062, 0.4577, -1.6627), (-2.6851, 0, -3.2454), (-2.6769, 0.1192, -3.2379), (-2.6524, 0.2384, -3.2304), (-2.6116, 0.3576, -3.2229), (-2.5545, 0.4768, -3.2154), (-1.0399, 0, -3.1517), (-1.0323, 0.0652, -3.1442), (-1.0094, 0.1305, -3.1367), (-0.9713, 0.1957, -3.1292), (-0.9179, 0.2609, -3.1217), (-0.7235, 0, -3.3899), (-0.7115, 0.07, -3.3824), (-0.6755, 0.14, -3.3749), (-0.6154, 0.21, -3.3674), (-0.5314, 0.28, -3.3599), (-1.2531, 0, -2.1929), (-1.2382, 0.07, -2.1854), (-1.1935, 0.14, -2.1779), (-1.1191, 0.21, -2.1704), (-1.0148, 0.2801, -2.1629), (1.3094, 0, -1.5432), (1.3171, 0.1353, -1.5357), (1.3405, 0.2706, -1.5282), (1.3793, 0.4059, -1.5207), (1.4337, 0.5412, -1.5132), (-1.8751, 0, -3.208), (-1.867, 0.0829, -3.2005), (-1.8425, 0.1659, -3.193), (-1.8016, 0.2488, -3.1855), (-1.7444, 0.3317, -3.178), (0.6842, 0, -1.9791), (0.6934, 0.0979, -1.9716), (0.721, 0.1959, -1.9641), (0.7671, 0.2938, -1.9566), (0.8316, 0.3917, -1.9491), (1.7167, 0, -3.3363), (1.7272, 0.1167, -3.3288), (1.7587, 0.2334, -3.3213), (1.8111, 0.3501, -3.3138), (1.8846, 0.4668, -3.3063), (-2.5252, 0, -2.0802), (-2.5123, 0.1462, -2.0727), (-2.4736, 0.2924, -2.0652), (-2.409, 0.4386, -2.0577), (-2.3187, 0.5848, -2.0502), (-0.9229, 0, -2.8354), (-0.9127, 0.141, -2.8279), (-0.8822, 0.282, -2.8204), (-0.8314, 0.423, -2.8129), (-0.7603, 0.5641, -2.8054), (-0.9919, 0, -2.4143), (-0.9779, 0.1473, -2.4068), (-0.9358, 0.2946, -2.3993), (-0.8656, 0.442, -2.3918), (-0.7673, 0.5893, -2.3843), (1.3613, 0, -3.3592), (1.3681, 0.1068, -3.3517), (1.3886, 0.2135, -3.3442), (1.4228, 0.3203, -3.3367), (1.4706, 0.427, -3.3292), (2.0144, 0, -1.7867), (2.0293, 0.0675, -1.7792), (2.074, 0.135, -1.7717), (2.1485, 0.2025, -1.7642), (2.2528, 0.27, -1.7567), (-1.7554, 0, -1.7709), (-1.7429, 0.1344, -1.7634), (-1.7052, 0.2688, -1.7559), (-1.6424, 0.4032, -1.7484), (-1.5545, 0.5376, -1.7409), (-1.5403, 0, -2.1286), (-1.5262, 0.1006, -2.1211), (-1.484, 0.2011, -2.1136), (-1.4137, 0.3017, -2.1061), (-1.3153, 0.4022, -2.0986), (2.0074, 0, -2.6809), (2.022, 0.0648, -2.6734), (2.0658, 0.1296, -2.6659), (2.1388, 0.1944, -2.6584), (2.2411, 0.2593, -2.6509), (1.8222, 0, -3.428), (1.8375, 0.1102, -3.4205), (1.8834, 0.2205, -3.413), (1.96, 0.3307, -3.4055), (2.0671, 0.441, -3.398), (0.1948, 0, -2.6495), (0.2051, 0.1481, -2.642), (0.236, 0.2962, -2.6345), (0.2876, 0.4442, -2.627), (0.3597, 0.5923, -2.6195), (0.7994, 0, -2.4729), (0.8094, 0.0809, -2.4654), (0.8394, 0.1619, -2.4579), (0.8894, 0.2428, -2.4504), (0.9594, 0.3238, -2.4429), (2.6198, 0, -1.5189), (2.6301, 0.0742, -1.5114), (2.6612, 0.1484, -1.5039), (2.713, 0.2226, -1.4964), (2.7854, 0.2968, -1.4889), (-0.889, 0, -2.4734), (-0.8798, 0.1267, -2.4659), (-0.8524, 0.2535, -2.4584), (-0.8068, 0.3802, -2.4509), (-0.7428, 0.5069, -2.4434), (-1.2349, 0, -3.2379), (-1.2199, 0.1271, -3.2304), (-1.1751, 0.2541, -3.2229), (-1.1005, 0.3812, -3.2154), (-0.996, 0.5083, -3.2079), (0.1579, 0, -2.2986), (0.1657, 0.0947, -2.2911), (0.1891, 0.1895, -2.2836), (0.228, 0.2842, -2.2761), (0.2826, 0.379, -2.2686), (-1.5503, 0, -2.3197), (-1.5386, 0.1393, -2.3122), (-1.5036, 0.2787, -2.3047), (-1.4452, 0.418, -2.2972), (-1.3635, 0.5574, -2.2897), (2.6819, 0, -3.2555), (2.6886, 0.1121, -3.248), (2.7086, 0.2243, -3.2405), (2.7421, 0.3364, -3.233), (2.7888, 0.4486, -3.2255), (-0.3953, 0, -3.182), (-0.384, 0.0785, -3.1745), (-0.3501, 0.1571, -3.167), (-0.2936, 0.2356, -3.1595), (-0.2144, 0.3142, -3.152), (-2.9901, 0, -2.2643), (-2.9825, 0.1055, -2.2568), (-2.96, 0.2109, -2.2493), (-2.9225, 0.3164, -2.2418), (-2.8699, 0.4219, -2.2343), (-1.733, 0, -2.3673), (-1.7251, 0.068, -2.3598), (-1.7011, 0.1361, -2.3523), (-1.6613, 0.2041, -2.3448), (-1.6054, 0.2722, -2.3373), (2.5515, 0, -1.6209), (2.5633, 0.0758, -1.6134), (2.5986, 0.1517, -1.6059), (2.6574, 0.2275, -1.5984), (2.7398, 0.3034, -1.5909), (2.5292, 0, -3.2037), (2.5381, 0.0901, -3.1962), (2.5646, 0.1802, -3.1887), (2.6089, 0.2703, -3.1812), (2.6708, 0.3605, -3.1737), (2.3912, 0, -2.9309), (2.4062, 0.1018, -2.9234), (2.4512, 0.2036, -2.9159), (2.5262, 0.3054, -2.9084), (2.6313, 0.4072, -2.9009), (1.6987, 0, -2.831), (1.7081, 0.1477, -2.8235), (1.7363, 0.2953, -2.816), (1.7835, 0.443, -2.8085), (1.8494, 0.5906, -2.801), (2.2817, 0, -2.3292), (2.2942, 0.1042, -2.3217), (2.3317, 0.2084, -2.3142), (2.3942, 0.3126, -2.3067), (2.4817, 0.4168, -2.2992), (-1.2808, 0, -2.4586), (-1.2714, 0.0974, -2.4511), (-1.2433, 0.1948, -2.4436), (-1.1964, 0.2922, -2.4361), (-1.1308, 0.3896, -2.4286), (1.0768, 0, -2.7305), (1.0871, 0.1471, -2.723), (1.1182, 0.2942, -2.7155), (1.1701, 0.4412, -2.708), (1.2427, 0.5883, -2.7005), (-1.2209, 0, -2.7785), (-1.2056, 0.074, -2.771), (-1.1595, 0.1479, -2.7635), (-1.0828, 0.2219, -2.756), (-0.9754, 0.2958, -2.7485), (2.3368, 0, -1.9301), (2.3485, 0.0683, -1.9226), (2.3834, 0.1366, -1.9151), (2.4415, 0.2049, -1.9076), (2.5229, 0.2732, -1.9001), (-0.4312, 0, -1.8812), (-0.4165, 0.1259, -1.8737), (-0.3724, 0.2517, -1.8662), (-0.2988, 0.3776, -1.8587), (-0.1958, 0.5034, -1.8512), (1.8903, 0, -3.0631), (1.9027, 0.1259, -3.0556), (1.9398, 0.2517, -3.0481), (2.0016, 0.3776, -3.0406), (2.0882, 0.5034, -3.0331), (2.7866, 0, -1.7727), (2.8009, 0.1404, -1.7652), (2.8436, 0.2808, -1.7577), (2.9148, 0.4212, -1.7502), (3.0146, 0.5616, -1.7427), (-1.4085, 0, -2.7111), (-1.3958, 0.1013, -2.7036), (-1.3576, 0.2026, -2.6961), (-1.294, 0.3039, -2.6886), (-1.2049, 0.4052, -2.6811), (-1.1021, 0, -2.2869), (-1.09, 0.0802, -2.2794), (-1.0535, 0.1605, -2.2719), (-0.9927, 0.2407, -2.2644), (-0.9077, 0.3209, -2.2569), (-1.9317, 0, -3.0674), (-1.9184, 0.0946, -3.0599), (-1.8784, 0.1891, -3.0524), (-1.8119, 0.2837, -3.0449), (-1.7187, 0.3783, -3.0374), (2.7659, 0, -2.0671), (2.7768, 0.0786, -2.0596), (2.8096, 0.1572, -2.0521), (2.8642, 0.2358, -2.0446), (2.9406, 0.3144, -2.0371), (1.1866, 0, -1.5193), (1.1938, 0.087, -1.5118), (1.2154, 0.174, -1.5043), (1.2513, 0.261, -1.4968), (1.3016, 0.348, -1.4893), (0.2257, 0, -2.2138), (0.2327, 0.1375, -2.2063), (0.2539, 0.2751, -2.1988), (0.2893, 0.4126, -2.1913), (0.3387, 0.5501, -2.1838), (-1.8733, 0, -1.9943), (-1.8642, 0.1346, -1.9868), (-1.8368, 0.2691, -1.9793), (-1.7912, 0.4037, -1.9718), (-1.7273, 0.5382, -1.9643), (2.7832, 0, -2.5777), (2.7909, 0.1418, -2.5702), (2.8141, 0.2837, -2.5627), (2.8527, 0.4255, -2.5552), (2.9068, 0.5673, -2.5477), (0.7716, 0, -1.8032), (0.7807, 0.0946, -1.7957), (0.8078, 0.1892, -1.7882), (0.853, 0.2838, -1.7807), (0.9163, 0.3784, -1.7732), (1.8557, 0, -2.4667), (1.8679, 0.1433, -2.4592), (1.9047, 0.2866, -2.4517), (1.966, 0.4299, -2.4442), (2.0518, 0.5732, -2.4367), (-0.5621, 0, -2.5462), (-0.5545, 0.1081, -2.5387), (-0.5317, 0.2162, -2.5312), (-0.4937, 0.3243, -2.5237), (-0.4405, 0.4324, -2.5162), (-2.098, 0, -3.2115), (-2.0912, 0.0767, -3.204), (-2.0708, 0.1534, -3.1965), (-2.0369, 0.2301, -3.189), (-1.9894, 0.3068, -3.1815), (0.2204, 0, -3.0494), (0.2272, 0.0692, -3.0419), (0.2477, 0.1384, -3.0344), (0.2819, 0.2076, -3.0269), (0.3298, 0.2768, -3.0194), (2.5947, 0, -2.5201), (2.6058, 0.0935, -2.5126), (2.639, 0.187, -2.5051), (2.6943, 0.2805, -2.4976), (2.7718, 0.374, -2.4901), (0.1955, 0, -2.0172), (0.2035, 0.0687, -2.0097), (0.2275, 0.1374, -2.0022), (0.2674, 0.206, -1.9947), (0.3233, 0.2747, -1.9872), (-2.9308, 0, -3.2388), (-2.9172, 0.1397, -3.2313), (-2.8764, 0.2794, -3.2238), (-2.8083, 0.4191, -3.2163), (-2.7131, 0.5588, -3.2088), (0.6586, 0, -1.8818), (0.6687, 0.0724, -1.8743), (0.6991, 0.1448, -1.8668), (0.7497, 0.2172, -1.8593), (0.8205, 0.2896, -1.8518), (0.001, 0, -2.8234), (0.008, 0.1063, -2.8159), (0.0292, 0.2127, -2.8084), (0.0645, 0.319, -2.8009), (0.1139, 0.4253, -2.7934), (2.0828, 0, -1.524), (2.0896, 0.1115, -1.5165), (2.11, 0.223, -1.509), (2.144, 0.3346, -1.5015), (2.1916, 0.4461, -1.494), (1.5319, 0, -2.6804), (1.5431, 0.0714, -2.6729), (1.5768, 0.1427, -2.6654), (1.6328, 0.2141, -2.6579), (1.7113, 0.2855, -2.6504), (-2.4543, 0, -2.4149), (-2.4434, 0.0835, -2.4074), (-2.4105, 0.1671, -2.3999), (-2.3557, 0.2506, -2.3924), (-2.279, 0.3341, -2.3849), (-0.9106, 0, -3.099), (-0.8955, 0.0674, -3.0915), (-0.8502, 0.1347, -3.084), (-0.7748, 0.2021, -3.0765), (-0.6691, 0.2694, -3.069), (1.2535, 0, -3.0481), (1.2631, 0.094, -3.0406), (1.2922, 0.1881, -3.0331), (1.3407, 0.2821, -3.0256), (1.4085, 0.3762, -3.0181), (-0.9615, 0, -2.6097), (-0.9517, 0.0981, -2.6022), (-0.9224, 0.1961, -2.5947), (-0.8735, 0.2942, -2.5872), (-0.8051, 0.3922, -2.5797), (0.0885, 0, -2.9699), (0.0981, 0.1083, -2.9624), (0.1268, 0.2165, -2.9549), (0.1746, 0.3248, -2.9474), (0.2415, 0.4331, -2.9399), (0.393, 0, -2.4005), (0.4015, 0.103, -2.393), (0.4269, 0.2061, -2.3855), (0.4692, 0.3091, -2.378), (0.5284, 0.4122, -2.3705), (-1.3726, 0, -3.3656), (-1.3605, 0.0688, -3.3581), (-1.324, 0.1376, -3.3506), (-1.2632, 0.2064, -3.3431), (-1.1781, 0.2752, -3.3356), (-2.1282, 0, -2.3074), (-2.1213, 0.1228, -2.2999), (-2.1006, 0.2457, -2.2924), (-2.0661, 0.3685, -2.2849), (-2.0178, 0.4913, -2.2774), (-2.1036, 0, -2.9571), (-2.0905, 0.1188, -2.9496), (-2.0513, 0.2375, -2.9421), (-1.986, 0.3563, -2.9346), (-1.8946, 0.4751, -2.9271), (-1.8536, 0, -2.4688), (-1.8382, 0.0958, -2.4613), (-1.792, 0.1916, -2.4538), (-1.7151, 0.2873, -2.4463), (-1.6074, 0.3831, -2.4388), (1.4895, 0, -3.203), (1.5033, 0.1167, -3.1955), (1.5445, 0.2333, -3.188), (1.6132, 0.35, -3.1805), (1.7095, 0.4666, -3.173), (1.6989, 0, -1.8305), (1.7089, 0.0907, -1.823), (1.7392, 0.1814, -1.8155), (1.7896, 0.2721, -1.808), (1.8601, 0.3628, -1.8005), (-1.0156, 0, -2.5463), (-1.0074, 0.0836, -2.5388), (-0.9827, 0.1672, -2.5313), (-0.9416, 0.2508, -2.5238), (-0.8839, 0.3344, -2.5163), (2.1001, 0, -2.2628), (2.1092, 0.1345, -2.2553), (2.1367, 0.269, -2.2478), (2.1824, 0.4035, -2.2403), (2.2464, 0.538, -2.2328), (2.4086, 0, -3.0881), (2.4196, 0.0807, -3.0806), (2.4525, 0.1615, -3.0731), (2.5074, 0.2422, -3.0656), (2.5842, 0.3229, -3.0581), (-0.7383, 0, -3.2278), (-0.7261, 0.0751, -3.2203), (-0.6896, 0.1501, -3.2128), (-0.6286, 0.2252, -3.2053), (-0.5433, 0.3003, -3.1978), (-2.5353, 0, -1.6816), (-2.5289, 0.0807, -1.6741), (-2.5095, 0.1614, -1.6666), (-2.4772, 0.2421, -1.6591), (-2.432, 0.3228, -1.6516), (2.0532, 0, -2.9155), (2.0601, 0.1406, -2.908), (2.0808, 0.2812, -2.9005), (2.1153, 0.4218, -2.893), (2.1635, 0.5624, -2.8855), (0.0448, 0, -2.3351), (0.0559, 0.119, -2.3276), (0.089, 0.238, -2.3201), (0.1442, 0.357, -2.3126), (0.2215, 0.4759, -2.3051), (1.0429, 0, -1.8265), (1.0563, 0.0801, -1.819), (1.0965, 0.1601, -1.8115), (1.1637, 0.2402, -1.804), (1.2576, 0.3202, -1.7965), (0.0018, 0, -2.998), (0.0092, 0.1143, -2.9905), (0.0314, 0.2287, -2.983), (0.0683, 0.343, -2.9755), (0.12, 0.4573, -2.968), (2.5812, 0, -3.2412), (2.5893, 0.1316, -3.2337), (2.6134, 0.2632, -3.2262), (2.6535, 0.3948, -3.2187), (2.7097, 0.5264, -3.2112), (2.9528, 0, -2.3836), (2.9669, 0.0644, -2.3761), (3.0092, 0.1287, -2.3686), (3.0797, 0.1931, -2.3611), (3.1784, 0.2575, -2.3536), (-0.8009, 0, -2.1937), (-0.7892, 0.1441, -2.1862), (-0.7539, 0.2881, -2.1787), (-0.695, 0.4322, -2.1712), (-0.6126, 0.5762, -2.1637), (-2.1856, 0, -2.2444), (-2.1772, 0.1087, -2.2369), (-2.1519, 0.2174, -2.2294), (-2.1097, 0.3262, -2.2219), (-2.0507, 0.4349, -2.2144), (0.5984, 0, -2.7697), (0.6104, 0.1281, -2.7622), (0.6464, 0.2562, -2.7547), (0.7064, 0.3843, -2.7472), (0.7904, 0.5124, -2.7397), (1.4814, 0, -2.2637), (1.4898, 0.1301, -2.2562), (1.5149, 0.2601, -2.2487), (1.5567, 0.3902, -2.2412), (1.6152, 0.5202, -2.2337), (2.2197, 0, -3.0091), (2.2348, 0.098, -3.0016), (2.28, 0.1961, -2.9941), (2.3553, 0.2941, -2.9866), (2.4607, 0.3921, -2.9791), (0.156, 0, -2.8738), (0.1654, 0.1055, -2.8663), (0.1935, 0.211, -2.8588), (0.2404, 0.3165, -2.8513), (0.306, 0.422, -2.8438), (-1.6927, 0, -2.5704), (-1.6857, 0.1449, -2.5629), (-1.6645, 0.2898, -2.5554), (-1.6291, 0.4347, -2.5479), (-1.5796, 0.5796, -2.5404), (-0.207, 0, -2.2645), (-0.1921, 0.085, -2.257), (-0.1473, 0.17, -2.2495), (-0.0728, 0.2551, -2.242), (0.0316, 0.3401, -2.2345), (-1.0842, 0, -2.6511), (-1.07, 0.0853, -2.6436), (-1.0273, 0.1705, -2.6361), (-0.9561, 0.2558, -2.6286), (-0.8565, 0.341, -2.6211), (-1.7334, 0, -3.4996), (-1.7242, 0.1066, -3.4921), (-1.6966, 0.2132, -3.4846), (-1.6506, 0.3198, -3.4771), (-1.5863, 0.4264, -3.4696), (0.7117, 0, -2.3329), (0.723, 0.13, -2.3254), (0.7566, 0.26, -2.3179), (0.8128, 0.3899, -2.3104), (0.8913, 0.5199, -2.3029), (1.3362, 0, -1.8943), (1.3476, 0.0634, -1.8868), (1.3818, 0.1268, -1.8793), (1.4388, 0.1902, -1.8718), (1.5187, 0.2536, -1.8643), (0.4381, 0, -2.2484), (0.4535, 0.0712, -2.2409), (0.4996, 0.1424, -2.2334), (0.5765, 0.2136, -2.2259), (0.6841, 0.2849, -2.2184), (2.2215, 0, -2.9031), (2.2364, 0.1317, -2.8956), (2.2811, 0.2634, -2.8881), (2.3556, 0.3951, -2.8806), (2.46, 0.5268, -2.8731), (0.1767, 0, -1.7425), (0.1881, 0.1363, -1.735), (0.2224, 0.2726, -1.7275), (0.2797, 0.4089, -1.72), (0.3598, 0.5452, -1.7125), (0.2873, 0, -1.9226), (0.3012, 0.0969, -1.9151), (0.343, 0.1937, -1.9076), (0.4125, 0.2906, -1.9001), (0.5098, 0.3875, -1.8926), (-0.9612, 0, -2.7691), (-0.9521, 0.0842, -2.7616), (-0.9248, 0.1684, -2.7541), (-0.8794, 0.2526, -2.7466), (-0.8159, 0.3368, -2.7391), (1.3909, 0, -2.179), (1.406, 0.0703, -2.1715), (1.4514, 0.1405, -2.164), (1.527, 0.2108, -2.1565), (1.6329, 0.2811, -2.149), (-1.5208, 0, -1.6193), (-1.5072, 0.1086, -1.6118), (-1.4664, 0.2172, -1.6043), (-1.3984, 0.3258, -1.5968), (-1.3032, 0.4344, -1.5893), (-0.0192, 0, -1.6447), (-0.0048, 0.0833, -1.6372), (0.0385, 0.1666, -1.6297), (0.1107, 0.2498, -1.6222), (0.2118, 0.3331, -1.6147), (-2.8129, 0, -2.8697), (-2.8011, 0.1368, -2.8622), (-2.7658, 0.2735, -2.8547), (-2.707, 0.4103, -2.8472), (-2.6247, 0.5471, -2.8397), (0.8216, 0, -2.3977), (0.8371, 0.1051, -2.3902), (0.8838, 0.2102, -2.3827), (0.9616, 0.3153, -2.3752), (1.0706, 0.4204, -2.3677), (-0.6238, 0, -2.0264), (-0.6157, 0.07, -2.0189), (-0.5915, 0.1401, -2.0114), (-0.5511, 0.2101, -2.0039), (-0.4946, 0.2802, -1.9964), (-1.3418, 0, -3.4774), (-1.3317, 0.1393, -3.4699), (-1.3016, 0.2786, -3.4624), (-1.2515, 0.4178, -3.4549), (-1.1812, 0.5571, -3.4474), (-0.5951, 0, -2.1723), (-0.5824, 0.0947, -2.1648), (-0.5443, 0.1893, -2.1573), (-0.4809, 0.284, -2.1498), (-0.392, 0.3787, -2.1423), (-0.762, 0, -1.8064), (-0.7524, 0.1117, -1.7989), (-0.7239, 0.2233, -1.7914), (-0.6762, 0.335, -1.7839), (-0.6096, 0.4467, -1.7764), (1.8814, 0, -3.0797), (1.8889, 0.0757, -3.0722), (1.9113, 0.1514, -3.0647), (1.9487, 0.2271, -3.0572), (2.001, 0.3029, -3.0497), (2.4462, 0, -1.5587), (2.4546, 0.1033, -1.5512), (2.4798, 0.2066, -1.5437), (2.5219, 0.3098, -1.5362), (2.5808, 0.4131, -1.5287), (-1.2332, 0, -1.8608), (-1.2223, 0.1031, -1.8533), (-1.1899, 0.2061, -1.8458), (-1.1357, 0.3092, -1.8383), (-1.06, 0.4122, -1.8308), (-2.0024, 0, -2.059), (-1.9928, 0.1384, -2.0515), (-1.9641, 0.2769, -2.044), (-1.9162, 0.4153, -2.0365), (-1.8491, 0.5538, -2.029), (2.1755, 0, -1.9716), (2.1858, 0.0912, -1.9641), (2.2168, 0.1825, -1.9566), (2.2685, 0.2737, -1.9491), (2.3408, 0.3649, -1.9416), (-1.2156, 0, -3.1399), (-1.2042, 0.0946, -3.1324), (-1.1702, 0.1893, -3.1249), (-1.1136, 0.2839, -3.1174), (-1.0343, 0.3786, -3.1099), (1.3777, 0, -2.4401), (1.3913, 0.1471, -2.4326), (1.4321, 0.2942, -2.4251), (1.5001, 0.4414, -2.4176), (1.5953, 0.5885, -2.4101), (0.6961, 0, -3.227), (0.7087, 0.1259, -3.2195), (0.7466, 0.2517, -3.212), (0.8097, 0.3776, -3.2045), (0.8981, 0.5035, -3.197), (-1.675, 0, -3.2193), (-1.6636, 0.1055, -3.2118), (-1.6296, 0.211, -3.2043), (-1.5729, 0.3165, -3.1968), (-1.4935, 0.422, -3.1893), (0.0526, 0, -3.2062), (0.065, 0.0941, -3.1987), (0.1023, 0.1882, -3.1912), (0.1645, 0.2824, -3.1837), (0.2515, 0.3765, -3.1762), (2.2728, 0, -2.6665), (2.2831, 0.0847, -2.659), (2.3141, 0.1694, -2.6515), (2.3659, 0.2541, -2.644), (2.4383, 0.3388, -2.6365), (2.6692, 0, -3.3657), (2.6846, 0.1466, -3.3582), (2.7308, 0.2932, -3.3507), (2.8079, 0.4398, -3.3432), (2.9157, 0.5864, -3.3357), (0.7384, 0, -2.8419), (0.7531, 0.0756, -2.8344), (0.7969, 0.1512, -2.8269), (0.87, 0.2268, -2.8194), (0.9724, 0.3024, -2.8119), (0.337, 0, -1.901), (0.345, 0.076, -1.8935), (0.3688, 0.152, -1.886), (0.4086, 0.228, -1.8785), (0.4643, 0.304, -1.871), (-1.9526, 0, -3.4957), (-1.9436, 0.115, -3.4882), (-1.9166, 0.2299, -3.4807), (-1.8715, 0.3449, -3.4732), (-1.8085, 0.4599, -3.4657), (-1.1507, 0, -3.1595), (-1.1376, 0.1495, -3.152), (-1.0985, 0.2989, -3.1445), (-1.0332, 0.4484, -3.137), (-0.9418, 0.5979, -3.1295), (0.5004, 0, -1.5231), (0.5158, 0.1293, -1.5156), (0.5621, 0.2585, -1.5081), (0.6391, 0.3878, -1.5006), (0.747, 0.5171, -1.4931), (1.6246, 0, -2.9354), (1.6392, 0.1435, -2.9279), (1.6832, 0.2869, -2.9204), (1.7564, 0.4304, -2.9129), (1.859, 0.5739, -2.9054), (0.0839, 0, -1.8771), (0.0947, 0.0715, -1.8696), (0.127, 0.1429, -1.8621), (0.1808, 0.2144, -1.8546), (0.2562, 0.2859, -1.8471), (-2.2279, 0, -2.6248), (-2.2135, 0.1093, -2.6173), (-2.1706, 0.2187, -2.6098), (-2.099, 0.328, -2.6023), (-1.9987, 0.4374, -2.5948), (-2.625, 0, -3.2936), (-2.6172, 0.0963, -3.2861), (-2.5937, 0.1926, -3.2786), (-2.5546, 0.2889, -3.2711), (-2.4999, 0.3852, -3.2636), (-1.3385, 0, -3.203), (-1.3244, 0.0686, -3.1955), (-1.2821, 0.1372, -3.188), (-1.2116, 0.2059, -3.1805), (-1.1129, 0.2745, -3.173), (-1.5315, 0, -2.8165), (-1.518, 0.0965, -2.809), (-1.4777, 0.1929, -2.8015), (-1.4105, 0.2894, -2.794), (-1.3163, 0.3859, -2.7865), (-2.5306, 0, -1.9636), (-2.5238, 0.1151, -1.9561), (-2.5036, 0.2303, -1.9486), (-2.4698, 0.3454, -1.9411), (-2.4225, 0.4606, -1.9336), (1.3166, 0, -3.3463), (1.3275, 0.0651, -3.3388), (1.3603, 0.1301, -3.3313), (1.4149, 0.1952, -3.3238), (1.4914, 0.2603, -3.3163), (-0.2462, 0, -3.2596), (-0.2323, 0.1175, -3.2521), (-0.1907, 0.2351, -3.2446), (-0.1214, 0.3526, -3.2371), (-0.0243, 0.4701, -3.2296), (-2.4416, 0, -1.8082), (-2.43, 0.1131, -1.8007), (-2.3952, 0.2263, -1.7932), (-2.3372, 0.3394, -1.7857), (-2.2559, 0.4525, -1.7782), (-0.0185, 0, -3.4187), (-0.007, 0.1024, -3.4112), (0.0276, 0.2049, -3.4037), (0.0854, 0.3073, -3.3962), (0.1662, 0.4097, -3.3887), (-2.2509, 0, -1.7406), (-2.2419, 0.071, -1.7331), (-2.2147, 0.1419, -1.7256), (-2.1694, 0.2129, -1.7181), (-2.106, 0.2839, -1.7106), (-2.6307, 0, -3.1393), (-2.6216, 0.1338, -3.1318), (-2.5941, 0.2676, -3.1243), (-2.5484, 0.4014, -3.1168), (-2.4844, 0.5353, -3.1093), (-1.375, 0, -2.9625), (-1.3613, 0.1317, -2.955), (-1.3202, 0.2634, -2.9475), (-1.2517, 0.395, -2.94), (-1.1558, 0.5267, -2.9325), (1.7641, 0, -2.3377), (1.774, 0.1431, -2.3302), (1.8034, 0.2863, -2.3227), (1.8525, 0.4294, -2.3152), (1.9213, 0.5725, -2.3077), (-0.3682, 0, -3.4284), (-0.3595, 0.1187, -3.4209), (-0.3333, 0.2375, -3.4134), (-0.2897, 0.3562, -3.4059), (-0.2287, 0.475, -3.3984), (-0.9904, 0, -2.1276), (-0.979, 0.0869, -2.1201), (-0.9448, 0.1738, -2.1126), (-0.8879, 0.2606, -2.1051), (-0.8082, 0.3475, -2.0976), (0.0442, 0, -2.4008), (0.0582, 0.1284, -2.3933), (0.1003, 0.2568, -2.3858), (0.1705, 0.3852, -2.3783), (0.2687, 0.5136, -2.3708), (1.8026, 0, -2.5891), (1.8106, 0.0914, -2.5816), (1.8346, 0.1828, -2.5741), (1.8747, 0.2741, -2.5666), (1.9308, 0.3655, -2.5591), (2.4005, 0, -1.7171), (2.4131, 0.0985, -1.7096), (2.4508, 0.1969, -1.7021), (2.5137, 0.2954, -1.6946), (2.6018, 0.3939, -1.6871), (2.9109, 0, -2.5717), (2.9196, 0.1487, -2.5642), (2.9457, 0.2975, -2.5567), (2.9892, 0.4462, -2.5492), (3.05, 0.5949, -2.5417), (0.0878, 0, -3.2252), (0.1012, 0.141, -3.2177), (0.1416, 0.2821, -3.2102), (0.2089, 0.4231, -3.2027), (0.3031, 0.5641, -3.1952), (-1.7411, 0, -2.947), (-1.729, 0.1013, -2.9395), (-1.6926, 0.2025, -2.932), (-1.6319, 0.3038, -2.9245), (-1.547, 0.4051, -2.917), (-0.7859, 0, -2.4369), (-0.7753, 0.0783, -2.4294), (-0.7437, 0.1567, -2.4219), (-0.6909, 0.235, -2.4144), (-0.6171, 0.3133, -2.4069), (-1.8179, 0, -2.5427), (-1.8108, 0.1082, -2.5352), (-1.7897, 0.2163, -2.5277), (-1.7544, 0.3245, -2.5202), (-1.705, 0.4327, -2.5127), (-1.5322, 0, -3.058), (-1.5177, 0.1038, -3.0505), (-1.4742, 0.2076, -3.043), (-1.4017, 0.3114, -3.0355), (-1.3003, 0.4151, -3.028), (-1.5665, 0, -2.0504), (-1.5558, 0.0765, -2.0429), (-1.5236, 0.153, -2.0354), (-1.47, 0.2295, -2.0279), (-1.395, 0.3059, -2.0204), (-0.4701, 0, -2.175), (-0.4561, 0.0849, -2.1675), (-0.4142, 0.1699, -2.16), (-0.3444, 0.2548, -2.1525), (-0.2466, 0.3397, -2.145), (-1.5337, 0, -2.1454), (-1.5271, 0.1493, -2.1379), (-1.5074, 0.2986, -2.1304), (-1.4745, 0.4479, -2.1229), (-1.4284, 0.5972, -2.1154), (-2.6387, 0, -3.2631), (-2.6255, 0.1307, -3.2556), (-2.586, 0.2614, -3.2481), (-2.5202, 0.3921, -3.2406), (-2.428, 0.5228, -3.2331), (0.1827, 0, -3.0073), (0.198, 0.1481, -2.9998), (0.244, 0.2961, -2.9923), (0.3206, 0.4442, -2.9848), (0.4279, 0.5923, -2.9773), (-0.1665, 0, -2.4429), (-0.1602, 0.1038, -2.4354), (-0.141, 0.2076, -2.4279), (-0.1091, 0.3114, -2.4204), (-0.0644, 0.4152, -2.4129), (1.5772, 0, -3.4654), (1.5915, 0.075, -3.4579), (1.6346, 0.1501, -3.4504), (1.7064, 0.2251, -3.4429), (1.8068, 0.3002, -3.4354), (-0.3326, 0, -1.9708), (-0.3183, 0.1086, -1.9633), (-0.2754, 0.2171, -1.9558), (-0.2039, 0.3257, -1.9483), (-0.1039, 0.4343, -1.9408), (-1.8223, 0, -1.6314), (-1.811, 0.0746, -1.6239), (-1.777, 0.1493, -1.6164), (-1.7203, 0.2239, -1.6089), (-1.6409, 0.2986, -1.6014), (-0.6625, 0, -3.0241), (-0.653, 0.0885, -3.0166), (-0.6245, 0.177, -3.0091), (-0.5771, 0.2655, -3.0016), (-0.5107, 0.354, -2.9941), (-1.7051, 0, -2.5253), (-1.6984, 0.1181, -2.5178), (-1.6784, 0.2362, -2.5103), (-1.645, 0.3543, -2.5028), (-1.5982, 0.4724, -2.4953), (2.6931, 0, -2.399), (2.701, 0.0988, -2.3915), (2.7246, 0.1976, -2.384), (2.7638, 0.2963, -2.3765), (2.8188, 0.3951, -2.369), (1.9794, 0, -1.6321), (1.9871, 0.0984, -1.6246), (2.0099, 0.1969, -1.6171), (2.048, 0.2953, -1.6096), (2.1014, 0.3938, -1.6021), (-0.3965, 0, -2.4819), (-0.3829, 0.1465, -2.4744), (-0.3422, 0.293, -2.4669), (-0.2743, 0.4395, -2.4594), (-0.1793, 0.586, -2.4519), (-2.9291, 0, -3.1462), (-2.9227, 0.078, -3.1387), (-2.9035, 0.1559, -3.1312), (-2.8715, 0.2339, -3.1237), (-2.8267, 0.3119, -3.1162), (0.2903, 0, -3.1689), (0.2983, 0.1058, -3.1614), (0.3223, 0.2117, -3.1539), (0.3622, 0.3175, -3.1464), (0.4182, 0.4233, -3.1389), (-0.6938, 0, -2.7964), (-0.6804, 0.1265, -2.7889), (-0.6403, 0.2531, -2.7814), (-0.5736, 0.3796, -2.7739), (-0.4801, 0.5062, -2.7664), (-0.7003, 0, -2.3483), (-0.693, 0.0991, -2.3408), (-0.6708, 0.1982, -2.3333), (-0.6339, 0.2973, -2.3258), (-0.5822, 0.3964, -2.3183), (1.2514, 0, -3.2665), (1.2589, 0.0872, -3.259), (1.2814, 0.1743, -3.2515), (1.3189, 0.2615, -3.244), (1.3715, 0.3486, -3.2365), (-1.3482, 0, -1.8159), (-1.3335, 0.0944, -1.8084), (-1.2892, 0.1888, -1.8009), (-1.2155, 0.2832, -1.7934), (-1.1123, 0.3776, -1.7859), (-2.4365, 0, -3.2778), (-2.4266, 0.1192, -3.2703), (-2.3967, 0.2384, -3.2628), (-2.3468, 0.3575, -3.2553), (-2.2771, 0.4767, -3.2478), (1.6587, 0, -2.349), (1.6726, 0.147, -2.3415), (1.7144, 0.294, -2.334), (1.7841, 0.441, -2.3265), (1.8817, 0.588, -2.319), (-0.9361, 0, -2.0076), (-0.9211, 0.0935, -2.0001), (-0.876, 0.1869, -1.9926), (-0.8009, 0.2804, -1.9851), (-0.6957, 0.3739, -1.9776), (1.4819, 0, -1.9707), (1.4938, 0.1479, -1.9632), (1.5295, 0.2958, -1.9557), (1.589, 0.4437, -1.9482), (1.6722, 0.5916, -1.9407), (-1.8548, 0, -1.5031), (-1.8437, 0.1372, -1.4956), (-1.8105, 0.2744, -1.4881), (-1.7552, 0.4116, -1.4806), (-1.6779, 0.5488, -1.4731), (0.6066, 0, -1.6011), (0.6222, 0.1221, -1.5936), (0.6688, 0.2441, -1.5861), (0.7467, 0.3662, -1.5786), (0.8556, 0.4882, -1.5711), (1.4827, 0, -2.5747), (1.493, 0.0969, -2.5672), (1.524, 0.1937, -2.5597), (1.5757, 0.2906, -2.5522), (1.6481, 0.3875, -2.5447), (2.056, 0, -2.1972), (2.0635, 0.1174, -2.1897), (2.0861, 0.2349, -2.1822), (2.1238, 0.3523, -2.1747), (2.1766, 0.4698, -2.1672), (-2.3153, 0, -1.9012), (-2.3038, 0.0955, -1.8937), (-2.2694, 0.191, -1.8862), (-2.2119, 0.2865, -1.8787), (-2.1314, 0.382, -1.8712), (1.9674, 0, -1.525), (1.9789, 0.0894, -1.5175), (2.0134, 0.1788, -1.51), (2.071, 0.2682, -1.5025), (2.1516, 0.3575, -1.495), (-1.3381, 0, -1.9064), (-1.3304, 0.1093, -1.8989), (-1.3075, 0.2186, -1.8914), (-1.2694, 0.3279, -1.8839), (-1.2159, 0.4372, -1.8764), (-2.2558, 0, -1.6886), (-2.2433, 0.1069, -1.6811), (-2.2059, 0.2139, -1.6736), (-2.1436, 0.3208, -1.6661), (-2.0563, 0.4277, -1.6586), (-1.2165, 0, -2.6068), (-1.2027, 0.082, -2.5993), (-1.1612, 0.164, -2.5918), (-1.0919, 0.246, -2.5843), (-0.995, 0.328, -2.5768), (-1.421, 0, -2.7105), (-1.4121, 0.1426, -2.703), (-1.3855, 0.2851, -2.6955), (-1.3412, 0.4277, -2.688), (-1.2792, 0.5703, -2.6805), (-0.618, 0, -2.8064), (-0.6056, 0.115, -2.7989), (-0.5684, 0.23, -2.7914), (-0.5065, 0.3449, -2.7839), (-0.4198, 0.4599, -2.7764), (-0.1316, 0, -2.4197), (-0.1162, 0.1495, -2.4122), (-0.07, 0.2989, -2.4047), (0.0071, 0.4484, -2.3972), (0.1149, 0.5979, -2.3897), (0.2692, 0, -3.4756), (0.2781, 0.137, -3.4681), (0.3047, 0.274, -3.4606), (0.3491, 0.4111, -3.4531), (0.4112, 0.5481, -3.4456), (0.5511, 0, -2.6321), (0.5651, 0.0885, -2.6246), (0.6072, 0.177, -2.6171), (0.6772, 0.2655, -2.6096), (0.7753, 0.354, -2.6021), (-0.6525, 0, -2.0779), (-0.6391, 0.107, -2.0704), (-0.5989, 0.2139, -2.0629), (-0.5318, 0.3209, -2.0554), (-0.4379, 0.4278, -2.0479), (1.2474, 0, -2.3862), (1.2597, 0.1217, -2.3787), (1.2967, 0.2434, -2.3712), (1.3583, 0.365, -2.3637), (1.4446, 0.4867, -2.3562), (0.1713, 0, -2.1282), (0.1781, 0.1401, -2.1207), (0.1987, 0.2802, -2.1132), (0.2329, 0.4202, -2.1057), (0.2809, 0.5603, -2.0982), (0.221, 0, -2.393), (0.2343, 0.1473, -2.3855), (0.2742, 0.2947, -2.378), (0.3407, 0.442, -2.3705), (0.4339, 0.5893, -2.363), (2.6862, 0, -2.8958), (2.6926, 0.1122, -2.8883), (2.7118, 0.2245, -2.8808), (2.7439, 0.3367, -2.8733), (2.7889, 0.449, -2.8658), (-1.5541, 0, -1.7162), (-1.539, 0.1257, -1.7087), (-1.4934, 0.2514, -1.7012), (-1.4175, 0.3771, -1.6937), (-1.3112, 0.5028, -1.6862), (-2.1523, 0, -3.2863), (-2.1399, 0.0726, -3.2788), (-2.1027, 0.1452, -3.2713), (-2.0407, 0.2178, -3.2638), (-1.9539, 0.2903, -3.2563), (-2.4055, 0, -3.0602), (-2.3988, 0.0883, -3.0527), (-2.3787, 0.1766, -3.0452), (-2.3451, 0.265, -3.0377), (-2.2982, 0.3533, -3.0302), (2.088, 0, -3.2767), (2.0978, 0.1436, -3.2692), (2.1271, 0.2872, -3.2617), (2.1761, 0.4308, -3.2542), (2.2447, 0.5744, -3.2467), (0.5344, 0, -2.1643), (0.5469, 0.1262, -2.1568), (0.5844, 0.2524, -2.1493), (0.647, 0.3786, -2.1418), (0.7346, 0.5049, -2.1343), (-0.4966, 0, -3.351), (-0.481, 0.0998, -3.3435), (-0.4342, 0.1995, -3.336), (-0.3561, 0.2993, -3.3285), (-0.2469, 0.3991, -3.321), (-1.8402, 0, -2.1005), (-1.8323, 0.0726, -2.093), (-1.8086, 0.1452, -2.0855), (-1.769, 0.2178, -2.078), (-1.7136, 0.2905, -2.0705), (-1.836, 0, -2.9915), (-1.8224, 0.1142, -2.984), (-1.7813, 0.2285, -2.9765), (-1.7128, 0.3427, -2.969), (-1.617, 0.4569, -2.9615), (0.0677, 0, -2.2869), (0.0811, 0.1082, -2.2794), (0.1213, 0.2164, -2.2719), (0.1884, 0.3246, -2.2644), (0.2823, 0.4329, -2.2569), (0.1812, 0, -2.9601), (0.1902, 0.1447, -2.9526), (0.2175, 0.2893, -2.9451), (0.2629, 0.434, -2.9376), (0.3265, 0.5786, -2.9301), (2.8978, 0, -2.4075), (2.9087, 0.1322, -2.4), (2.9413, 0.2643, -2.3925), (2.9957, 0.3965, -2.385), (3.0719, 0.5287, -2.3775), (-2.7342, 0, -2.6002), (-2.7205, 0.0746, -2.5927), (-2.6792, 0.1492, -2.5852), (-2.6105, 0.2238, -2.5777), (-2.5143, 0.2984, -2.5702), (1.9586, 0, -2.8918), (1.9727, 0.1029, -2.8843), (2.0149, 0.2059, -2.8768), (2.0854, 0.3088, -2.8693), (2.184, 0.4117, -2.8618), (-2.3487, 0, -2.1261), (-2.3408, 0.1074, -2.1186), (-2.3169, 0.2148, -2.1111), (-2.2772, 0.3222, -2.1036), (-2.2216, 0.4296, -2.0961), (-1.9355, 0, -2.8998), (-1.9202, 0.0815, -2.8923), (-1.8744, 0.1631, -2.8848), (-1.7981, 0.2446, -2.8773), (-1.6913, 0.3262, -2.8698), (0.6527, 0, -2.4254), (0.6673, 0.0752, -2.4179), (0.7111, 0.1505, -2.4104), (0.784, 0.2257, -2.4029), (0.8861, 0.3009, -2.3954), (-1.0571, 0, -1.6477), (-1.0447, 0.1116, -1.6402), (-1.0074, 0.2233, -1.6327), (-0.9452, 0.3349, -1.6252), (-0.8581, 0.4465, -1.6177), (1.9452, 0, -2.4604), (1.9558, 0.0797, -2.4529), (1.9878, 0.1593, -2.4454), (2.0411, 0.239, -2.4379), (2.1157, 0.3186, -2.4304), (1.8422, 0, -3.1246), (1.8572, 0.1014, -3.1171), (1.9023, 0.2027, -3.1096), (1.9774, 0.3041, -3.1021), (2.0825, 0.4054, -3.0946), (1.999, 0, -2.1923), (2.0129, 0.0876, -2.1848), (2.0548, 0.1753, -2.1773), (2.1246, 0.2629, -2.1698), (2.2223, 0.3505, -2.1623), (-2.647, 0, -3.4819), (-2.6366, 0.0842, -3.4744), (-2.6054, 0.1685, -3.4669), (-2.5533, 0.2527, -3.4594), (-2.4803, 0.337, -3.4519), (-2.9655, 0, -1.9077), (-2.9543, 0.086, -1.9002), (-2.9208, 0.172, -1.8927), (-2.865, 0.2581, -1.8852), (-2.7868, 0.3441, -1.8777), (2.2267, 0, -3.2017), (2.2352, 0.063, -3.1942), (2.2605, 0.1259, -3.1867), (2.3028, 0.1889, -3.1792), (2.362, 0.2518, -3.1717), (2.2619, 0, -1.7297), (2.2764, 0.1148, -1.7222), (2.32, 0.2297, -1.7147), (2.3927, 0.3445, -1.7072), (2.4944, 0.4594, -1.6997), (-1.0734, 0, -2.0655), (-1.0669, 0.1168, -2.058), (-1.0473, 0.2336, -2.0505), (-1.0146, 0.3504, -2.043), (-0.9689, 0.4672, -2.0355), (2.8266, 0, -2.3085), (2.8399, 0.1061, -2.301), (2.8798, 0.2122, -2.2935), (2.9463, 0.3183, -2.286), (3.0393, 0.4243, -2.2785), (-2.4968, 0, -3.2511), (-2.4823, 0.0987, -3.2436), (-2.4387, 0.1975, -3.2361), (-2.366, 0.2962, -3.2286), (-2.2642, 0.3949, -3.2211), (-1.6428, 0, -3.4964), (-1.636, 0.0911, -3.4889), (-1.6157, 0.1822, -3.4814), (-1.5818, 0.2732, -3.4739), (-1.5344, 0.3643, -3.4664), (0.3311, 0, -2.7493), (0.3408, 0.1256, -2.7418), (0.3702, 0.2512, -2.7343), (0.4191, 0.3768, -2.7268), (0.4877, 0.5025, -2.7193), (2.6929, 0, -1.9559), (2.7081, 0.0861, -1.9484), (2.7538, 0.1723, -1.9409), (2.8299, 0.2584, -1.9334), (2.9364, 0.3445, -1.9259), (-2.6707, 0, -1.6352), (-2.6609, 0.0751, -1.6277), (-2.6315, 0.1502, -1.6202), (-2.5824, 0.2253, -1.6127), (-2.5137, 0.3004, -1.6052), (0.3716, 0, -2.7568), (0.385, 0.1319, -2.7493), (0.4252, 0.2638, -2.7418), (0.4922, 0.3957, -2.7343), (0.586, 0.5276, -2.7268), (-1.0457, 0, -2.2407), (-1.0385, 0.109, -2.2332), (-1.0168, 0.218, -2.2257), (-0.9808, 0.3271, -2.2182), (-0.9303, 0.4361, -2.2107), (2.6402, 0, -3.0732), (2.654, 0.1175, -3.0657), (2.6956, 0.2349, -3.0582), (2.7649, 0.3524, -3.0507), (2.8619, 0.4698, -3.0432), (2.7639, 0, -3.379), (2.774, 0.086, -3.3715), (2.8043, 0.172, -3.364), (2.8549, 0.258, -3.3565), (2.9256, 0.344, -3.349), (0.663, 0, -2.9411), (0.6774, 0.1004, -2.9336), (0.7206, 0.2009, -2.9261), (0.7924, 0.3013, -2.9186), (0.8931, 0.4017, -2.9111), (2.2749, 0, -2.5702), (2.2846, 0.0641, -2.5627), (2.3135, 0.1281, -2.5552), (2.3618, 0.1922, -2.5477), (2.4294, 0.2563, -2.5402), (1.4451, 0, -2.7901), (1.4561, 0.0701, -2.7826), (1.4891, 0.1403, -2.7751), (1.5442, 0.2104, -2.7676), (1.6213, 0.2806, -2.7601), (-0.4798, 0, -3.4832), (-0.4642, 0.1308, -3.4757), (-0.4174, 0.2616, -3.4682), (-0.3394, 0.3924, -3.4607), (-0.2302, 0.5232, -3.4532), (0.6159, 0, -2.0528), (0.6287, 0.101, -2.0453), (0.667, 0.202, -2.0378), (0.7309, 0.303, -2.0303), (0.8203, 0.404, -2.0228), (1.7337, 0, -1.9562), (1.7409, 0.1207, -1.9487), (1.7623, 0.2415, -1.9412), (1.7979, 0.3622, -1.9337), (1.8479, 0.483, -1.9262), (1.0656, 0, -2.6968), (1.0785, 0.1192, -2.6893), (1.1172, 0.2384, -2.6818), (1.1817, 0.3577, -2.6743), (1.272, 0.4769, -2.6668), (-1.7505, 0, -2.9796), (-1.7394, 0.123, -2.9721), (-1.7062, 0.2459, -2.9646), (-1.6509, 0.3689, -2.9571), (-1.5733, 0.4918, -2.9496), (-1.4946, 0, -2.9088), (-1.483, 0.1349, -2.9013), (-1.4481, 0.2697, -2.8938), (-1.3899, 0.4046, -2.8863), (-1.3084, 0.5394, -2.8788), (-0.5301, 0, -2.5018), (-0.522, 0.0964, -2.4943), (-0.498, 0.1928, -2.4868), (-0.458, 0.2892, -2.4793), (-0.4019, 0.3857, -2.4718), (-0.1095, 0, -3.3857), (-0.1013, 0.1397, -3.3782), (-0.0767, 0.2795, -3.3707), (-0.0357, 0.4192, -3.3632), (0.0216, 0.559, -3.3557), (2.751, 0, -2.9671), (2.7603, 0.1366, -2.9596), (2.788, 0.2732, -2.9521), (2.8343, 0.4098, -2.9446), (2.8991, 0.5465, -2.9371), (2.3516, 0, -3.4738), (2.361, 0.0661, -3.4663), (2.3895, 0.1321, -3.4588), (2.437, 0.1982, -3.4513), (2.5034, 0.2642, -3.4438), (-1.4888, 0, -1.7262), (-1.4757, 0.1064, -1.7187), (-1.4365, 0.2129, -1.7112), (-1.3711, 0.3193, -1.7037), (-1.2795, 0.4257, -1.6962), (-1.6417, 0, -1.5083), (-1.6302, 0.1086, -1.5008), (-1.5956, 0.2173, -1.4933), (-1.5379, 0.3259, -1.4858), (-1.4572, 0.4345, -1.4783), (-0.3831, 0, -1.9734), (-0.3757, 0.0988, -1.9659), (-0.3536, 0.1976, -1.9584), (-0.3166, 0.2964, -1.9509), (-0.2649, 0.3952, -1.9434), (-1.7251, 0, -1.5552), (-1.716, 0.0723, -1.5477), (-1.6885, 0.1447, -1.5402), (-1.6427, 0.217, -1.5327), (-1.5786, 0.2894, -1.5252), (1.0003, 0, -3.2042), (1.0122, 0.1122, -3.1967), (1.0481, 0.2244, -3.1892), (1.1079, 0.3367, -3.1817), (1.1915, 0.4489, -3.1742), (-0.3625, 0, -2.7583), (-0.352, 0.1398, -2.7508), (-0.3206, 0.2797, -2.7433), (-0.2681, 0.4195, -2.7358), (-0.1946, 0.5594, -2.7283), (0.9295, 0, -3.2955), (0.9382, 0.1181, -3.288), (0.9642, 0.2362, -3.2805), (1.0074, 0.3544, -3.273), (1.068, 0.4725, -3.2655), (-0.8297, 0, -2.6273), (-0.8184, 0.1073, -2.6198), (-0.7842, 0.2147, -2.6123), (-0.7273, 0.322, -2.6048), (-0.6476, 0.4294, -2.5973), (-0.2393, 0, -2.5335), (-0.2262, 0.0802, -2.526), (-0.1867, 0.1603, -2.5185), (-0.1208, 0.2405, -2.511), (-0.0287, 0.3206, -2.5035), (-0.1196, 0, -1.8016), (-0.1071, 0.1255, -1.7941), (-0.0695, 0.2509, -1.7866), (-0.0068, 0.3764, -1.7791), (0.0809, 0.5019, -1.7716), (-0.7951, 0, -1.9251), (-0.7886, 0.0815, -1.9176), (-0.7691, 0.163, -1.9101), (-0.7367, 0.2444, -1.9026), (-0.6913, 0.3259, -1.8951), (1.97, 0, -2.5139), (1.9789, 0.0639, -2.5064), (2.0057, 0.1278, -2.4989), (2.0503, 0.1917, -2.4914), (2.1127, 0.2556, -2.4839), (0.923, 0, -1.9434), (0.9337, 0.1088, -1.9359), (0.9661, 0.2175, -1.9284), (1.0199, 0.3263, -1.9209), (1.0954, 0.435, -1.9134), (-2.4893, 0, -2.4855), (-2.4745, 0.1011, -2.478), (-2.4301, 0.2022, -2.4705), (-2.3562, 0.3033, -2.463), (-2.2526, 0.4044, -2.4555), (0.7815, 0, -1.7606), (0.7925, 0.0642, -1.7531), (0.8256, 0.1283, -1.7456), (0.8808, 0.1925, -1.7381), (0.958, 0.2567, -1.7306), (1.8282, 0, -2.0626), (1.84, 0.1273, -2.0551), (1.8754, 0.2545, -2.0476), (1.9343, 0.3818, -2.0401), (2.0168, 0.509, -2.0326), (2.4215, 0, -1.5611), (2.435, 0.1163, -1.5536), (2.4755, 0.2327, -1.5461), (2.5431, 0.349, -1.5386), (2.6377, 0.4654, -1.5311), (1.5518, 0, -1.6365), (1.5639, 0.0931, -1.629), (1.6, 0.1862, -1.6215), (1.6601, 0.2793, -1.614), (1.7443, 0.3724, -1.6065), (0.2629, 0, -3.4912), (0.2732, 0.0629, -3.4837), (0.3038, 0.1258, -3.4762), (0.3548, 0.1886, -3.4687), (0.4263, 0.2515, -3.4612), (-0.2953, 0, -2.7366), (-0.282, 0.128, -2.7291), (-0.2421, 0.2559, -2.7216), (-0.1756, 0.3839, -2.7141), (-0.0824, 0.5119, -2.7066), (-0.1066, 0, -3.1381), (-0.0956, 0.0626, -3.1306), (-0.0628, 0.1252, -3.1231), (-0.008, 0.1878, -3.1156), (0.0687, 0.2503, -3.1081), (-0.3845, 0, -2.3693), (-0.3731, 0.1428, -2.3618), (-0.3387, 0.2856, -2.3543), (-0.2815, 0.4284, -2.3468), (-0.2014, 0.5711, -2.3393), (-1.5962, 0, -2.2909), (-1.5835, 0.077, -2.2834), (-1.5455, 0.154, -2.2759), (-1.4822, 0.231, -2.2684), (-1.3936, 0.308, -2.2609), (-2.4776, 0, -2.2263), (-2.4629, 0.1464, -2.2188), (-2.4185, 0.2928, -2.2113), (-2.3446, 0.4392, -2.2038), (-2.2411, 0.5857, -2.1963), (-1.1591, 0, -2.3769), (-1.1517, 0.0885, -2.3694), (-1.1294, 0.1771, -2.3619), (-1.0922, 0.2656, -2.3544), (-1.0401, 0.3541, -2.3469), (1.3135, 0, -3.0499), (1.3251, 0.1052, -3.0424), (1.3598, 0.2104, -3.0349), (1.4176, 0.3156, -3.0274), (1.4986, 0.4207, -3.0199), (2.9455, 0, -2.7473), (2.9534, 0.1347, -2.7398), (2.9772, 0.2694, -2.7323), (3.0169, 0.4042, -2.7248), (3.0725, 0.5389, -2.7173), (-0.2134, 0, -1.6881), (-0.2023, 0.0833, -1.6806), (-0.1689, 0.1666, -1.6731), (-0.1132, 0.2499, -1.6656), (-0.0352, 0.3332, -1.6581), (2.8189, 0, -2.3499), (2.8338, 0.1216, -2.3424), (2.8787, 0.2432, -2.3349), (2.9534, 0.3647, -2.3274), (3.0581, 0.4863, -2.3199), (-2.9902, 0, -2.8473), (-2.9835, 0.1327, -2.8398), (-2.9635, 0.2654, -2.8323), (-2.93, 0.3981, -2.8248), (-2.8832, 0.5308, -2.8173), (0.3365, 0, -2.7433), (0.35, 0.1246, -2.7358), (0.3905, 0.2492, -2.7283), (0.458, 0.3738, -2.7208), (0.5525, 0.4983, -2.7133), (-0.2435, 0, -3.0396), (-0.231, 0.0797, -3.0321), (-0.1935, 0.1594, -3.0246), (-0.131, 0.2392, -3.0171), (-0.0435, 0.3189, -3.0096), (2.8561, 0, -2.3489), (2.8687, 0.1378, -2.3414), (2.9065, 0.2756, -2.3339), (2.9694, 0.4134, -2.3264), (3.0575, 0.5512, -2.3189), (-2.5519, 0, -3.1432), (-2.5404, 0.1044, -3.1357), (-2.5061, 0.2088, -3.1282), (-2.4489, 0.3132, -3.1207), (-2.3689, 0.4176, -3.1132), (-2.0236, 0, -2.7675), (-2.0119, 0.0669, -2.76), (-1.977, 0.1337, -2.7525), (-1.9188, 0.2006, -2.745), (-1.8373, 0.2674, -2.7375), (-0.5808, 0, -1.8294), (-0.5685, 0.0701, -1.8219), (-0.5317, 0.1401, -1.8144), (-0.4704, 0.2102, -1.8069), (-0.3845, 0.2803, -1.7994), (-1.729, 0, -3.3024), (-1.7146, 0.0631, -3.2949), (-1.6713, 0.1262, -3.2874), (-1.5991, 0.1893, -3.2799), (-1.4981, 0.2524, -3.2724), (-0.6437, 0, -2.9161), (-0.6325, 0.0821, -2.9086), (-0.5991, 0.1643, -2.9011), (-0.5434, 0.2464, -2.8936), (-0.4654, 0.3286, -2.8861), (-0.4287, 0, -2.8376), (-0.4211, 0.0683, -2.8301), (-0.3983, 0.1366, -2.8226), (-0.3603, 0.2048, -2.8151), (-0.307, 0.2731, -2.8076), (-0.9007, 0, -2.548), (-0.8897, 0.143, -2.5405), (-0.8566, 0.2859, -2.533), (-0.8014, 0.4289, -2.5255), (-0.7242, 0.5718, -2.518), (2.4816, 0, -2.1206), (2.4948, 0.0964, -2.1131), (2.5346, 0.1929, -2.1056), (2.6009, 0.2893, -2.0981), (2.6936, 0.3857, -2.0906), (-1.9011, 0, -2.5424), (-1.8904, 0.0948, -2.5349), (-1.8582, 0.1897, -2.5274), (-1.8046, 0.2845, -2.5199), (-1.7296, 0.3793, -2.5124), (2.3523, 0, -2.3313), (2.3677, 0.0633, -2.3238), (2.4139, 0.1265, -2.3163), (2.4909, 0.1898, -2.3088), (2.5986, 0.2531, -2.3013), (0.017, 0, -2.791), (0.0303, 0.094, -2.7835), (0.0705, 0.188, -2.776), (0.1374, 0.2819, -2.7685), (0.2312, 0.3759, -2.761), (2.2926, 0, -2.4492), (2.3074, 0.0875, -2.4417), (2.3515, 0.175, -2.4342), (2.4251, 0.2625, -2.4267), (2.5281, 0.35, -2.4192), (-2.6976, 0, -3.2314), (-2.6854, 0.1012, -3.2239), (-2.6487, 0.2025, -3.2164), (-2.5876, 0.3037, -3.2089), (-2.502, 0.4049, -3.2014), (-1.7428, 0, -3.0119), (-1.7284, 0.1447, -3.0044), (-1.6854, 0.2895, -2.9969), (-1.6137, 0.4342, -2.9894), (-1.5134, 0.5789, -2.9819), (-1.0525, 0, -2.4334), (-1.0393, 0.1151, -2.4259), (-0.9997, 0.2302, -2.4184), (-0.9338, 0.3453, -2.4109), (-0.8416, 0.4604, -2.4034), (-1.5567, 0, -1.7948), (-1.5426, 0.1186, -1.7873), (-1.5005, 0.2371, -1.7798), (-1.4303, 0.3557, -1.7723), (-1.332, 0.4742, -1.7648), (1.5749, 0, -1.5048), (1.5858, 0.0797, -1.4973), (1.6183, 0.1594, -1.4898), (1.6725, 0.2391, -1.4823), (1.7483, 0.3188, -1.4748), (-2.3275, 0, -2.8756), (-2.314, 0.0673, -2.8681), (-2.2736, 0.1346, -2.8606), (-2.2062, 0.2019, -2.8531), (-2.1119, 0.2692, -2.8456), (-2.1921, 0, -1.8547), (-2.18, 0.0783, -1.8472), (-2.1436, 0.1565, -1.8397), (-2.083, 0.2348, -1.8322), (-1.9981, 0.3131, -1.8247), (-0.1107, 0, -2.2958), (-0.1029, 0.1446, -2.2883), (-0.0797, 0.2893, -2.2808), (-0.041, 0.4339, -2.2733), (0.0132, 0.5786, -2.2658), (0.456, 0, -2.7079), (0.4703, 0.1428, -2.7004), (0.5133, 0.2857, -2.6929), (0.5849, 0.4285, -2.6854), (0.6851, 0.5713, -2.6779), (-0.0464, 0, -2.5995), (-0.0384, 0.067, -2.592), (-0.0146, 0.1341, -2.5845), (0.0252, 0.2011, -2.577), (0.0809, 0.2682, -2.5695), (1.9688, 0, -3.2716), (1.9763, 0.0723, -3.2641), (1.9987, 0.1447, -3.2566), (2.0362, 0.217, -3.2491), (2.0885, 0.2894, -3.2416), (1.3351, 0, -2.0282), (1.3468, 0.1002, -2.0207), (1.3819, 0.2004, -2.0132), (1.4404, 0.3006, -2.0057), (1.5222, 0.4007, -1.9982), (2.0315, 0, -3.4774), (2.0423, 0.0838, -3.4699), (2.0747, 0.1676, -3.4624), (2.1286, 0.2513, -3.4549), (2.2041, 0.3351, -3.4474), (1.6496, 0, -1.8126), (1.6639, 0.0882, -1.8051), (1.707, 0.1764, -1.7976), (1.7788, 0.2646, -1.7901), (1.8793, 0.3528, -1.7826), (-1.1659, 0, -3.3289), (-1.1565, 0.1158, -3.3214), (-1.1286, 0.2316, -3.3139), (-1.082, 0.3474, -3.3064), (-1.0167, 0.4632, -3.2989), (1.8982, 0, -3.1183), (1.9106, 0.1495, -3.1108), (1.948, 0.2991, -3.1033), (2.0104, 0.4486, -3.0958), (2.0977, 0.5981, -3.0883), (1.7012, 0, -3.3423), (1.7081, 0.0826, -3.3348), (1.7287, 0.1652, -3.3273), (1.763, 0.2477, -3.3198), (1.8111, 0.3303, -3.3123), (-0.8745, 0, -1.6012), (-0.8682, 0.1258, -1.5937), (-0.8492, 0.2515, -1.5862), (-0.8175, 0.3773, -1.5787), (-0.7732, 0.5031, -1.5712), (2.2064, 0, -3.2611), (2.2212, 0.1182, -3.2536), (2.2655, 0.2364, -3.2461), (2.3393, 0.3546, -3.2386), (2.4427, 0.4728, -3.2311), (-2.5518, 0, -1.5528), (-2.5449, 0.1317, -1.5453), (-2.5241, 0.2633, -1.5378), (-2.4895, 0.395, -1.5303), (-2.4411, 0.5266, -1.5228), (-0.1402, 0, -3.1907), (-0.1278, 0.0914, -3.1832), (-0.0904, 0.1828, -3.1757), (-0.0281, 0.2742, -3.1682), (0.0592, 0.3656, -3.1607), (1.0703, 0, -3.0782), (1.0777, 0.0767, -3.0707), (1.0998, 0.1535, -3.0632), (1.1367, 0.2302, -3.0557), (1.1884, 0.307, -3.0482), (1.6463, 0, -3.1192), (1.6538, 0.0979, -3.1117), (1.6763, 0.1958, -3.1042), (1.7138, 0.2937, -3.0967), (1.7664, 0.3917, -3.0892), (1.0832, 0, -2.9053), (1.0909, 0.0806, -2.8978), (1.1137, 0.1611, -2.8903), (1.1519, 0.2417, -2.8828), (1.2053, 0.3223, -2.8753), (2.2185, 0, -2.1407), (2.2322, 0.0945, -2.1332), (2.2735, 0.1891, -2.1257), (2.3422, 0.2836, -2.1182), (2.4385, 0.3782, -2.1107), (2.1654, 0, -1.9493), (2.1749, 0.078, -1.9418), (2.2035, 0.1559, -1.9343), (2.2513, 0.2339, -1.9268), (2.3181, 0.3119, -1.9193), (2.8933, 0, -2.7379), (2.905, 0.0847, -2.7304), (2.9402, 0.1694, -2.7229), (2.9988, 0.2541, -2.7154), (3.0809, 0.3388, -2.7079), (-1.6444, 0, -1.7011), (-1.638, 0.1031, -1.6936), (-1.6187, 0.2062, -1.6861), (-1.5866, 0.3092, -1.6786), (-1.5416, 0.4123, -1.6711), (2.6196, 0, -3.3999), (2.6303, 0.133, -3.3924), (2.6624, 0.266, -3.3849), (2.7158, 0.399, -3.3774), (2.7907, 0.532, -3.3699), (1.9457, 0, -2.277), (1.9554, 0.1122, -2.2695), (1.9847, 0.2244, -2.262), (2.0335, 0.3367, -2.2545), (2.1019, 0.4489, -2.247), (-1.0775, 0, -2.263), (-1.0701, 0.0629, -2.2555), (-1.0479, 0.1258, -2.248), (-1.0109, 0.1887, -2.2405), (-0.959, 0.2516, -2.233), (-2.7898, 0, -3.285), (-2.7793, 0.1094, -3.2775), (-2.7476, 0.2187, -3.27), (-2.6947, 0.3281, -3.2625), (-2.6208, 0.4374, -3.255), (2.948, 0, -2.9328), (2.9635, 0.1362, -2.9253), (3.0098, 0.2723, -2.9178), (3.087, 0.4085, -2.9103), (3.1951, 0.5446, -2.9028), (-1.4305, 0, -1.5345), (-1.424, 0.0877, -1.527), (-1.4044, 0.1753, -1.5195), (-1.3716, 0.263, -1.512), (-1.3258, 0.3507, -1.5045), (0.8284, 0, -3.1361), (0.8431, 0.0973, -3.1286), (0.8871, 0.1946, -3.1211), (0.9604, 0.292, -3.1136), (1.063, 0.3893, -3.1061), (2.1135, 0, -3.3208), (2.1238, 0.1284, -3.3133), (2.1549, 0.2568, -3.3058), (2.2068, 0.3852, -3.2983), (2.2793, 0.5137, -3.2908), (0.5969, 0, -3.1672), (0.6095, 0.072, -3.1597), (0.6471, 0.144, -3.1522), (0.7099, 0.216, -3.1447), (0.7977, 0.288, -3.1372), (-0.1969, 0, -2.0362), (-0.1904, 0.1037, -2.0287), (-0.171, 0.2074, -2.0212), (-0.1387, 0.3111, -2.0137), (-0.0935, 0.4148, -2.0062), (-1.0708, 0, -2.4134), (-1.0615, 0.1017, -2.4059), (-1.0337, 0.2034, -2.3984), (-0.9874, 0.3051, -2.3909), (-0.9226, 0.4067, -2.3834), (2.5061, 0, -2.8868), (2.5174, 0.1078, -2.8793), (2.5514, 0.2155, -2.8718), (2.608, 0.3233, -2.8643), (2.6874, 0.431, -2.8568), (-2.6414, 0, -2.5114), (-2.6322, 0.1146, -2.5039), (-2.6048, 0.2293, -2.4964), (-2.559, 0.3439, -2.4889), (-2.4948, 0.4586, -2.4814), (0.9865, 0, -3.3863), (0.9962, 0.1478, -3.3788), (1.0253, 0.2957, -3.3713), (1.074, 0.4435, -3.3638), (1.142, 0.5914, -3.3563), (0.7328, 0, -3.1439), (0.7444, 0.0685, -3.1364), (0.7793, 0.137, -3.1289), (0.8374, 0.2055, -3.1214), (0.9188, 0.274, -3.1139), (-1.5323, 0, -2.0263), (-1.5239, 0.1405, -2.0188), (-1.4988, 0.281, -2.0113), (-1.4568, 0.4216, -2.0038), (-1.3981, 0.5621, -1.9963), (-0.9349, 0, -3.1043), (-0.9207, 0.1171, -3.0968), (-0.8782, 0.2342, -3.0893), (-0.8072, 0.3512, -3.0818), (-0.7079, 0.4683, -3.0743), (-1.9579, 0, -3.1783), (-1.9459, 0.1147, -3.1708), (-1.9099, 0.2294, -3.1633), (-1.8498, 0.344, -3.1558), (-1.7658, 0.4587, -3.1483), (-2.8233, 0, -3.2251), (-2.8109, 0.1457, -3.2176), (-2.7737, 0.2914, -3.2101), (-2.7117, 0.437, -3.2026), (-2.6248, 0.5827, -3.1951), (2.3163, 0, -3.0198), (2.3311, 0.1053, -3.0123), (2.3754, 0.2106, -3.0048), (2.4492, 0.316, -2.9973), (2.5525, 0.4213, -2.9898), (1.2558, 0, -2.9402), (1.2653, 0.1332, -2.9327), (1.2936, 0.2664, -2.9252), (1.3408, 0.3996, -2.9177), (1.4069, 0.5328, -2.9102), (2.7, 0, -3.2761), (2.707, 0.1114, -3.2686), (2.728, 0.2228, -3.2611), (2.7631, 0.3342, -3.2536), (2.8121, 0.4456, -3.2461), (-2.689, 0, -2.6466), (-2.6795, 0.1498, -2.6391), (-2.6513, 0.2997, -2.6316), (-2.6042, 0.4495, -2.6241), (-2.5382, 0.5993, -2.6166), (2.7374, 0, -2.0443), (2.745, 0.1392, -2.0368), (2.768, 0.2784, -2.0293), (2.8064, 0.4176, -2.0218), (2.86, 0.5567, -2.0143), (-2.9225, 0, -3.2791), (-2.9118, 0.0636, -3.2716), (-2.8796, 0.1273, -3.2641), (-2.826, 0.1909, -3.2566), (-2.751, 0.2546, -3.2491), (2.9915, 0, -3.0723), (3.0026, 0.0948, -3.0648), (3.036, 0.1897, -3.0573), (3.0916, 0.2845, -3.0498), (3.1695, 0.3793, -3.0423), (1.8059, 0, -2.3112), (1.8198, 0.1033, -2.3037), (1.8614, 0.2066, -2.2962), (1.9307, 0.3099, -2.2887), (2.0278, 0.4132, -2.2812), (2.9238, 0, -1.7383), (2.9373, 0.1263, -1.7308), (2.9777, 0.2526, -1.7233), (3.0452, 0.3788, -1.7158), (3.1396, 0.5051, -1.7083), (-2.0117, 0, -3.0253), (-1.9971, 0.1082, -3.0178), (-1.9533, 0.2164, -3.0103), (-1.8803, 0.3246, -3.0028), (-1.7781, 0.4329, -2.9953), (-1.3032, 0, -1.6284), (-1.2943, 0.072, -1.6209), (-1.2675, 0.144, -1.6134), (-1.2229, 0.216, -1.6059), (-1.1604, 0.288, -1.5984), (-1.1946, 0, -2.6404), (-1.1843, 0.1412, -2.6329), (-1.1536, 0.2824, -2.6254), (-1.1023, 0.4237, -2.6179), (-1.0305, 0.5649, -2.6104), (1.0727, 0, -2.9728), (1.0881, 0.0702, -2.9653), (1.1346, 0.1405, -2.9578), (1.212, 0.2107, -2.9503), (1.3203, 0.2809, -2.9428), (-1.8828, 0, -1.514), (-1.8728, 0.0883, -1.5065), (-1.8429, 0.1766, -1.499), (-1.7929, 0.2649, -1.4915), (-1.723, 0.3531, -1.484), (-1.2273, 0, -2.02), (-1.2166, 0.0812, -2.0125), (-1.1848, 0.1624, -2.005), (-1.1316, 0.2435, -1.9975), (-1.0573, 0.3247, -1.99), (-2.8183, 0, -2.9056), (-2.8036, 0.134, -2.8981), (-2.7596, 0.268, -2.8906), (-2.6862, 0.402, -2.8831), (-2.5835, 0.536, -2.8756), (-2.5999, 0, -3.2988), (-2.5922, 0.0844, -3.2913), (-2.5692, 0.1688, -3.2838), (-2.5308, 0.2531, -3.2763), (-2.4771, 0.3375, -3.2688), (-2.2179, 0, -2.8532), (-2.2077, 0.0965, -2.8457), (-2.1768, 0.1931, -2.8382), (-2.1253, 0.2896, -2.8307), (-2.0533, 0.3861, -2.8232), (1.8155, 0, -2.0054), (1.825, 0.0799, -1.9979), (1.8533, 0.1598, -1.9904), (1.9006, 0.2397, -1.9829), (1.9667, 0.3196, -1.9754), (-0.3601, 0, -2.6437), (-0.3469, 0.1055, -2.6362), (-0.3071, 0.2111, -2.6287), (-0.2409, 0.3166, -2.6212), (-0.1482, 0.4221, -2.6137), (-0.4348, 0, -1.5816), (-0.4207, 0.065, -1.5741), (-0.3782, 0.13, -1.5666), (-0.3074, 0.1951, -1.5591), (-0.2083, 0.2601, -1.5516), (1.1773, 0, -1.5859), (1.1887, 0.1205, -1.5784), (1.2227, 0.2409, -1.5709), (1.2793, 0.3614, -1.5634), (1.3586, 0.4818, -1.5559), (1.2905, 0, -1.7817), (1.302, 0.0648, -1.7742), (1.3366, 0.1296, -1.7667), (1.3943, 0.1944, -1.7592), (1.475, 0.2592, -1.7517), (0.8502, 0, -2.5863), (0.8646, 0.1369, -2.5788), (0.9079, 0.2738, -2.5713), (0.98, 0.4106, -2.5638), (1.081, 0.5475, -2.5563), (1.0129, 0, -2.6984), (1.0258, 0.0922, -2.6909), (1.0647, 0.1844, -2.6834), (1.1296, 0.2766, -2.6759), (1.2203, 0.3688, -2.6684), (2.0569, 0, -1.9487), (2.0638, 0.1371, -1.9412), (2.0844, 0.2742, -1.9337), (2.1189, 0.4113, -1.9262), (2.1671, 0.5484, -1.9187), (2.5613, 0, -2.548), (2.5686, 0.1007, -2.5405), (2.5903, 0.2015, -2.533), (2.6266, 0.3022, -2.5255), (2.6773, 0.4029, -2.518), (1.3126, 0, -2.2203), (1.3273, 0.0772, -2.2128), (1.3715, 0.1544, -2.2053), (1.4452, 0.2316, -2.1978), (1.5483, 0.3088, -2.1903), (-0.7807, 0, -2.3428), (-0.7729, 0.0755, -2.3353), (-0.7492, 0.1509, -2.3278), (-0.7099, 0.2264, -2.3203), (-0.6548, 0.3019, -2.3128), (-2.1566, 0, -2.3675), (-2.1421, 0.0953, -2.36), (-2.0985, 0.1906, -2.3525), (-2.0259, 0.2859, -2.345), (-1.9243, 0.3812, -2.3375), (0.6386, 0, -3.3451), (0.6491, 0.1446, -3.3376), (0.6806, 0.2892, -3.3301), (0.7332, 0.4338, -3.3226), (0.8068, 0.5784, -3.3151), (1.4557, 0, -2.3759), (1.469, 0.1118, -2.3684), (1.509, 0.2237, -2.3609), (1.5758, 0.3355, -2.3534), (1.6692, 0.4474, -2.3459), (2.1171, 0, -3.4209), (2.1292, 0.1372, -3.4134), (2.1657, 0.2744, -3.4059), (2.2264, 0.4116, -3.3984), (2.3114, 0.5488, -3.3909), (-2.5474, 0, -2.0133), (-2.5327, 0.1304, -2.0058), (-2.4887, 0.2607, -1.9983), (-2.4153, 0.3911, -1.9908), (-2.3125, 0.5215, -1.9833), (-1.9852, 0, -2.6323), (-1.9763, 0.1288, -2.6248), (-1.9498, 0.2575, -2.6173), (-1.9056, 0.3863, -2.6098), (-1.8437, 0.5151, -2.6023), (-1.9952, 0, -2.0777), (-1.984, 0.15, -2.0702), (-1.9503, 0.2999, -2.0627), (-1.8942, 0.4499, -2.0552), (-1.8156, 0.5999, -2.0477), (0.07, 0, -1.6929), (0.0807, 0.0629, -1.6854), (0.1126, 0.1257, -1.6779), (0.1658, 0.1886, -1.6704), (0.2403, 0.2514, -1.6629), (-2.3022, 0, -2.227), (-2.2889, 0.0636, -2.2195), (-2.2491, 0.1272, -2.212), (-2.1828, 0.1908, -2.2045), (-2.09, 0.2543, -2.197), (-1.0732, 0, -1.7873), (-1.0641, 0.0953, -1.7798), (-1.0367, 0.1905, -1.7723), (-0.9912, 0.2858, -1.7648), (-0.9274, 0.3811, -1.7573), (-0.603, 0, -3.2578), (-0.588, 0.0878, -3.2503), (-0.5429, 0.1756, -3.2428), (-0.4678, 0.2633, -3.2353), (-0.3627, 0.3511, -3.2278), (2.6141, 0, -2.7021), (2.6228, 0.1396, -2.6946), (2.649, 0.2792, -2.6871), (2.6928, 0.4188, -2.6796), (2.754, 0.5584, -2.6721), (-2.0863, 0, -3.358), (-2.0725, 0.1289, -3.3505), (-2.0311, 0.2579, -3.343), (-1.962, 0.3868, -3.3355), (-1.8654, 0.5158, -3.328), (-0.1454, 0, -2.6223), (-0.1333, 0.1236, -2.6148), (-0.0969, 0.2473, -2.6073), (-0.0364, 0.3709, -2.5998), (0.0483, 0.4945, -2.5923), (0.4359, 0, -2.7871), (0.4474, 0.0792, -2.7796), (0.4818, 0.1584, -2.7721), (0.5392, 0.2376, -2.7646), (0.6196, 0.3167, -2.7571), (2.7642, 0, -2.0853), (2.7749, 0.1383, -2.0778), (2.8071, 0.2767, -2.0703), (2.8606, 0.415, -2.0628), (2.9356, 0.5533, -2.0553), (2.8636, 0, -2.0337), (2.8791, 0.1489, -2.0262), (2.9257, 0.2978, -2.0187), (3.0034, 0.4468, -2.0112), (3.112, 0.5957, -2.0037), (2.0001, 0, -2.5798), (2.0117, 0.1493, -2.5723), (2.0464, 0.2986, -2.5648), (2.1042, 0.4478, -2.5573), (2.1852, 0.5971, -2.5498), (-0.0611, 0, -2.6104), (-0.0531, 0.1265, -2.6029), (-0.029, 0.253, -2.5954), (0.0113, 0.3796, -2.5879), (0.0676, 0.5061, -2.5804), (-0.0362, 0, -2.5608), (-0.0255, 0.1122, -2.5533), (0.0067, 0.2245, -2.5458), (0.0603, 0.3367, -2.5383), (0.1355, 0.4489, -2.5308), (2.5567, 0, -2.0486), (2.5642, 0.0913, -2.0411), (2.5867, 0.1826, -2.0336), (2.6243, 0.2739, -2.0261), (2.6768, 0.3651, -2.0186), (1.8553, 0, -1.974), (1.8638, 0.1268, -1.9665), (1.8896, 0.2536, -1.959), (1.9325, 0.3804, -1.9515), (1.9926, 0.5072, -1.944), (2.3043, 0, -1.5212), (2.3165, 0.0764, -1.5137), (2.3533, 0.1528, -1.5062), (2.4144, 0.2292, -1.4987), (2.5001, 0.3056, -1.4912), (0.7, 0, -2.7059), (0.7104, 0.0987, -2.6984), (0.7417, 0.1974, -2.6909), (0.7938, 0.2961, -2.6834), (0.8667, 0.3949, -2.6759), (0.7542, 0, -2.8954), (0.7693, 0.0987, -2.8879), (0.8147, 0.1974, -2.8804), (0.8903, 0.2961, -2.8729), (0.9962, 0.3948, -2.8654), (0.7381, 0, -1.933), (0.7522, 0.082, -1.9255), (0.7944, 0.164, -1.918), (0.8648, 0.2461, -1.9105), (0.9632, 0.3281, -1.903), (-1.8207, 0, -2.2787), (-1.8086, 0.0696, -2.2712), (-1.7721, 0.1393, -2.2637), (-1.7112, 0.2089, -2.2562), (-1.626, 0.2786, -2.2487), (2.3927, 0, -2.5278), (2.4074, 0.1272, -2.5203), (2.4515, 0.2545, -2.5128), (2.525, 0.3817, -2.5053), (2.6279, 0.509, -2.4978), (-1.8347, 0, -2.4356), (-1.8262, 0.122, -2.4281), (-1.8007, 0.244, -2.4206), (-1.7582, 0.366, -2.4131), (-1.6987, 0.488, -2.4056), (-2.6868, 0, -2.0669), (-2.6773, 0.0818, -2.0594), (-2.6488, 0.1637, -2.0519), (-2.6013, 0.2455, -2.0444), (-2.5348, 0.3273, -2.0369), (0.2136, 0, -3.2921), (0.2232, 0.0722, -3.2846), (0.2522, 0.1445, -3.2771), (0.3006, 0.2167, -3.2696), (0.3682, 0.289, -3.2621), (2.3493, 0, -2.2804), (2.3645, 0.0874, -2.2729), (2.4102, 0.1749, -2.2654), (2.4863, 0.2623, -2.2579), (2.5929, 0.3497, -2.2504), (-1.9084, 0, -3.2855), (-1.895, 0.0865, -3.278), (-1.8548, 0.1731, -3.2705), (-1.7878, 0.2596, -3.263), (-1.694, 0.3461, -3.2555), (2.592, 0, -1.7752), (2.6034, 0.1469, -1.7677), (2.6377, 0.2938, -1.7602), (2.6948, 0.4407, -1.7527), (2.7747, 0.5876, -1.7452), (2.7106, 0, -2.971), (2.7193, 0.0947, -2.9635), (2.7454, 0.1895, -2.956), (2.7889, 0.2842, -2.9485), (2.8499, 0.379, -2.941), (-1.6579, 0, -3.4416), (-1.6433, 0.0963, -3.4341), (-1.5996, 0.1926, -3.4266), (-1.5267, 0.2889, -3.4191), (-1.4247, 0.3852, -3.4116), (-1.967, 0, -3.1453), (-1.9557, 0.1354, -3.1378), (-1.9217, 0.2709, -3.1303), (-1.8652, 0.4063, -3.1228), (-1.786, 0.5418, -3.1153), (-1.3036, 0, -3.014), (-1.2918, 0.1158, -3.0065), (-1.2567, 0.2317, -2.999), (-1.1981, 0.3475, -2.9915), (-1.116, 0.4634, -2.984), (-1.704, 0, -3.0169), (-1.6915, 0.0872, -3.0094), (-1.6539, 0.1745, -3.0019), (-1.5913, 0.2617, -2.9944), (-1.5037, 0.3489, -2.9869), (-0.333, 0, -1.7195), (-0.318, 0.0652, -1.712), (-0.2732, 0.1303, -1.7045), (-0.1985, 0.1955, -1.697), (-0.094, 0.2606, -1.6895), (-0.9934, 0, -2.4919), (-0.9844, 0.0894, -2.4844), (-0.9575, 0.1787, -2.4769), (-0.9127, 0.2681, -2.4694), (-0.85, 0.3575, -2.4619), (-1.2712, 0, -1.7099), (-1.2559, 0.0932, -1.7024), (-1.2099, 0.1865, -1.6949), (-1.1333, 0.2797, -1.6874), (-1.026, 0.373, -1.6799), (-0.0045, 0, -2.3825), (0.0086, 0.1396, -2.375), (0.048, 0.2792, -2.3675), (0.1136, 0.4187, -2.36), (0.2055, 0.5583, -2.3525), (0.357, 0, -2.8647), (0.3699, 0.0776, -2.8572), (0.4083, 0.1552, -2.8497), (0.4724, 0.2329, -2.8422), (0.5622, 0.3105, -2.8347), (-0.5049, 0, -1.7647), (-0.4944, 0.1351, -1.7572), (-0.463, 0.2703, -1.7497), (-0.4106, 0.4054, -1.7422), (-0.3373, 0.5406, -1.7347), (-2.5955, 0, -2.3242), (-2.582, 0.0921, -2.3167), (-2.5414, 0.1842, -2.3092), (-2.4738, 0.2763, -2.3017), (-2.3791, 0.3684, -2.2942), (-1.1964, 0, -2.3283), (-1.1845, 0.1452, -2.3208), (-1.1489, 0.2904, -2.3133), (-1.0895, 0.4356, -2.3058), (-1.0065, 0.5808, -2.2983), (2.521, 0, -2.4003), (2.5323, 0.096, -2.3928), (2.5664, 0.192, -2.3853), (2.6232, 0.288, -2.3778), (2.7027, 0.3841, -2.3703), (1.5293, 0, -3.3557), (1.5419, 0.0708, -3.3482), (1.5797, 0.1417, -3.3407), (1.6428, 0.2125, -3.3332), (1.731, 0.2834, -3.3257), (0.6238, 0, -1.7918), (0.6341, 0.1165, -1.7843), (0.6652, 0.2331, -1.7768), (0.717, 0.3496, -1.7693), (0.7894, 0.4661, -1.7618), (-1.5834, 0, -2.9179), (-1.5712, 0.1242, -2.9104), (-1.5348, 0.2485, -2.9029), (-1.474, 0.3727, -2.8954), (-1.3889, 0.4969, -2.8879), (0.5196, 0, -1.6076), (0.5346, 0.1343, -1.6001), (0.5797, 0.2686, -1.5926), (0.6548, 0.4029, -1.5851), (0.7599, 0.5373, -1.5776), (2.8655, 0, -2.3535), (2.8768, 0.149, -2.346), (2.9108, 0.2979, -2.3385), (2.9673, 0.4469, -2.331), (3.0464, 0.5958, -2.3235), (0.867, 0, -1.6617), (0.8772, 0.0739, -1.6542), (0.9076, 0.1479, -1.6467), (0.9584, 0.2218, -1.6392), (1.0295, 0.2957, -1.6317), (-0.2504, 0, -2.3905), (-0.2389, 0.1375, -2.383), (-0.2045, 0.275, -2.3755), (-0.1472, 0.4125, -2.368), (-0.0669, 0.55, -2.3605), (-1.1463, 0, -1.7002), (-1.1372, 0.1312, -1.6927), (-1.1099, 0.2625, -1.6852), (-1.0644, 0.3937, -1.6777), (-1.0007, 0.525, -1.6702), (-1.971, 0, -3.0395), (-1.9582, 0.1146, -3.032), (-1.92, 0.2292, -3.0245), (-1.8561, 0.3438, -3.017), (-1.7668, 0.4583, -3.0095), (-1.8441, 0, -3.2111), (-1.8376, 0.124, -3.2036), (-1.8184, 0.2479, -3.1961), (-1.7862, 0.3719, -3.1886), (-1.7412, 0.4958, -3.1811)]
        float[] widths = [0.004] (
            interpolation = "constant"
        )
    }

    def Points "Spiral"
    {
        double3 xformOp:translate = (6, 0, 0)
        uniform token[] xformOpOrder = ["xformOp:translate"]
        point3f[] points = [(0.3, 0.05, -2.5), (0.3007, 0.055, -2.4716), (0.2986, 0.06, -2.443), (0.2938, 0.065, -2.4146), (0.2864, 0.07, -2.3866), (0.2762, 0.075, -2.3593), (0.2634, 0.08, -2.3328), (0.2481, 0.085, -2.3075), (0.2304, 0.09, -2.2837), (0.2103, 0.095, -2.2615), (0.1881, 0.1, -2.2411), (0.1639, 0.105, -2.2228), (0.138, 0.11, -2.2068), (0.1104, 0.115, -2.1933), (0.0816, 0.12, -2.1823), (0.0516, 0.125, -2.1741), (0.0208, 0.13, -2.1687), (-0.0105, 0.135, -2.1662), (-0.0421, 0.14, -2.1666), (-0.0737, 0.145, -2.1701), (-0.1051, 0.15, -2.1766), (-0.1358, 0.155, -2.1861), (-0.1657, 0.16, -2.1986), (-0.1945, 0.165, -2.2138), (-0.2218, 0.17, -2.2319), (-0.2475, 0.175, -2.2525), (-0.2712, 0.18, -2.2756), (-0.2928, 0.185, -2.301), (-0.312, 0.19, -2.3285), (-0.3286, 0.195, -2.3578), (-0.3424, 0.2, -2.3888), (-0.3533, 0.205, -2.421), (-0.3611, 0.21, -2.4544), (-0.3658, 0.215, -2.4885), (-0.3673, 0.22, -2.5231), (-0.3654, 0.225, -2.5579), (-0.3603, 0.23, -2.5925), (-0.3519, 0.235, -2.6267), (-0.3402, 0.24, -2.6601), (-0.3254, 0.245, -2.6924), (-0.3074, 0.25, -2.7234), (-0.2865, 0.255, -2.7526), (-0.2629, 0.26, -2.7799), (-0.2366, 0.265, -2.805), (-0.2079, 0.27, -2.8276), (-0.1771, 0.275, -2.8475), (-0.1443, 0.28, -2.8645), (-0.1099, 0.285, -2.8784), (-0.0742, 0.29, -2.889), (-0.0375, 0.295, -2.8962), (0, 0.3, -2.9), (0.0378, 0.305, -2.9002), (0.0757, 0.31, -2.8968), (0.1133, 0.315, -2.8899), (0.1502, 0.32, -2.8793), (0.1861, 0.325, -2.8653), (0.2208, 0.33, -2.8479), (0.2537, 0.335, -2.8271), (0.2848, 0.34, -2.8033), (0.3135, 0.345, -2.7764), (0.3398, 0.35, -2.7469), (0.3632, 0.355, -2.7148), (0.3836, 0.36, -2.6805), (0.4008, 0.365, -2.6443), (0.4146, 0.37, -2.6064), (0.4247, 0.375, -2.5673), (0.4311, 0.38, -2.5271), (0.4338, 0.385, -2.4864), (0.4326, 0.39, -2.4454), (0.4275, 0.395, -2.4045), (0.4185, 0.4, -2.364), (0.4056, 0.405, -2.3245), (0.3891, 0.41, -2.2861), (0.3689, 0.415, -2.2493), (0.3452, 0.42, -2.2144), (0.3182, 0.425, -2.1818), (0.2881, 0.43, -2.1517), (0.2552, 0.435, -2.1245), (0.2197, 0.44, -2.1004), (0.1819, 0.445, -2.0797), (0.1421, 0.45, -2.0625), (0.1008, 0.455, -2.0491), (0.0582, 0.46, -2.0397), (0.0146, 0.465, -2.0342), (-0.0294, 0.47, -2.0329), (-0.0735, 0.475, -2.0358), (-0.1174, 0.48, -2.0428), (-0.1606, 0.485, -2.054), (-0.2027, 0.49, -2.0693), (-0.2433, 0.495, -2.0886), (-0.2821, 0.5, -2.1117), (-0.3188, 0.505, -2.1384), (-0.3528, 0.51, -2.1687), (-0.384, 0.515, -2.2021), (-0.412, 0.52, -2.2385), (-0.4366, 0.525, -2.2775), (-0.4575, 0.53, -2.3189), (-0.4744, 0.535, -2.3622), (-0.4872, 0.54, -2.4071), (-0.4958, 0.545, -2.4531), (-0.5, 0.55, -2.5), (-0.4998, 0.555, -2.5472), (-0.4951, 0.56, -2.5944), (-0.4859, 0.565, -2.6412), (-0.4723, 0.57, -2.687), (-0.4544, 0.575, -2.7315), (-0.4323, 0.58, -2.7743), (-0.4061, 0.585, -2.815), (-0.3761, 0.59, -2.8532), (-0.3426, 0.595, -2.8886), (-0.3056, 0.6, -2.9207), (-0.2657, 0.605, -2.9493), (-0.2231, 0.61, -2.9741), (-0.1782, 0.615, -2.9949), (-0.1313, 0.62, -3.0114), (-0.0829, 0.625, -3.0235), (-0.0334, 0.63, -3.031), (0.0168, 0.635, -3.0337), (0.0672, 0.64, -3.0318), (0.1174, 0.645, -3.025), (0.1669, 0.65, -3.0136), (0.2153, 0.655, -2.9974), (0.2621, 0.66, -2.9767), (0.3069, 0.665, -2.9516), (0.3493, 0.67, -2.9222), (0.3889, 0.675, -2.8889), (0.4253, 0.68, -2.8519), (0.4582, 0.685, -2.8114), (0.4872, 0.69, -2.7679), (0.5121, 0.695, -2.7216), (0.5326, 0.7, -2.673), (0.5485, 0.705, -2.6226), (0.5596, 0.71, -2.5707), (0.5657, 0.715, -2.5178), (0.5669, 0.72, -2.4643), (0.563, 0.725, -2.4108), (0.554, 0.73, -2.3577), (0.5401, 0.735, -2.3056), (0.5212, 0.74, -2.2548), (0.4975, 0.745, -2.2058), (0.4692, 0.75, -2.1591), (0.4366, 0.755, -2.1151), (0.3998, 0.76, -2.0743), (0.3592, 0.765, -2.037), (0.3151, 0.77, -2.0035), (0.2679, 0.775, -1.9743), (0.2179, 0.78, -1.9496), (0.1657, 0.785, -1.9296), (0.1117, 0.79, -1.9146), (0.0563, 0.795, -1.9047), (0, 0.8, -1.9), (-0.0567, 0.805, -1.9007), (-0.1132, 0.81, -1.9067), (-0.1691, 0.815, -1.9181), (-0.2238, 0.82, -1.9347), (-0.2769, 0.825, -1.9565), (-0.3279, 0.83, -1.9833), (-0.3763, 0.835, -2.0148), (-0.4217, 0.84, -2.051), (-0.4636, 0.845, -2.0913), (-0.5016, 0.85, -2.1356), (-0.5354, 0.855, -2.1834), (-0.5646, 0.86, -2.2343), (-0.589, 0.865, -2.2879), (-0.6083, 0.87, -2.3438), (-0.6222, 0.875, -2.4014), (-0.6308, 0.88, -2.4603), (-0.6337, 0.885, -2.5199), (-0.631, 0.89, -2.5797), (-0.6226, 0.895, -2.6392), (-0.6087, 0.9, -2.6978), (-0.5892, 0.905, -2.755), (-0.5643, 0.91, -2.8102), (-0.5343, 0.915, -2.8631), (-0.4993, 0.92, -2.9131), (-0.4596, 0.925, -2.9596), (-0.4156, 0.93, -3.0024), (-0.3676, 0.935, -3.0409), (-0.316, 0.94, -3.0749), (-0.2613, 0.945, -3.1039), (-0.204, 0.95, -3.1277), (-0.1444, 0.955, -3.1461), (-0.0832, 0.96, -3.1588), (-0.0209, 0.965, -3.1657), (0.0419, 0.97, -3.1667), (0.1048, 0.975, -3.1618), (0.1671, 0.98, -3.1509), (0.2283, 0.985, -3.1342), (0.2878, 0.99, -3.1117), (0.3451, 0.995, -3.0836), (0.3997, 1, -3.0501), (0.451, 1.005, -3.0116), (0.4986, 1.01, -2.9682), (0.542, 1.015, -2.9205), (0.5809, 1.02, -2.8686), (0.6148, 1.025, -2.8133), (0.6434, 1.03, -2.7547), (0.6664, 1.035, -2.6936), (0.6837, 1.04, -2.6304), (0.6949, 1.045, -2.5657), (0.7, 1.05, -2.5), (0.6989, 1.055, -2.4339), (0.6915, 1.06, -2.3681), (0.678, 1.065, -2.303), (0.6583, 1.07, -2.2394), (0.6326, 1.075, -2.1777), (0.6012, 1.08, -2.1185), (0.5642, 1.085, -2.0624), (0.5219, 1.09, -2.0099), (0.4748, 1.095, -1.9614), (0.4232, 1.1, -1.9175), (0.3675, 1.105, -1.8785), (0.3083, 1.11, -1.8449), (0.2459, 1.115, -1.8169), (0.181, 1.12, -1.7949), (0.1142, 1.125, -1.779), (0.046, 1.13, -1.7694), (-0.0231, 1.135, -1.7664), (-0.0922, 1.14, -1.7698), (-0.161, 1.145, -1.7798), (-0.2287, 1.15, -1.7962), (-0.2947, 1.155, -1.819), (-0.3584, 1.16, -1.848), (-0.4193, 1.165, -1.883), (-0.4768, 1.17, -1.9237), (-0.5303, 1.175, -1.9697), (-0.5794, 1.18, -2.0207), (-0.6236, 1.185, -2.0762), (-0.6625, 1.19, -2.1358), (-0.6957, 1.195, -2.199), (-0.7228, 1.2, -2.2651), (-0.7436, 1.205, -2.3338), (-0.758, 1.21, -2.4042), (-0.7656, 1.215, -2.4759), (-0.7665, 1.22, -2.5482), (-0.7605, 1.225, -2.6205), (-0.7477, 1.23, -2.692), (-0.7282, 1.235, -2.7622), (-0.7021, 1.24, -2.8304), (-0.6697, 1.245, -2.896), (-0.631, 1.25, -2.9585), (-0.5866, 1.255, -3.0171), (-0.5367, 1.26, -3.0715), (-0.4817, 1.265, -3.1211), (-0.4222, 1.27, -3.1653), (-0.3587, 1.275, -3.2039), (-0.2916, 1.28, -3.2364), (-0.2215, 1.285, -3.2625), (-0.1492, 1.29, -3.2819), (-0.0751, 1.295, -3.2945), (0, 1.3, -3.3), (0.0755, 1.305, -3.2984), (0.1507, 1.31, -3.2898), (0.2249, 1.315, -3.274), (0.2974, 1.32, -3.2513), (0.3677, 1.325, -3.2217), (0.4351, 1.33, -3.1856), (0.4989, 1.335, -3.1432), (0.5586, 1.34, -3.0948), (0.6136, 1.345, -3.041), (0.6634, 1.35, -2.982), (0.7075, 1.355, -2.9184), (0.7456, 1.36, -2.8508), (0.7772, 1.365, -2.7798), (0.802, 1.37, -2.7059), (0.8198, 1.375, -2.6298), (0.8304, 1.38, -2.5522), (0.8336, 1.385, -2.4738), (0.8294, 1.39, -2.3952), (0.8178, 1.395, -2.3172), (0.7989, 1.4, -2.2404), (0.7727, 1.405, -2.1656), (0.7396, 1.41, -2.0934), (0.6997, 1.415, -2.0245), (0.6534, 1.42, -1.9595), (0.601, 1.425, -1.899), (0.5431, 1.43, -1.8435), (0.48, 1.435, -1.7937), (0.4124, 1.44, -1.7499), (0.3408, 1.445, -1.7126), (0.2658, 1.45, -1.6821), (0.188, 1.455, -1.6588), (0.1083, 1.46, -1.6428), (0.0272, 1.465, -1.6344), (-0.0545, 1.47, -1.6337), (-0.1361, 1.475, -1.6407), (-0.2169, 1.48, -1.6554), (-0.2961, 1.485, -1.6777), (-0.373, 1.49, -1.7074), (-0.4469, 1.495, -1.7443), (-0.5173, 1.5, -1.7881), (-0.5833, 1.505, -1.8384), (-0.6444, 1.51, -1.8949), (-0.7001, 1.515, -1.957), (-0.7498, 1.52, -2.0242), (-0.793, 1.525, -2.0959), (-0.8294, 1.53, -2.1716), (-0.8585, 1.535, -2.2506), (-0.8801, 1.54, -2.3321), (-0.894, 1.545, -2.4155), (-0.9, 1.55, -2.5), (-0.898, 1.555, -2.5849), (-0.888, 1.56, -2.6694), (-0.87, 1.565, -2.7528), (-0.8442, 1.57, -2.8343), (-0.8108, 1.575, -2.9131), (-0.77, 1.58, -2.9887), (-0.7222, 1.585, -3.0602), (-0.6677, 1.59, -3.127), (-0.6071, 1.595, -3.1886), (-0.5408, 1.6, -3.2443), (-0.4693, 1.605, -3.2936), (-0.3934, 1.61, -3.3361), (-0.3137, 1.615, -3.3713), (-0.2308, 1.62, -3.3988), (-0.1455, 1.625, -3.4186), (-0.0585, 1.63, -3.4302), (0.0293, 1.635, -3.4335), (0.1173, 1.64, -3.4286), (0.2046, 1.645, -3.4154), (0.2905, 1.65, -3.394), (0.3741, 1.655, -3.3645), (0.4548, 1.66, -3.3272), (0.5317, 1.665, -3.2824), (0.6043, 1.67, -3.2304), (0.6718, 1.675, -3.1718), (0.7335, 1.68, -3.1068), (0.789, 1.685, -3.0362), (0.8377, 1.69, -2.9606), (0.8792, 1.695, -2.8805), (0.913, 1.7, -2.7967), (0.9388, 1.705, -2.7099), (0.9564, 1.71, -2.6208), (0.9655, 1.715, -2.5303), (0.9661, 1.72, -2.4392), (0.9581, 1.725, -2.3483), (0.9415, 1.73, -2.2583), (0.9164, 1.735, -2.1701), (0.8831, 1.74, -2.0844), (0.8418, 1.745, -2.0022), (0.7928, 1.75, -1.924), (0.7366, 1.755, -1.8506), (0.6736, 1.76, -1.7827), (0.6043, 1.765, -1.7209), (0.5294, 1.77, -1.6658), (0.4494, 1.775, -1.6179), (0.3652, 1.78, -1.5777), (0.2773, 1.785, -1.5455), (0.1866, 1.79, -1.5216), (0.0939, 1.795, -1.5064), (0, 1.8, -1.5), (-0.0943, 1.805, -1.5024), (-0.1881, 1.81, -1.5138), (-0.2807, 1.815, -1.5339), (-0.3711, 1.82, -1.5628), (-0.4585, 1.825, -1.6001), (-0.5423, 1.83, -1.6455), (-0.6215, 1.835, -1.6988), (-0.6955, 1.84, -1.7594), (-0.7636, 1.845, -1.8268), (-0.8252, 1.85, -1.9005), (-0.8797, 1.855, -1.9798), (-0.9265, 1.86, -2.064), (-0.9653, 1.865, -2.1525), (-0.9957, 1.87, -2.2443), (-1.0173, 1.875, -2.3389), (-1.03, 1.88, -2.4352), (-1.0335, 1.885, -2.5325), (-1.0278, 1.89, -2.6298), (-1.013, 1.895, -2.7264), (-0.9891, 1.9, -2.8214), (-0.9563, 1.905, -2.9138), (-0.9149, 1.91, -3.0029), (-0.8651, 1.915, -3.0879), (-0.8075, 1.92, -3.168), (-0.7425, 1.925, -3.2425), (-0.6706, 1.93, -3.3106), (-0.5924, 1.935, -3.3717), (-0.5087, 1.94, -3.4254), (-0.4202, 1.945, -3.471), (-0.3276, 1.95, -3.5081), (-0.2317, 1.955, -3.5364), (-0.1334, 1.96, -3.5556), (-0.0335, 1.965, -3.5655), (0.0671, 1.97, -3.5659), (0.1674, 1.975, -3.5568), (0.2666, 1.98, -3.5383), (0.3638, 1.985, -3.5105), (0.4581, 1.99, -3.4736), (0.5487, 1.995, -3.4279), (0.6348, 2, -3.3737), (0.7155, 2.005, -3.3116), (0.7902, 2.01, -3.242), (0.8581, 2.015, -3.1656), (0.9186, 2.02, -3.083), (0.9712, 2.025, -2.9948), (1.0153, 2.03, -2.902), (1.0506, 2.035, -2.8052), (1.0766, 2.04, -2.7054), (1.0931, 2.045, -2.6033)]
        float[] widths = [0.01, 0.0101, 0.0102, 0.0104, 0.0105, 0.0106, 0.0107, 0.0109, 0.011, 0.0111, 0.0112, 0.0114, 0.0115, 0.0116, 0.0117, 0.0119, 0.012, 0.0121, 0.0122, 0.0124, 0.0125, 0.0126, 0.0127, 0.0129, 0.013, 0.0131, 0.0132, 0.0134, 0.0135, 0.0136, 0.0137, 0.0139, 0.014, 0.0141, 0.0143, 0.0144, 0.0145, 0.0146, 0.0148, 0.0149, 0.015, 0.0151, 0.0152, 0.0154, 0.0155, 0.0156, 0.0158, 0.0159, 0.016, 0.0161, 0.0162, 0.0164, 0.0165, 0.0166, 0.0168, 0.0169, 0.017, 0.0171, 0.0172, 0.0174, 0.0175, 0.0176, 0.0178, 0.0179, 0.018, 0.0181, 0.0182, 0.0184, 0.0185, 0.0186, 0.0188, 0.0189, 0.019, 0.0191, 0.0192, 0.0194, 0.0195, 0.0196, 0.0197, 0.0199, 0.02, 0.0201, 0.0203, 0.0204, 0.0205, 0.0206, 0.0208, 0.0209, 0.021, 0.0211, 0.0212, 0.0214, 0.0215, 0.0216, 0.0217, 0.0219, 0.022, 0.0221, 0.0223, 0.0224, 0.0225, 0.0226, 0.0227, 0.0229, 0.023, 0.0231, 0.0232, 0.0234, 0.0235, 0.0236, 0.0237, 0.0239, 0.024, 0.0241, 0.0243, 0.0244, 0.0245, 0.0246, 0.0247, 0.0249, 0.025, 0.0251, 0.0252, 0.0254, 0.0255, 0.0256, 0.0258, 0.0259, 0.026, 0.0261, 0.0262, 0.0264, 0.0265, 0.0266, 0.0268, 0.0269, 0.027, 0.0271, 0.0272, 0.0274, 0.0275, 0.0276, 0.0278, 0.0279, 0.028, 0.0281, 0.0283, 0.0284, 0.0285, 0.0286, 0.0288, 0.0289, 0.029, 0.0291, 0.0292, 0.0294, 0.0295, 0.0296, 0.0298, 0.0299, 0.03, 0.0301, 0.0302, 0.0304, 0.0305, 0.0306, 0.0307, 0.0309, 0.031, 0.0311, 0.0312, 0.0314, 0.0315, 0.0316, 0.0318, 0.0319, 0.032, 0.0321, 0.0323, 0.0324, 0.0325, 0.0326, 0.0328, 0.0329, 0.033, 0.0331, 0.0333, 0.0334, 0.0335, 0.0336, 0.0337, 0.0339, 0.034, 0.0341, 0.0342, 0.0344, 0.0345, 0.0346, 0.0347, 0.0349, 0.035, 0.0351, 0.0353, 0.0354, 0.0355, 0.0356, 0.0358, 0.0359, 0.036, 0.0361, 0.0362, 0.0364, 0.0365, 0.0366, 0.0368, 0.0369, 0.037, 0.0371, 0.0373, 0.0374, 0.0375, 0.0376, 0.0377, 0.0379, 0.038, 0.0381, 0.0382, 0.0384, 0.0385, 0.0386, 0.0388, 0.0389, 0.039, 0.0391, 0.0393, 0.0394, 0.0395, 0.0396, 0.0398, 0.0399, 0.04, 0.0401, 0.0403, 0.0404, 0.0405, 0.0406, 0.0408, 0.0409, 0.041, 0.0411, 0.0412, 0.0414, 0.0415, 0.0416, 0.0417, 0.0419, 0.042, 0.0421, 0.0422, 0.0424, 0.0425, 0.0426, 0.0428, 0.0429, 0.043, 0.0431, 0.0433, 0.0434, 0.0435, 0.0436, 0.0438, 0.0439, 0.044, 0.0441, 0.0443, 0.0444, 0.0445, 0.0446, 0.0447, 0.0449, 0.045, 0.0451, 0.0452, 0.0454, 0.0455, 0.0456, 0.0457, 0.0459, 0.046, 0.0461, 0.0463, 0.0464, 0.0465, 0.0466, 0.0468, 0.0469, 0.047, 0.0471, 0.0473, 0.0474, 0.0475, 0.0476, 0.0478, 0.0479, 0.048, 0.0481, 0.0482, 0.0484, 0.0485, 0.0486, 0.0487, 0.0489, 0.049, 0.0491, 0.0492, 0.0494, 0.0495, 0.0496, 0.0498, 0.0499, 0.05, 0.0501, 0.0503, 0.0504, 0.0505, 0.0506, 0.0508, 0.0509, 0.051, 0.0511, 0.0513, 0.0514, 0.0515, 0.0516, 0.0517, 0.0519, 0.052, 0.0521, 0.0523, 0.0524, 0.0525, 0.0526, 0.0527, 0.0529, 0.053, 0.0531, 0.0532, 0.0534, 0.0535, 0.0536, 0.0538, 0.0539, 0.054, 0.0541, 0.0543, 0.0544, 0.0545, 0.0546, 0.0548, 0.0549, 0.055, 0.0551, 0.0552, 0.0554, 0.0555, 0.0556, 0.0558, 0.0559, 0.056, 0.0561, 0.0562, 0.0564, 0.0565, 0.0566, 0.0567, 0.0569, 0.057, 0.0571, 0.0573, 0.0574, 0.0575, 0.0576, 0.0578, 0.0579, 0.058, 0.0581, 0.0583, 0.0584, 0.0585, 0.0586, 0.0588, 0.0589, 0.059, 0.0591, 0.0593, 0.0594, 0.0595, 0.0596, 0.0597, 0.0599] (
            interpolation = "vertex"
        )
    }
}
